<svg width="194" height="113" viewBox="0 0 194 113" fill="none" xmlns="http://www.w3.org/2000/svg">
<rect width="194" height="113" fill="white"/>
<rect width="194" height="113" stroke="white"/>
<path d="M28.7657 38H55.4275C58.052 38 60.1933 40.1436 60.1933 42.7956V69.6354C60.1933 72.2762 58.063 74.4309 55.4275 74.4309H28.7657C26.1413 74.4309 24 72.2873 24 69.6354V42.7845C24 40.1436 26.1303 38 28.7657 38Z" fill="url(#paint0_linear_1448_11074)"/>
<path d="M42.5139 47.2044C36.8697 47.2044 32.2906 51.8121 32.2906 57.5027C32.2906 63.1933 36.8697 67.79 42.5139 67.79C48.1581 67.79 52.7372 63.1823 52.7372 57.4917C52.7372 51.8011 48.1691 47.2044 42.5139 47.2044ZM42.5139 64.7513C38.5388 64.7513 35.3104 61.5027 35.3104 57.5027C35.3104 53.5027 38.5388 50.2541 42.5139 50.2541C46.489 50.2541 49.7174 53.5027 49.7174 57.5027C49.7174 61.5027 46.5 64.7513 42.5139 64.7513ZM42.5139 51.7348V57.1381C42.5139 57.2928 42.6786 57.4033 42.8214 57.3259L47.5871 54.8397C47.6969 54.7845 47.7299 54.6519 47.675 54.5414C46.6867 52.7955 44.8528 51.6022 42.7335 51.5248C42.6237 51.5248 42.5139 51.6132 42.5139 51.7348ZM35.8375 47.7679L35.2116 47.1381C34.5966 46.5193 33.6083 46.5193 32.9934 47.1381L32.2467 47.8895C31.6318 48.5083 31.6318 49.5027 32.2467 50.1215L32.8616 50.7403C32.9605 50.8397 33.1032 50.8176 33.1911 50.7182C33.5534 50.221 33.9487 49.7458 34.388 49.3038C34.8382 48.8508 35.2994 48.453 35.8045 48.0884C35.9143 48.0221 35.9253 47.8674 35.8375 47.7679ZM45.8631 46.1326V44.8839C45.8631 44.011 45.1603 43.3038 44.2928 43.3038H40.6362C39.7687 43.3038 39.0659 44.011 39.0659 44.8839V46.1657C39.0659 46.3094 39.1976 46.4088 39.3404 46.3757C40.3616 46.0773 41.4378 45.9226 42.5249 45.9226C43.5681 45.9226 44.6003 46.0663 45.5995 46.3425C45.7313 46.3757 45.8631 46.2762 45.8631 46.1326Z" fill="white"/>
<path d="M114.494 65.8674C114.494 68.8177 113.747 70.9724 112.243 72.3425C110.739 73.7127 108.444 74.3978 105.347 74.3978C104.216 74.3978 101.866 74.1768 99.9883 73.7569L100.68 70.3315C102.25 70.663 104.326 70.7514 105.413 70.7514C107.137 70.7514 108.367 70.3978 109.102 69.6906C109.838 68.9834 110.201 67.9337 110.201 66.5414V65.8343C109.772 66.0442 109.212 66.2541 108.52 66.4751C107.829 66.6851 107.027 66.7956 106.127 66.7956C104.941 66.7956 103.865 66.6077 102.887 66.232C101.91 65.8564 101.064 65.3039 100.373 64.5746C99.6808 63.8453 99.1318 62.9282 98.7474 61.8343C98.3631 60.7403 98.1654 58.7845 98.1654 57.3481C98.1654 56 98.3741 54.3094 98.7804 53.1823C99.1977 52.0552 99.7906 51.0829 100.592 50.2762C101.383 49.4696 102.349 48.8508 103.48 48.3978C104.611 47.9447 105.94 47.6575 107.378 47.6575C108.773 47.6575 110.058 47.8343 111.31 48.0442C112.561 48.2541 113.627 48.4751 114.494 48.7182V65.8674V65.8674ZM102.558 57.337C102.558 59.1492 102.953 61.1602 103.744 62C104.534 62.8398 105.556 63.2597 106.807 63.2597C107.488 63.2597 108.136 63.1602 108.74 62.9724C109.344 62.7845 109.827 62.5635 110.212 62.2983V51.5691C109.904 51.5028 108.619 51.2376 107.378 51.2044C105.819 51.1602 104.633 51.8011 103.799 52.8287C102.975 53.8564 102.558 55.6575 102.558 57.337ZM134.875 57.337C134.875 58.7956 134.666 59.9006 134.238 61.105C133.81 62.3094 133.206 63.337 132.426 64.1878C131.646 65.0387 130.713 65.7017 129.615 66.1657C128.517 66.6298 126.826 66.895 125.98 66.895C125.135 66.884 123.455 66.6409 122.367 66.1657C121.28 65.6906 120.347 65.0387 119.567 64.1878C118.788 63.337 118.184 62.3094 117.744 61.105C117.305 59.9006 117.086 58.7956 117.086 57.337C117.086 55.8785 117.283 54.4751 117.723 53.2818C118.162 52.0884 118.777 51.0718 119.567 50.221C120.358 49.3702 121.302 48.7182 122.378 48.2541C123.466 47.7901 124.663 47.5691 125.958 47.5691C127.254 47.5691 128.451 47.8011 129.549 48.2541C130.647 48.7182 131.591 49.3702 132.36 50.221C133.14 51.0718 133.744 52.0884 134.183 53.2818C134.644 54.4751 134.875 55.8785 134.875 57.337ZM130.482 57.3481C130.482 55.4807 130.076 53.9226 129.285 52.8398C128.495 51.7459 127.386 51.2044 125.969 51.2044C124.553 51.2044 123.444 51.7459 122.653 52.8398C121.862 53.9337 121.478 55.4807 121.478 57.3481C121.478 59.2376 121.873 60.5083 122.664 61.6022C123.455 62.7072 124.564 63.2486 125.98 63.2486C127.397 63.2486 128.506 62.6961 129.296 61.6022C130.087 60.4972 130.482 59.2376 130.482 57.3481ZM144.439 66.895C137.4 66.9282 137.4 61.1713 137.4 60.2541L137.389 39.8343L141.683 39.1492V59.4365C141.683 59.9558 141.683 63.2486 144.439 63.2597V66.895ZM152.005 66.895H147.69V48.2431L152.005 47.558V66.895ZM149.842 45.5138C151.28 45.5138 152.455 44.3425 152.455 42.895C152.455 41.4475 151.291 40.2762 149.842 40.2762C148.392 40.2762 147.228 41.4475 147.228 42.895C147.228 44.3425 148.403 45.5138 149.842 45.5138ZM162.734 47.5691C164.15 47.5691 165.347 47.7459 166.313 48.0994C167.28 48.453 168.059 48.9503 168.63 49.5801C169.201 50.2099 169.608 51.0718 169.849 51.9779C170.102 52.884 170.223 53.8785 170.223 54.9724V66.0884C169.564 66.232 168.564 66.3978 167.225 66.5967C165.885 66.7956 164.381 66.895 162.712 66.895C161.602 66.895 160.581 66.7845 159.67 66.5746C158.747 66.3646 157.968 66.0221 157.309 65.547C156.661 65.0718 156.156 64.4641 155.783 63.7127C155.42 62.9613 155.234 61.9006 155.234 60.7956C155.234 59.7348 155.442 59.0608 155.848 58.3315C156.266 57.6022 156.826 57.0055 157.529 56.5414C158.242 56.0773 159.055 55.7459 159.988 55.547C160.922 55.3481 161.899 55.2486 162.909 55.2486C163.381 55.2486 163.876 55.2818 164.403 55.337C164.93 55.3923 165.479 55.4917 166.072 55.6354V54.9282C166.072 54.4309 166.017 53.9558 165.896 53.5138C165.775 53.0608 165.567 52.674 165.281 52.3315C164.985 51.9889 164.6 51.7238 164.117 51.5359C163.634 51.3481 163.019 51.2044 162.283 51.2044C161.295 51.2044 160.395 51.326 159.571 51.4696C158.747 51.6133 158.067 51.779 157.551 51.9668L157.034 48.4199C157.572 48.232 158.374 48.0442 159.406 47.8564C160.439 47.6685 161.548 47.5691 162.734 47.5691ZM163.096 63.2486C164.414 63.2486 165.391 63.1713 166.072 63.0387V58.6409C165.83 58.5746 165.49 58.4972 165.04 58.4309C164.589 58.3646 164.095 58.3204 163.546 58.3204C163.074 58.3204 162.591 58.3536 162.108 58.4309C161.624 58.4972 161.185 58.6298 160.801 58.8177C160.417 59.0055 160.098 59.2707 159.867 59.6133C159.626 59.9558 159.516 60.1547 159.516 60.674C159.516 61.6906 159.867 62.2762 160.504 62.663C161.152 63.0608 162.009 63.2486 163.096 63.2486ZM78.3009 47.6796C79.7174 47.6796 80.9143 47.8564 81.8807 48.2099C82.847 48.5635 83.6266 49.0608 84.1977 49.6906C84.7796 50.3315 85.175 51.1823 85.4165 52.0884C85.6691 52.9945 85.7899 53.9889 85.7899 55.0829V66.1989C85.131 66.3425 84.1318 66.5083 82.7921 66.7072C81.4524 66.9061 79.948 67.0055 78.2789 67.0055C77.1698 67.0055 76.1486 66.895 75.2372 66.6851C74.3148 66.4751 73.5351 66.1326 72.8763 65.6575C72.2284 65.1823 71.7233 64.5746 71.3499 63.8232C70.9875 63.0718 70.8009 62.011 70.8009 60.9061C70.8009 59.8453 71.0095 59.1713 71.4158 58.442C71.8331 57.7127 72.3931 57.116 73.0959 56.6519C73.8097 56.1878 74.6222 55.8564 75.5556 55.6575C76.489 55.4586 77.4663 55.3591 78.4766 55.3591C78.9487 55.3591 79.4429 55.3923 79.97 55.4475C80.4861 55.5028 81.0461 55.6022 81.6391 55.7459V55.0387C81.6391 54.5414 81.5842 54.0663 81.4634 53.6243C81.3426 53.1713 81.134 52.7845 80.8485 52.442C80.552 52.0994 80.1676 51.8343 79.6845 51.6464C79.2013 51.4586 78.5864 51.3149 77.8507 51.3149C76.8624 51.3149 75.9619 51.4365 75.1384 51.5801C74.3148 51.7238 73.634 51.8895 73.1179 52.0773L72.6018 48.5304C73.1398 48.3425 73.9414 48.1547 74.9736 47.9668C76.0059 47.768 77.1149 47.6796 78.3009 47.6796ZM78.6742 63.3702C79.9919 63.3702 80.9692 63.2928 81.6501 63.1602V58.7624C81.4085 58.6961 81.0681 58.6188 80.6179 58.5525C80.1676 58.4862 79.6735 58.442 79.1244 58.442C78.6523 58.442 78.1691 58.4751 77.6859 58.5525C77.2028 58.6188 76.7635 58.7514 76.3792 58.9392C75.9949 59.1271 75.6764 59.3923 75.4458 59.7348C75.2042 60.0773 75.0944 60.2762 75.0944 60.7956C75.0944 61.8122 75.4458 62.3978 76.0827 62.7845C76.7196 63.1713 77.5871 63.3702 78.6742 63.3702ZM96.0791 66.895C89.0403 66.9282 89.0403 61.1713 89.0403 60.2541L89.0293 39.8343L93.3228 39.1492V59.4365C93.3228 59.9558 93.3228 63.2486 96.0791 63.2597V66.895V66.895Z" fill="#182359"/>
<defs>
<linearGradient id="paint0_linear_1448_11074" x1="10.3372" y1="87.1583" x2="71.5218" y2="28.3078" gradientUnits="userSpaceOnUse">
<stop stop-color="#00AEFF"/>
<stop offset="1" stop-color="#3369E7"/>
</linearGradient>
</defs>
</svg>
