<svg width="1512" height="561" viewBox="0 0 1512 561" fill="none" xmlns="http://www.w3.org/2000/svg">
<rect width="1512" height="561" fill="white"/>
<path fill-rule="evenodd" clip-rule="evenodd" d="M226.738 342.339C229.028 342.797 232.927 343.789 237.014 345.043C239.797 345.896 245.459 346.778 246.451 348.552C247.442 350.333 246.015 353.329 245.216 356.521C244.633 358.849 244.413 361.269 244.107 363.499C243.154 370.39 243.244 376.282 244.606 381.838C245.453 385.285 246.475 388.801 246.937 392.863C247.41 397.015 246.97 400.742 246.27 405.687C245.038 414.38 242.6 424.836 239.634 433.697C236.824 442.107 233.467 451.659 227.459 454.844C223.366 457.017 213.938 455.72 207.867 454.265C204.227 453.392 200.582 452.28 197.231 450.966C192.037 448.922 187.926 446.957 186.3 442.749C183.752 436.154 185.408 425.836 187.361 416.146C189.426 405.905 192.677 395.314 195.914 387.597C197.846 382.985 200.097 379.738 202.541 376.904C205.008 374.041 207.725 371.464 210.127 367.979C213.27 363.409 216.176 356.533 218.103 348.836C218.575 346.964 219.074 343.006 220.204 341.976C221.455 340.843 224.785 341.947 226.738 342.339Z" fill="#094A63"/>
<path fill-rule="evenodd" clip-rule="evenodd" d="M228.822 371.64C225.519 372.72 220.827 373.38 216.118 372.536C215.328 372.395 214.495 372.218 213.72 371.935C212.046 371.328 209.924 369.325 210.426 367.286C210.969 365.076 213.972 364.465 216.539 365.254C221.257 366.711 223.875 370.442 228.822 371.64Z" fill="#166B8B"/>
<path fill-rule="evenodd" clip-rule="evenodd" d="M246.27 405.687C246.97 400.741 247.409 397.015 246.937 392.863C246.475 388.802 245.452 385.285 244.605 381.838C243.761 378.391 243.408 374.813 243.487 370.949C238.168 369.131 233.355 369.946 228.46 371.043C224.608 371.903 220.655 372.841 216.983 372.119C214.329 371.59 211.907 369.91 210.936 368.309C210.796 368.079 210.682 367.745 210.498 367.421C210.374 367.609 210.252 367.799 210.127 367.978C207.726 371.463 205.009 374.04 202.542 376.903C200.099 379.736 197.847 382.984 195.915 387.596C192.678 395.314 189.426 405.904 187.362 416.145C185.408 425.836 183.753 436.154 186.301 442.749C187.927 446.956 192.038 448.921 197.231 450.965C200.582 452.279 204.228 453.391 207.868 454.265C213.938 455.719 223.366 457.017 227.46 454.844C233.468 451.658 236.824 442.107 239.635 433.696C242.601 424.836 245.038 414.38 246.27 405.687Z" fill="#7BC0D3"/>
<path fill-rule="evenodd" clip-rule="evenodd" d="M245.316 411.449C241.091 421.025 236.922 428.709 231.213 436.299C227.94 440.658 224.048 444.384 219.645 447.408C216.216 449.765 213.037 451.03 208.976 452.378C207.841 452.754 206.688 453.238 206.079 453.807C206.675 453.962 207.271 454.122 207.867 454.265C213.938 455.72 223.366 457.017 227.459 454.844C233.467 451.659 236.824 442.108 239.634 433.697C241.969 426.719 243.967 418.765 245.316 411.449Z" fill="#166B8B"/>
<path fill-rule="evenodd" clip-rule="evenodd" d="M234.78 344.005C236.584 344.388 239.454 345.171 242.777 346.139C245.53 346.936 249.14 347.33 248.8 349.554C248.379 352.31 244.629 350.945 241.789 350.095C236.172 348.398 231.11 347.375 225.19 346.188C222.99 345.746 218.313 345.37 217.911 343.726C217.766 343.128 218.034 341.905 218.632 341.36C219.303 340.746 221.07 341.065 222.227 341.243C226.15 341.848 230.757 343.156 234.78 344.005Z" fill="#086D9B"/>
<path fill-rule="evenodd" clip-rule="evenodd" d="M246.567 354.697C246.742 355.114 246.51 356.701 245.936 357.209C244.846 358.168 240.614 356.512 238.477 355.98C233.304 354.682 228.136 353.113 223.498 352.224C221.538 351.851 217.003 351.415 216.336 350.306C215.705 349.257 216.604 346.722 218.046 347.041C220.327 347.541 222.656 348.45 225.178 349.081C229.818 350.243 235.017 351.418 239.943 352.653C242.276 353.236 244.779 353.363 246.567 354.697Z" fill="#086D9B"/>
<path fill-rule="evenodd" clip-rule="evenodd" d="M206.524 379.812C209.559 380.045 207.161 384.712 206.221 386.613C205.19 388.7 204.379 390.082 203.404 392.272C202.461 394.385 201.875 396.302 200.943 398.532C200.071 400.609 198.909 403.114 197.346 402.725C195.843 402.352 195.756 399.529 196.093 397.574C196.696 394.015 198.163 390.096 199.603 387.12C201.283 383.626 203.507 380.064 206.287 379.751C206.362 379.741 206.452 379.809 206.524 379.812Z" fill="#166B8B"/>
<path fill-rule="evenodd" clip-rule="evenodd" d="M195.846 407.188C198.822 407.527 195.618 416.963 193.713 416.715C191.074 416.375 192.907 406.854 195.846 407.188Z" fill="#166B8B"/>
<path fill-rule="evenodd" clip-rule="evenodd" d="M238.448 389.564C236.591 390.445 236.034 386.48 237.444 385.445C238.958 384.331 240.014 388.822 238.448 389.564Z" fill="#086D9B"/>
<path fill-rule="evenodd" clip-rule="evenodd" d="M214.639 382.825C215.604 383.741 212.776 388.573 212.036 385.462C211.814 384.518 213.314 381.565 214.639 382.825Z" fill="#086D9B"/>
<path fill-rule="evenodd" clip-rule="evenodd" d="M228.732 392.927C230.893 392.468 230.436 398.073 228.33 397.189C227.367 396.785 227.374 393.219 228.732 392.927Z" fill="#086D9B"/>
<path fill-rule="evenodd" clip-rule="evenodd" d="M216.52 395.441C214.666 395.642 215.642 391.31 216.941 391.595C218.15 391.863 217.777 395.302 216.52 395.441Z" fill="#086D9B"/>
<path fill-rule="evenodd" clip-rule="evenodd" d="M229.6 423.388C227.745 423.591 228.722 419.256 230.021 419.543C231.228 419.809 230.855 423.249 229.6 423.388Z" fill="#086D9B"/>
<path fill-rule="evenodd" clip-rule="evenodd" d="M221.873 405.866C219.255 406.318 219.823 400.246 222.005 401.117C223.25 401.618 223.64 405.562 221.873 405.866Z" fill="#086D9B"/>
<path fill-rule="evenodd" clip-rule="evenodd" d="M230.353 408.708C228.312 408.794 228.312 405.248 229.569 403.834C231.312 401.869 232.436 408.626 230.353 408.708Z" fill="#086D9B"/>
<path fill-rule="evenodd" clip-rule="evenodd" d="M211.582 402.641C212.237 403.466 211.381 406.74 210.262 406.77C208.072 406.839 210.064 400.726 211.582 402.641Z" fill="#086D9B"/>
<path fill-rule="evenodd" clip-rule="evenodd" d="M219.803 412.038C220.289 413.835 218.733 416.189 217.411 416.549C214.7 417.289 219.135 409.585 219.803 412.038Z" fill="#086D9B"/>
<path fill-rule="evenodd" clip-rule="evenodd" d="M220.698 420.437C222.709 420.069 222.678 425.701 221.092 425.749C218.955 425.806 219.129 420.724 220.698 420.437Z" fill="#086D9B"/>
<path fill-rule="evenodd" clip-rule="evenodd" d="M209.485 422.826C207.669 423.101 207.219 420.375 208.276 418.925C209.647 417.048 211.531 422.518 209.485 422.826Z" fill="#086D9B"/>
<path fill-rule="evenodd" clip-rule="evenodd" d="M214.276 430.903C215.983 430.769 215.132 435.737 213.767 435.543C212.35 435.342 212.749 431.023 214.276 430.903Z" fill="#086D9B"/>
<path fill-rule="evenodd" clip-rule="evenodd" d="M225.362 379.084C227.069 378.95 226.222 383.918 224.854 383.725C223.435 383.522 223.838 379.204 225.362 379.084Z" fill="#086D9B"/>
<path fill-rule="evenodd" clip-rule="evenodd" d="M206.137 429.248C207.062 430.004 206.095 434.299 204.631 434.013C203.225 433.743 204.063 427.559 206.137 429.248Z" fill="#086D9B"/>
<path fill-rule="evenodd" clip-rule="evenodd" d="M196.968 440.706C195.252 441.058 194.855 438.284 195.02 437.001C195.204 435.619 195.909 434.761 196.992 435.378C198.25 436.095 198.738 440.343 196.968 440.706Z" fill="#086D9B"/>
<path fill-rule="evenodd" clip-rule="evenodd" d="M1257.04 427.379C1257.37 425.226 1256.49 423.151 1255.85 421.023C1255.79 420.791 1255.51 420.408 1255.87 420.195C1256.23 420.068 1256.5 420.497 1256.65 420.708C1257.12 421.334 1257.46 422.388 1257.68 423.105C1258.02 424.177 1258.14 425.338 1258.32 426.322C1259.25 425.254 1260.24 424.381 1261.34 423.834C1261.66 423.673 1262.13 423.426 1262.36 423.625C1262.57 423.81 1262.47 424.219 1262.31 424.497C1261.49 425.89 1259.73 426.99 1258.71 428.025C1260.29 427.453 1262.09 426.735 1263.73 426.612C1264.05 426.589 1264.96 426.56 1265.2 426.944C1265.59 427.562 1264.18 428.29 1263.84 428.466C1261.98 429.431 1259.94 429.731 1258.14 430.059C1256.24 430.404 1254.36 430.749 1252.32 430.255C1251.65 430.096 1250.8 429.92 1250.53 429.124C1250.84 428.665 1251.48 428.576 1251.97 428.502C1252.93 428.365 1253.87 428.417 1254.86 428.431C1255.38 428.437 1255.89 428.431 1256.39 428.507C1256.43 428.476 1256.48 428.5 1256.51 428.455C1255.92 428.195 1255.2 427.952 1254.47 427.344C1253.97 426.917 1253.17 426.011 1253.54 425.558C1254 425.004 1255.68 426.19 1256.28 426.657C1256.56 426.868 1256.9 427.141 1257.04 427.379Z" fill="#00AF93"/>
<path fill-rule="evenodd" clip-rule="evenodd" d="M1265.24 430.418C1268.43 432.573 1268.33 435.779 1267.89 438.39C1267.65 439.869 1267.27 441.192 1266.59 443.012C1265.94 444.713 1265.43 445.767 1264.7 447.678C1264.12 449.221 1263.22 451.569 1261.66 451.99C1260.3 452.356 1258.57 451.038 1257.08 449.557C1255.65 448.143 1254.5 446.505 1253.79 445.405C1252.07 442.716 1250.18 439.62 1250.02 436.865C1249.89 434.853 1251.27 432.063 1253.61 430.811C1255.52 429.781 1258.18 429.22 1260.42 429.164C1261.68 429.133 1262.71 429.201 1263.94 429.695C1264.3 429.841 1264.71 430.057 1265.24 430.418Z" fill="#FF4E4E"/>
<path fill-rule="evenodd" clip-rule="evenodd" d="M1265.22 433.607C1266.1 433.922 1265.64 435.057 1265.4 435.743C1265.18 436.387 1264.78 437.41 1264.19 437.171C1264.03 437.101 1263.74 436.719 1263.67 436.427C1263.59 435.983 1264.16 433.228 1265.22 433.607Z" fill="#F7F7FC"/>
<path fill-rule="evenodd" clip-rule="evenodd" d="M1260.86 431.9C1261.8 432.313 1261.82 434.695 1261.54 435.156C1261.08 435.938 1260.32 435.725 1260.03 435.324C1259.72 434.91 1259.82 434.269 1259.8 433.604C1259.79 433.154 1259.81 431.446 1260.86 431.9Z" fill="#F7F7FC"/>
<path fill-rule="evenodd" clip-rule="evenodd" d="M1263.96 440.334C1264.59 440.611 1264.5 441.092 1264.38 441.83C1264.26 442.524 1263.83 444.248 1262.78 443.536C1262.31 443.214 1262.38 442.631 1262.56 441.9C1262.74 441.176 1263.13 439.962 1263.96 440.334Z" fill="#F7F7FC"/>
<path fill-rule="evenodd" clip-rule="evenodd" d="M1259.36 437.283C1260.01 437.515 1260.05 438.537 1260.23 439.237C1260.4 439.914 1260.51 440.418 1260.27 440.724C1260 441.062 1259.53 441.153 1259.21 440.98C1258.33 440.49 1258.11 438.105 1258.63 437.509C1258.86 437.249 1259.08 437.183 1259.36 437.283Z" fill="#F7F7FC"/>
<path fill-rule="evenodd" clip-rule="evenodd" d="M1253.86 433.851C1253.99 433.906 1254.18 434.04 1254.35 434.266C1254.89 434.957 1255.67 436.297 1255.27 436.877C1254.92 437.385 1254.48 437.331 1253.94 436.826C1253.5 436.402 1252.6 434.581 1253.16 433.95C1253.4 433.686 1253.65 433.764 1253.86 433.851Z" fill="#F7F7FC"/>
<path fill-rule="evenodd" clip-rule="evenodd" d="M1255.17 440.156C1255.58 440.343 1255.99 441.062 1256.37 441.628C1256.69 442.104 1257.05 442.668 1256.74 443.09C1255.97 444.144 1255.01 442.484 1254.69 441.809C1254.53 441.463 1254.1 440.702 1254.48 440.254C1254.74 439.954 1254.94 440.054 1255.17 440.156Z" fill="#F7F7FC"/>
<path fill-rule="evenodd" clip-rule="evenodd" d="M1259.14 444.047C1259.74 444.259 1259.95 445.049 1260.19 445.696C1260.4 446.271 1260.41 446.816 1260.14 447.109C1259.01 448.337 1257.49 444.999 1258.53 444.138C1258.7 444 1258.88 443.954 1259.14 444.047Z" fill="#F7F7FC"/>
<path d="M1261.66 451.99C1263.19 451.577 1264.08 449.306 1264.67 447.763C1263.85 447.55 1262.95 448.016 1262.39 448.902C1261.83 447.258 1259.84 448.143 1259.77 449.527C1258.75 448.673 1257.77 448.458 1256.89 449.375C1256.96 449.435 1257.02 449.495 1257.08 449.556C1258.57 451.038 1260.3 452.356 1261.66 451.99Z" fill="#E61818"/>
<path fill-rule="evenodd" clip-rule="evenodd" d="M1146.34 147.177C1146.6 148.252 1145.96 149.064 1145.36 149.894C1144.49 151.089 1142.8 153.03 1141.26 153.704C1139.88 154.298 1137.73 154.07 1136.53 153.788C1135.86 153.629 1135.17 153.349 1134.57 153.063C1133.97 152.775 1133.18 152.456 1133 151.75C1133.15 151.081 1133.99 151.144 1134.5 151.152C1136.08 151.187 1137.78 151.806 1139.11 152.223C1138.38 151.47 1137.46 150.281 1136.98 148.88C1136.82 148.414 1136.51 147.254 1137 147.015C1137.65 146.69 1138.4 147.928 1138.77 148.477C1139.31 149.294 1139.66 150.024 1140.04 150.856C1140.12 149.471 1139.9 147.831 1139.81 146.333C1139.78 145.887 1139.66 145.315 1140.01 145C1140.66 145.155 1140.61 146.024 1140.7 146.542C1141.01 148.337 1141.04 150.157 1140.94 151.73C1140.95 151.789 1140.9 151.82 1140.92 151.886C1141.85 150.523 1143 148.906 1144.59 147.709C1145.04 147.373 1145.65 146.702 1146.34 147.177Z" fill="#00BCB9"/>
<path fill-rule="evenodd" clip-rule="evenodd" d="M1147.52 152.042C1149.12 151.881 1150.72 153.5 1150.58 155.504C1150.99 155.852 1151.5 156.021 1151.71 156.602C1151.97 157.356 1151.58 158.188 1151 158.627C1151.98 159.511 1152.06 161.357 1151.05 161.956C1152.5 163.705 1151.09 166.345 1148.82 166.001C1148.59 165.967 1148 165.616 1147.94 165.637C1147.82 165.691 1147.74 166.363 1147.61 166.573C1146.97 167.603 1145.02 167.877 1144.28 167.061C1142.57 168.791 1139.38 168.243 1139.25 165.621C1138.92 165.458 1138.63 165.578 1138.29 165.436C1137.19 164.966 1136.81 163.426 1137.41 162.473C1136.48 162.253 1135.62 161.571 1135.31 160.528C1134.94 159.227 1135.72 158.17 1136.81 157.56C1135.99 156.683 1135.99 155.487 1136.24 154.858C1136.63 153.889 1137.91 153.065 1139.08 153.42C1139.21 153.462 1139.53 153.639 1139.53 153.639C1139.69 153.581 1139.93 152.862 1140.09 152.696C1140.71 152.078 1141.88 151.872 1142.68 152.019C1143.55 150.173 1146.66 149.956 1147.52 152.042Z" fill="#E61818"/>
<path fill-rule="evenodd" clip-rule="evenodd" d="M1138.53 155.025C1139.64 154.166 1140.51 156.196 1139.99 156.892C1138.99 158.252 1137.52 155.809 1138.53 155.025Z" fill="white"/>
<path fill-rule="evenodd" clip-rule="evenodd" d="M1142.75 154.37C1143.74 153.447 1144.41 155.735 1143.29 155.895C1142.59 155.991 1142.4 154.706 1142.75 154.37Z" fill="white"/>
<path fill-rule="evenodd" clip-rule="evenodd" d="M1137.93 161.624C1136.88 161.188 1136.68 159.089 1138.01 159.293C1138.69 159.397 1139.61 161.849 1137.93 161.624Z" fill="white"/>
<path fill-rule="evenodd" clip-rule="evenodd" d="M1141.51 158.892C1141.77 158.687 1142.03 158.584 1142.33 158.68C1143.08 158.924 1143.68 161.283 1142.3 161.365C1141.51 161.41 1140.81 159.437 1141.51 158.892Z" fill="white"/>
<path fill-rule="evenodd" clip-rule="evenodd" d="M1140.45 164.385C1140.22 164.491 1140.01 164.525 1139.83 164.527C1139.17 164.186 1139.12 162.775 1140.07 162.881C1140.52 163.153 1140.7 163.995 1140.45 164.385Z" fill="white"/>
<path fill-rule="evenodd" clip-rule="evenodd" d="M1143.41 164.545C1143.92 164.911 1144.59 166.133 1143.94 166.512C1142.81 167.169 1141.56 164.367 1143.41 164.545Z" fill="white"/>
<path fill-rule="evenodd" clip-rule="evenodd" d="M1465.26 430.925C1465.22 430.909 1465.14 430.888 1465.14 430.888C1458.58 428.291 1452.58 429.085 1448.17 430.979C1443.69 432.905 1439.36 436.108 1436.71 442.165C1434.03 448.285 1434.79 454.546 1436.96 459.056C1439.18 463.684 1442.86 467.81 1448.78 470.186C1454.8 472.614 1461.2 472.105 1465.99 470.17C1470.83 468.209 1474.97 464.762 1477.44 458.987C1480.32 452.233 1479.31 446.484 1477.19 442.092C1475.03 437.63 1471.51 433.477 1465.26 430.925Z" fill="#FFC539"/>
<path d="M1454.23 468.191C1448.32 465.814 1444.64 461.689 1442.41 457.062C1440.24 452.551 1439.49 446.288 1442.16 440.17C1444.49 434.857 1448.11 431.739 1451.98 429.753C1450.61 430.057 1449.33 430.478 1448.17 430.979C1443.69 432.905 1439.36 436.108 1436.71 442.165C1434.04 448.285 1434.8 454.546 1436.96 459.056C1439.19 463.684 1442.86 467.81 1448.78 470.186C1454.8 472.614 1461.2 472.105 1465.99 470.17C1466.68 469.889 1467.35 469.576 1468.01 469.234C1463.81 470.187 1458.91 470.077 1454.23 468.191Z" fill="#FAAE05"/>
<path fill-rule="evenodd" clip-rule="evenodd" d="M1451.21 418.559C1450.56 420.463 1450.85 422.149 1451.43 423.618C1452.14 425.397 1453.67 427.148 1455.38 428.555C1457.07 429.948 1459.28 431.631 1461.86 431.282C1463.89 426.299 1459.98 420.72 1455.37 418.703C1454.06 418.13 1452.13 417.53 1451.21 418.559Z" fill="#00AF93"/>
<path fill-rule="evenodd" clip-rule="evenodd" d="M1452.96 419.246C1452.31 420.566 1453.75 421.574 1454.43 422.472C1456.57 425.325 1459.03 428.615 1461.43 431.407C1460.84 434.066 1460.27 436.714 1463.13 437.599C1464.26 437.334 1464.81 435.512 1465.18 434.053C1465.62 432.278 1467.06 426.655 1465.83 425.853C1463.95 424.624 1462.92 427.571 1462.11 429.261C1461.58 429.16 1461.44 428.554 1461.15 428.163C1460.21 426.927 1459.22 425.644 1458.17 424.326C1456.86 422.681 1455.31 420.839 1453.64 419.595C1453.43 419.435 1453.37 419.365 1452.96 419.246Z" fill="#752C00"/>
<path fill-rule="evenodd" clip-rule="evenodd" d="M1469.46 437.916C1469 438.746 1469.34 439.565 1469.53 440.169C1469.7 440.715 1469.78 441.623 1470.74 441.738C1471.94 440.824 1471.4 437.212 1469.46 437.916Z" fill="#F7F7FC"/>
<path fill-rule="evenodd" clip-rule="evenodd" d="M1450.54 434.235C1450.66 434.402 1450.84 434.548 1450.9 434.743C1451.79 434.572 1453.39 434.8 1453.74 434.077C1454.55 432.427 1450.73 432.294 1450.54 434.235Z" fill="#F7F7FC"/>
<path fill-rule="evenodd" clip-rule="evenodd" d="M1448.51 436.874C1448.64 437.039 1448.65 437.266 1448.72 437.464C1449.64 437.751 1450.25 437.467 1450.49 436.454C1449.95 435.652 1448.91 436.226 1448.51 436.874Z" fill="#F7F7FC"/>
<path fill-rule="evenodd" clip-rule="evenodd" d="M1465.76 442.118C1465.36 443.284 1465.21 444.325 1466.22 444.761C1466.26 444.649 1466.4 444.714 1466.5 444.717C1467.26 443.774 1467.25 441.598 1465.76 442.118Z" fill="#F7F7FC"/>
<path fill-rule="evenodd" clip-rule="evenodd" d="M1446.8 436.063C1445.65 435.947 1445.01 436.822 1444.33 437.637C1444.41 437.859 1444.52 438.068 1444.66 438.264C1445.71 438.143 1446.94 437.475 1447.04 436.14C1446.96 436.114 1446.88 436.089 1446.8 436.063Z" fill="#F7F7FC"/>
<path fill-rule="evenodd" clip-rule="evenodd" d="M1469.55 444.64C1468.85 445.929 1468.3 448.135 1469.48 448.558C1471.35 449.238 1472.15 443.525 1469.55 444.64Z" fill="#F7F7FC"/>
<path fill-rule="evenodd" clip-rule="evenodd" d="M1473.17 453.022C1473.71 452.748 1474.17 451.23 1473.42 451.001C1472.5 450.795 1472 452.891 1473.17 453.022Z" fill="#F7F7FC"/>
<path fill-rule="evenodd" clip-rule="evenodd" d="M1463.4 450.294C1462.83 451.261 1462.27 452.98 1463.01 453.588C1465.07 454.384 1465.83 449.144 1463.4 450.294Z" fill="#F7F7FC"/>
<path fill-rule="evenodd" clip-rule="evenodd" d="M1467.34 457.725C1469.02 459.008 1469.57 456.568 1470.15 455.08C1469.34 452.342 1466.68 455.873 1467.34 457.725Z" fill="#F7F7FC"/>
<path fill-rule="evenodd" clip-rule="evenodd" d="M1438.63 446.85C1438.31 447.61 1438.24 448.244 1438.42 448.749C1438.65 448.827 1438.89 448.902 1439.13 448.977C1439.94 448.415 1439.86 446.344 1438.63 446.85Z" fill="#F7F7FC"/>
<path fill-rule="evenodd" clip-rule="evenodd" d="M1472.77 458.807C1471.68 459.093 1470.68 460.898 1470.67 462.076C1470.82 462.104 1470.88 462.171 1470.87 462.272C1472.41 462.631 1473.33 460.201 1473.13 458.92C1473.01 458.883 1472.89 458.848 1472.77 458.807Z" fill="#F7F7FC"/>
<path fill-rule="evenodd" clip-rule="evenodd" d="M1463.16 458.886C1462.62 459.412 1461.66 460.436 1461.96 461.396C1463.32 462.609 1465.77 458.807 1463.16 458.886Z" fill="#F7F7FC"/>
<path fill-rule="evenodd" clip-rule="evenodd" d="M1437.98 451.766C1437.96 453.3 1437.03 455.303 1439.06 455.787C1440.19 454.734 1439.96 452.164 1438.45 451.521C1438.33 451.671 1438.17 451.75 1437.98 451.766Z" fill="#F7F7FC"/>
<path fill-rule="evenodd" clip-rule="evenodd" d="M1441.2 453.187C1441.03 454.273 1440.82 455.378 1441.95 455.788C1442.79 455.14 1442.56 453.02 1441.2 453.187Z" fill="#F7F7FC"/>
<path fill-rule="evenodd" clip-rule="evenodd" d="M1464.67 466.07C1465.72 466.179 1466.37 465.5 1466.79 464.382C1466.15 462.865 1463.97 464.997 1464.67 466.07Z" fill="#F7F7FC"/>
<path fill-rule="evenodd" clip-rule="evenodd" d="M1441.67 459.117C1441.13 459.801 1441.37 460.751 1442.25 461.01C1443 460.551 1442.81 459.219 1441.67 459.117Z" fill="#F7F7FC"/>
<path fill-rule="evenodd" clip-rule="evenodd" d="M1458.05 468.289C1458.2 468.412 1458.28 468.569 1458.29 468.762C1459.71 468.944 1460.91 468.691 1461.44 467.138C1460.49 465.877 1458.68 467.088 1458.05 468.289Z" fill="#F7F7FC"/>
<path fill-rule="evenodd" clip-rule="evenodd" d="M1451.51 467.382C1451.62 467.422 1451.55 467.558 1451.55 467.659C1452.59 468.345 1454.22 468.012 1454.47 467.145C1454.95 465.51 1451.98 465.995 1451.51 467.382Z" fill="#F7F7FC"/>
<path fill-rule="evenodd" clip-rule="evenodd" d="M1219.41 418.841C1219.38 418.848 1219.3 418.877 1219.3 418.877C1213.34 420.583 1209.59 424.352 1207.53 428.032C1205.44 431.772 1204.14 436.321 1205.54 441.958C1206.95 447.656 1210.84 451.613 1214.76 453.594C1218.79 455.626 1223.56 456.531 1228.95 455.021C1234.45 453.483 1238.64 449.702 1240.93 445.791C1243.26 441.829 1244.3 437.21 1242.92 431.864C1241.32 425.616 1237.53 422.153 1233.7 420.228C1229.81 418.276 1225.13 417.272 1219.41 418.841Z" fill="#FFC539"/>
<path d="M1231.68 450.712C1226.29 452.222 1221.52 451.317 1217.49 449.285C1213.56 447.304 1209.68 443.348 1208.27 437.652C1207.04 432.703 1207.89 428.594 1209.53 425.138C1208.74 426.082 1208.07 427.059 1207.53 428.033C1205.44 431.773 1204.14 436.322 1205.54 441.959C1206.95 447.657 1210.83 451.614 1214.76 453.595C1218.79 455.627 1223.56 456.531 1228.95 455.022C1234.45 453.484 1238.64 449.703 1240.93 445.792C1241.26 445.226 1241.57 444.648 1241.84 444.056C1239.42 446.968 1235.95 449.517 1231.68 450.712Z" fill="#FAAE05"/>
<path fill-rule="evenodd" clip-rule="evenodd" d="M1203 417.748C1203.56 419.427 1204.67 420.44 1205.87 421.153C1207.3 422.014 1209.31 422.416 1211.25 422.483C1213.18 422.548 1215.62 422.534 1217.23 420.909C1215.98 416.352 1210.27 414.555 1205.98 415.621C1204.75 415.924 1203.08 416.541 1203 417.748Z" fill="#00AF93"/>
<path fill-rule="evenodd" clip-rule="evenodd" d="M1204.59 417.29C1204.84 418.557 1206.39 418.488 1207.34 418.751C1210.36 419.593 1213.83 420.57 1217 421.23C1218.01 423.396 1219.04 425.546 1221.5 424.631C1222.15 423.841 1221.55 422.275 1221.03 421.061C1220.39 419.586 1218.38 414.904 1217.09 415.002C1215.13 415.152 1215.98 417.759 1216.33 419.368C1215.9 419.581 1215.48 419.235 1215.07 419.119C1213.75 418.759 1212.37 418.394 1210.94 418.038C1209.15 417.592 1207.08 417.142 1205.25 417.17C1205.01 417.173 1204.94 417.152 1204.59 417.29Z" fill="#752C00"/>
<path fill-rule="evenodd" clip-rule="evenodd" d="M1226.08 421.457C1226.2 422.288 1226.88 422.673 1227.33 422.991C1227.74 423.282 1228.29 423.872 1229.01 423.44C1229.36 422.161 1227.05 419.932 1226.08 421.457Z" fill="#F7F7FC"/>
<path fill-rule="evenodd" clip-rule="evenodd" d="M1210.93 429.029C1211.1 429.084 1211.3 429.088 1211.45 429.191C1211.98 428.592 1213.22 427.897 1213.07 427.203C1212.75 425.622 1210.02 427.578 1210.93 429.029Z" fill="#F7F7FC"/>
<path fill-rule="evenodd" clip-rule="evenodd" d="M1210.93 431.952C1211.11 432 1211.24 432.153 1211.39 432.252C1212.18 431.965 1212.46 431.437 1212.08 430.602C1211.27 430.331 1210.86 431.287 1210.93 431.952Z" fill="#F7F7FC"/>
<path fill-rule="evenodd" clip-rule="evenodd" d="M1225.75 426.374C1226.1 427.397 1226.55 428.206 1227.49 427.963C1227.46 427.864 1227.59 427.837 1227.66 427.784C1227.68 426.721 1226.51 425.213 1225.75 426.374Z" fill="#F7F7FC"/>
<path fill-rule="evenodd" clip-rule="evenodd" d="M1209.3 432.302C1208.44 432.841 1208.45 433.797 1208.42 434.723C1208.6 434.834 1208.79 434.924 1208.99 434.988C1209.65 434.339 1210.15 433.218 1209.51 432.231C1209.44 432.254 1209.37 432.28 1209.3 432.302Z" fill="#F7F7FC"/>
<path fill-rule="evenodd" clip-rule="evenodd" d="M1229.74 426.097C1229.94 427.37 1230.74 429.201 1231.79 428.866C1233.46 428.334 1230.96 423.926 1229.74 426.097Z" fill="#F7F7FC"/>
<path fill-rule="evenodd" clip-rule="evenodd" d="M1236.76 429.998C1236.98 429.518 1236.49 428.214 1235.85 428.456C1235.09 428.809 1235.87 430.534 1236.76 429.998Z" fill="#F7F7FC"/>
<path fill-rule="evenodd" clip-rule="evenodd" d="M1228.49 433.33C1228.61 434.309 1229.13 435.805 1229.98 435.835C1231.84 435.288 1229.56 431.225 1228.49 433.33Z" fill="#F7F7FC"/>
<path fill-rule="evenodd" clip-rule="evenodd" d="M1235.21 436.401C1237.06 436.395 1236.15 434.395 1235.75 433.048C1233.72 431.576 1233.76 435.461 1235.21 436.401Z" fill="#F7F7FC"/>
<path fill-rule="evenodd" clip-rule="evenodd" d="M1209.38 444.196C1209.57 444.9 1209.86 445.377 1210.26 445.635C1210.46 445.561 1210.67 445.485 1210.88 445.41C1211.14 444.583 1209.97 443.185 1209.38 444.196Z" fill="#F7F7FC"/>
<path fill-rule="evenodd" clip-rule="evenodd" d="M1239.58 434.241C1238.97 435.022 1239.24 436.819 1239.86 437.641C1239.98 437.585 1240.06 437.599 1240.11 437.672C1241.37 437.099 1240.71 434.913 1239.88 434.13C1239.78 434.166 1239.68 434.206 1239.58 434.241Z" fill="#F7F7FC"/>
<path fill-rule="evenodd" clip-rule="evenodd" d="M1232.92 439.448C1232.82 440.101 1232.71 441.328 1233.43 441.834C1235.02 441.954 1234.7 437.993 1232.92 439.448Z" fill="#F7F7FC"/>
<path fill-rule="evenodd" clip-rule="evenodd" d="M1211.56 447.97C1212.37 449.049 1212.8 450.939 1214.47 450.194C1214.69 448.855 1213.16 447.188 1211.76 447.548C1211.76 447.716 1211.69 447.859 1211.56 447.97Z" fill="#F7F7FC"/>
<path fill-rule="evenodd" clip-rule="evenodd" d="M1214.57 447.232C1215.03 448.084 1215.47 448.968 1216.49 448.647C1216.72 447.746 1215.42 446.393 1214.57 447.232Z" fill="#F7F7FC"/>
<path fill-rule="evenodd" clip-rule="evenodd" d="M1237.82 443.64C1238.61 443.153 1238.69 442.336 1238.39 441.332C1237.13 440.616 1236.76 443.271 1237.82 443.64Z" fill="#F7F7FC"/>
<path fill-rule="evenodd" clip-rule="evenodd" d="M1218.07 451.113C1218.06 451.883 1218.74 452.414 1219.49 452.122C1219.77 451.404 1218.93 450.575 1218.07 451.113Z" fill="#F7F7FC"/>
<path fill-rule="evenodd" clip-rule="evenodd" d="M1234.4 448.731C1234.57 448.736 1234.71 448.802 1234.82 448.93C1235.91 448.297 1236.61 447.479 1236.14 446.116C1234.8 445.746 1234.19 447.559 1234.4 448.731Z" fill="#F7F7FC"/>
<path fill-rule="evenodd" clip-rule="evenodd" d="M1229.36 451.603C1229.46 451.569 1229.48 451.701 1229.53 451.775C1230.62 451.697 1231.58 450.589 1231.29 449.852C1230.75 448.453 1228.94 450.386 1229.36 451.603Z" fill="#F7F7FC"/>
<path fill-rule="evenodd" clip-rule="evenodd" d="M1413.45 110.727C1415.67 107.644 1417.16 104.28 1418.09 100.755C1418.24 100.175 1418.36 99.5858 1418.49 98.997C1418.62 98.4714 1418.67 97.7828 1419.12 97.3971C1419.6 97.3971 1419.95 97.87 1420.31 98.1777C1420.67 98.4833 1421.04 98.7862 1421.39 99.1494C1422.06 99.8528 1423.02 100.879 1423.29 101.942C1423.46 102.646 1422.43 104.332 1422.08 104.971C1420.52 107.81 1418.19 110.799 1415.93 113.145C1416.42 115.334 1416.49 117.311 1416.12 119.228C1415.76 121.123 1415.19 122.98 1414.05 124.611C1412.9 126.256 1411.77 127.972 1410.38 129.501C1408.95 131.091 1407.28 132.561 1405.42 133.95C1401.56 136.846 1396.44 138.975 1392.14 139.927C1387.92 140.854 1383.75 140.755 1380.03 140.284C1376.06 139.782 1372.43 138.784 1368.87 137.399C1365.39 136.044 1361.8 134.198 1358.6 131.797C1355.52 129.491 1352.16 126.222 1349.57 122.165C1346.45 117.274 1345.15 112.163 1346.59 108.283C1346.7 107.972 1346.92 107.661 1346.98 107.301C1347.11 106.513 1346.62 104.952 1347.1 104.213C1347.39 103.778 1348.81 102.736 1349.55 102.851C1350.24 102.958 1350.66 104.104 1351.23 104.702C1351.54 105.03 1352.55 105.353 1352.97 105.608C1354.63 106.604 1356.14 108.222 1357.68 109.86C1359.76 112.079 1361.8 114.134 1363.9 115.781C1368.3 119.216 1373.03 121.146 1378.08 121.848C1380.69 122.21 1383.49 122.251 1386.16 121.719C1389.01 121.156 1391.95 120.03 1395.21 118.483C1401.35 115.558 1407.78 110.507 1413.45 110.727Z" fill="#FFC539"/>
<path d="M1413.44 110.726C1407.77 110.516 1401.35 115.562 1395.21 118.483C1391.95 120.031 1389.01 121.156 1386.16 121.72C1383.49 122.252 1380.69 122.211 1378.08 121.849C1373.02 121.147 1368.3 119.217 1363.9 115.781C1361.8 114.135 1359.76 112.08 1357.68 109.861C1356.14 108.222 1354.63 106.604 1352.97 105.609C1352.55 105.354 1351.54 105.03 1351.23 104.703C1351.06 104.518 1350.9 104.286 1350.74 104.045C1350.23 104.085 1349.71 104.149 1349.32 104.025C1349.31 104.021 1349.28 104.056 1349.27 104.054C1349.31 104.114 1349.34 104.215 1349.41 104.191C1351.95 106.013 1353.78 108.763 1355.88 111.1C1358.04 113.511 1360.28 115.761 1362.5 117.645C1365.9 120.53 1369.76 122.273 1373.67 123.478C1377.65 124.703 1381.7 125.291 1386.18 124.803C1389.22 124.471 1392.42 123.412 1395.73 121.861C1399.08 120.285 1402 118.236 1404.85 116.121C1407.02 114.515 1409.51 113.067 1412.04 112.038C1412.64 111.794 1413.42 111.625 1413.89 111.104C1413.73 110.984 1413.58 110.859 1413.44 110.726Z" fill="#FAAE05"/>
<path d="M1415.75 112.994C1415.54 113.512 1415.51 114.19 1415.41 114.686C1414.42 119.35 1412.1 122.94 1408.12 126.554C1403.03 131.174 1395.9 133.808 1389.86 134.945C1377.98 137.187 1366.93 135.396 1357.97 128.479C1355.21 126.347 1352.03 123.476 1349.63 118.83C1347.76 115.194 1346.74 111.287 1347.08 108.162C1347.1 108.034 1347.27 107.279 1347 107.073C1347 107.154 1346.99 107.234 1346.98 107.302C1346.92 107.663 1346.7 107.974 1346.59 108.284C1345.15 112.165 1346.45 117.275 1349.57 122.167C1352.16 126.224 1355.52 129.491 1358.6 131.799C1361.8 134.2 1365.39 136.046 1368.87 137.4C1372.43 138.785 1376.06 139.783 1380.03 140.285C1383.75 140.757 1387.92 140.856 1392.14 139.928C1396.44 138.976 1401.56 136.847 1405.42 133.952C1407.28 132.563 1408.95 131.092 1410.38 129.503C1411.77 127.974 1412.9 126.257 1414.05 124.612C1415.19 122.981 1415.76 121.125 1416.12 119.23C1416.48 117.368 1416.42 115.447 1415.97 113.332C1415.89 113.219 1415.82 113.107 1415.75 112.994Z" fill="#FAAE05"/>
<path fill-rule="evenodd" clip-rule="evenodd" d="M1349.63 102.406C1350.34 103.487 1351.15 104.253 1351.92 105.131C1349.88 105.85 1347.81 107.238 1346.52 108.479C1346.43 107.042 1346.57 105.675 1346.71 104.307C1347.59 103.645 1348.53 102.998 1349.63 102.406Z" fill="#752C00"/>
<path fill-rule="evenodd" clip-rule="evenodd" d="M1418.88 97.7364C1419.25 96.8371 1420.24 97.3992 1420.86 97.8868C1421.77 98.6006 1422.38 99.3862 1423.18 100.669C1423.54 101.255 1423.91 101.942 1423.51 102.245C1422.9 102.705 1421.58 101.313 1421.06 100.801C1420.06 99.8092 1419.22 98.8915 1418.88 97.7364Z" fill="#FAAE05"/>
<path fill-rule="evenodd" clip-rule="evenodd" d="M1351.12 108.487C1351.23 108.395 1351.65 108.147 1351.98 108.244C1352.72 108.463 1352.97 109.761 1353.31 110.493C1354.56 113.19 1356.61 115.236 1358.26 116.801C1360.23 118.672 1361.69 119.651 1363.86 121.008C1364.39 121.341 1365.45 121.797 1365.64 122.522C1365.7 122.755 1365.67 123.161 1365.27 123.419C1364.74 123.771 1363.55 123.273 1362.85 122.947C1361.98 122.55 1361.15 122.06 1360.65 121.72C1357.71 119.741 1355.27 117.683 1352.8 114.059C1351.88 112.709 1349.9 109.503 1351.12 108.487Z" fill="#752C00"/>
<path fill-rule="evenodd" clip-rule="evenodd" d="M1353.63 119.738C1354.18 118.904 1354.82 119.687 1355.48 120.448C1356.18 121.255 1357.02 121.98 1356.78 122.78C1356.07 123.71 1354.79 122.477 1354.05 121.343C1353.68 120.759 1353.4 120.136 1353.63 119.738Z" fill="#752C00"/>
<path fill-rule="evenodd" clip-rule="evenodd" d="M1367.1 125.407C1367.83 124.745 1368.71 125.282 1369.52 125.742C1370.12 126.076 1371.26 126.698 1371.01 127.486C1370.92 127.756 1370.55 127.977 1370.27 128.085C1369.52 128.375 1367.33 127.569 1366.87 126.441C1366.71 126.056 1366.76 125.718 1367.1 125.407Z" fill="#752C00"/>
<path fill-rule="evenodd" clip-rule="evenodd" d="M1371.73 125.133C1371.97 123.833 1374.8 125.281 1373.84 126.06C1373.25 126.539 1372.03 125.832 1371.73 125.133Z" fill="#752C00"/>
<path fill-rule="evenodd" clip-rule="evenodd" d="M1375.03 128.588C1374.48 128.92 1373.3 128.695 1373.05 128.161C1372.48 126.926 1375.4 127.508 1375.03 128.588Z" fill="#752C00"/>
<path fill-rule="evenodd" clip-rule="evenodd" d="M1376.34 126.14C1376.76 125.846 1377.62 126.155 1378.26 126.319C1379.4 126.611 1380.43 126.736 1381.83 126.821C1382.57 126.864 1383.26 126.873 1383.43 127.589C1383.65 128.525 1382.04 128.64 1381.32 128.639C1380.1 128.634 1378.83 128.436 1377.64 128.056C1377.05 127.872 1376.24 127.681 1376 127.095C1375.85 126.721 1376.02 126.365 1376.34 126.14Z" fill="#752C00"/>
<path fill-rule="evenodd" clip-rule="evenodd" d="M1389.44 125.396C1390 124.956 1390.94 124.953 1391.6 124.819C1394.71 124.187 1398.74 122.586 1402.42 120.429C1403.03 120.075 1403.88 119.573 1404.56 119.159C1405.18 118.776 1405.92 118.349 1406.34 119.199C1406.73 119.992 1405.31 120.876 1404.39 121.496C1401.32 123.572 1398.61 124.723 1394.99 126.046C1394.01 126.405 1393.1 126.718 1392.01 126.921C1391.16 127.079 1389.78 127.44 1389.34 126.925C1388.84 126.339 1389.01 125.733 1389.44 125.396Z" fill="#752C00"/>
<path fill-rule="evenodd" clip-rule="evenodd" d="M1385.3 127.798C1385.76 127.351 1387.44 127.322 1387.78 127.963C1388.49 129.303 1385.6 129.539 1385.13 128.665C1384.98 128.398 1385.03 128.064 1385.3 127.798Z" fill="#752C00"/>
<path fill-rule="evenodd" clip-rule="evenodd" d="M1412.63 113.69C1413.19 113.309 1413.56 113.202 1413.85 113.609C1414.49 114.496 1412.41 116.34 1411.78 115.406C1411.34 114.76 1412.11 114.044 1412.63 113.69Z" fill="#752C00"/>
<path fill-rule="evenodd" clip-rule="evenodd" d="M1386.14 130.587C1386.82 129.993 1389.93 129.47 1390.45 130.35C1391.17 131.588 1388.9 132.143 1387.82 132.159C1387.13 132.17 1386.16 132.146 1385.86 131.507C1385.67 131.114 1385.79 130.888 1386.14 130.587Z" fill="#752C00"/>
<path fill-rule="evenodd" clip-rule="evenodd" d="M1412.55 117.253C1412.91 116.983 1413.56 116.547 1413.99 117.051C1414.81 118.043 1412.91 120.396 1412.05 120.958C1411.32 121.437 1410.53 121.54 1410.18 120.891C1409.86 120.293 1410.53 119.33 1410.89 118.901C1411.27 118.445 1411.82 117.784 1412.55 117.253Z" fill="#752C00"/>
<path fill-rule="evenodd" clip-rule="evenodd" d="M1395.3 128.903C1394.95 130.033 1392.76 130.363 1392.26 129.528C1391.54 128.311 1394.46 127.963 1394.93 128.329C1395.09 128.452 1395.19 128.695 1395.3 128.903Z" fill="#752C00"/>
<path fill-rule="evenodd" clip-rule="evenodd" d="M1426.64 110.172C1424.83 106.837 1422.45 104.026 1419.68 101.657C1419.22 101.269 1418.74 100.908 1418.27 100.527C1417.85 100.189 1417.25 99.8437 1417.11 99.2661C1417.31 98.8368 1417.89 98.73 1418.32 98.5382C1418.76 98.3436 1419.19 98.1455 1419.67 97.9902C1420.59 97.6937 1421.93 97.27 1423.01 97.4962C1423.72 97.6452 1424.79 99.3104 1425.21 99.902C1427.09 102.538 1428.76 105.942 1429.89 108.998C1432.08 109.506 1433.89 110.309 1435.45 111.471C1437 112.619 1438.43 113.947 1439.4 115.679C1440.38 117.43 1441.43 119.2 1442.2 121.111C1443.01 123.093 1443.61 125.236 1444.05 127.512C1444.98 132.254 1444.66 137.785 1443.65 142.073C1442.65 146.272 1440.74 149.986 1438.7 153.131C1436.52 156.488 1434.04 159.321 1431.25 161.916C1428.51 164.459 1425.28 166.892 1421.73 168.727C1418.31 170.494 1413.91 172.101 1409.13 172.664C1403.36 173.344 1398.2 172.296 1395.33 169.307C1395.1 169.072 1394.92 168.739 1394.62 168.526C1393.97 168.061 1392.35 167.825 1391.89 167.07C1391.62 166.627 1391.3 164.896 1391.73 164.277C1392.13 163.7 1393.35 163.819 1394.13 163.57C1394.56 163.436 1395.29 162.666 1395.7 162.395C1397.33 161.332 1399.44 160.675 1401.58 160.006C1404.48 159.102 1407.22 158.156 1409.62 156.98C1414.62 154.521 1418.42 151.104 1421.25 146.859C1422.72 144.668 1423.97 142.169 1424.66 139.525C1425.38 136.722 1425.66 133.58 1425.68 129.976C1425.72 123.169 1423.97 115.186 1426.64 110.172Z" fill="#FFC539"/>
<path d="M1426.63 110.185C1423.97 115.202 1425.72 123.176 1425.68 129.976C1425.65 133.579 1425.38 136.721 1424.65 139.525C1423.97 142.169 1422.72 144.668 1421.25 146.859C1418.42 151.104 1414.62 154.521 1409.62 156.979C1407.22 158.156 1404.48 159.102 1401.58 160.006C1399.44 160.675 1397.32 161.331 1395.7 162.395C1395.29 162.666 1394.56 163.436 1394.13 163.57C1393.89 163.644 1393.61 163.689 1393.32 163.727C1393.14 164.198 1392.97 164.696 1392.69 164.992C1392.68 165 1392.7 165.039 1392.69 165.051C1392.76 165.041 1392.87 165.055 1392.87 164.984C1395.62 163.489 1398.89 163.04 1401.91 162.17C1405.02 161.272 1408.02 160.231 1410.69 159.051C1414.76 157.256 1418.02 154.534 1420.8 151.538C1423.63 148.49 1425.93 145.097 1427.44 140.854C1428.46 137.972 1428.9 134.631 1428.95 130.979C1428.99 127.271 1428.41 123.757 1427.75 120.266C1427.25 117.616 1427.03 114.749 1427.21 112.018C1427.24 111.37 1427.43 110.593 1427.17 109.945C1426.99 110.032 1426.81 110.114 1426.63 110.185Z" fill="#FAAE05"/>
<path d="M1429.68 109.095C1430.05 109.511 1430.65 109.827 1431.05 110.137C1434.83 113.057 1437.05 116.707 1438.56 121.864C1440.51 128.462 1439.78 136.02 1438.17 141.957C1435.02 153.624 1428.59 162.797 1418.47 167.851C1415.35 169.407 1411.38 171.021 1406.15 171.156C1402.06 171.262 1398.1 170.475 1395.44 168.809C1395.33 168.741 1394.73 168.254 1394.42 168.408C1394.49 168.446 1394.56 168.486 1394.62 168.526C1394.92 168.739 1395.1 169.072 1395.33 169.307C1398.2 172.296 1403.36 173.344 1409.13 172.663C1413.9 172.101 1418.31 170.493 1421.73 168.727C1425.28 166.892 1428.51 164.459 1431.25 161.916C1434.04 159.321 1436.52 156.487 1438.7 153.131C1440.74 149.986 1442.65 146.271 1443.65 142.073C1444.66 137.785 1444.98 132.253 1444.05 127.512C1443.61 125.236 1443.01 123.093 1442.2 121.111C1441.43 119.2 1440.38 117.43 1439.4 115.679C1438.43 113.947 1437 112.619 1435.45 111.471C1433.93 110.339 1432.18 109.554 1430.07 109.046C1429.94 109.063 1429.81 109.079 1429.68 109.095Z" fill="#FAAE05"/>
<path fill-rule="evenodd" clip-rule="evenodd" d="M1391.37 164.001C1392.65 163.833 1393.69 163.441 1394.82 163.13C1394.57 165.279 1394.92 167.749 1395.48 169.447C1394.15 168.9 1392.98 168.18 1391.8 167.468C1391.6 166.38 1391.42 165.256 1391.37 164.001Z" fill="#752C00"/>
<path fill-rule="evenodd" clip-rule="evenodd" d="M1417.3 99.6301C1416.66 98.9071 1417.59 98.2578 1418.3 97.9171C1419.34 97.4077 1420.32 97.1983 1421.81 97.0437C1422.5 96.9699 1423.28 96.932 1423.38 97.4217C1423.53 98.1735 1421.7 98.7546 1421.01 98.9991C1419.69 99.4684 1418.49 99.8254 1417.3 99.6301Z" fill="#752C00"/>
<path fill-rule="evenodd" clip-rule="evenodd" d="M1397.49 165.315C1397.45 165.176 1397.41 164.691 1397.64 164.438C1398.16 163.865 1399.44 164.207 1400.24 164.219C1403.22 164.263 1405.95 163.314 1408.08 162.508C1410.62 161.544 1412.14 160.656 1414.3 159.296C1414.84 158.96 1415.71 158.206 1416.44 158.349C1416.68 158.395 1417.03 158.607 1417.09 159.072C1417.17 159.706 1416.21 160.559 1415.61 161.053C1414.88 161.661 1414.08 162.189 1413.55 162.494C1410.49 164.275 1407.58 165.578 1403.24 166.225C1401.62 166.464 1397.87 166.857 1397.49 165.315Z" fill="#752C00"/>
<path fill-rule="evenodd" clip-rule="evenodd" d="M1408.71 167.954C1408.2 167.092 1409.18 166.858 1410.15 166.598C1411.18 166.322 1412.2 165.873 1412.82 166.437C1413.35 167.484 1411.68 168.104 1410.34 168.269C1409.65 168.353 1408.97 168.332 1408.71 167.954Z" fill="#752C00"/>
<path fill-rule="evenodd" clip-rule="evenodd" d="M1419.67 158.294C1419.4 157.348 1420.26 156.79 1421.03 156.256C1421.59 155.867 1422.65 155.111 1423.25 155.68C1423.45 155.873 1423.49 156.306 1423.47 156.602C1423.4 157.409 1421.73 159.021 1420.51 158.95C1420.09 158.923 1419.81 158.739 1419.67 158.294Z" fill="#752C00"/>
<path fill-rule="evenodd" clip-rule="evenodd" d="M1421.45 154.001C1420.38 153.222 1422.92 151.302 1423.2 152.509C1423.37 153.252 1422.2 154.043 1421.45 154.001Z" fill="#752C00"/>
<path fill-rule="evenodd" clip-rule="evenodd" d="M1426 152.531C1426.05 153.18 1425.34 154.141 1424.75 154.133C1423.38 154.111 1425.18 151.731 1426 152.531Z" fill="#752C00"/>
<path fill-rule="evenodd" clip-rule="evenodd" d="M1424.36 150.291C1424.28 149.788 1424.93 149.144 1425.36 148.639C1426.12 147.744 1426.68 146.867 1427.36 145.645C1427.72 145.003 1428.03 144.378 1428.75 144.538C1429.69 144.747 1429.09 146.248 1428.78 146.9C1428.24 147.992 1427.51 149.05 1426.65 149.96C1426.23 150.404 1425.7 151.055 1425.07 151.011C1424.67 150.985 1424.42 150.679 1424.36 150.291Z" fill="#752C00"/>
<path fill-rule="evenodd" clip-rule="evenodd" d="M1429.39 138.174C1429.24 137.475 1429.65 136.634 1429.81 135.983C1430.6 132.908 1430.91 128.58 1430.57 124.327C1430.52 123.63 1430.43 122.646 1430.36 121.852C1430.29 121.121 1430.22 120.273 1431.17 120.267C1432.05 120.26 1432.23 121.919 1432.39 123.021C1432.92 126.691 1432.78 129.626 1432.39 133.464C1432.29 134.5 1432.18 135.451 1431.88 136.53C1431.65 137.363 1431.38 138.764 1430.72 138.933C1429.98 139.124 1429.51 138.709 1429.39 138.174Z" fill="#752C00"/>
<path fill-rule="evenodd" clip-rule="evenodd" d="M1429.75 142.947C1429.55 142.341 1430.25 140.816 1430.98 140.788C1432.5 140.73 1431.45 143.436 1430.46 143.481C1430.16 143.492 1429.87 143.311 1429.75 142.947Z" fill="#752C00"/>
<path fill-rule="evenodd" clip-rule="evenodd" d="M1428.95 112.2C1428.85 111.53 1428.91 111.152 1429.41 111.065C1430.48 110.883 1431.24 113.55 1430.12 113.715C1429.35 113.827 1429.04 112.819 1428.95 112.2Z" fill="#752C00"/>
<path fill-rule="evenodd" clip-rule="evenodd" d="M1432.63 143.401C1432.39 142.532 1433.28 139.504 1434.29 139.425C1435.72 139.314 1435.23 141.593 1434.77 142.576C1434.49 143.203 1434.04 144.067 1433.33 144.059C1432.9 144.057 1432.75 143.849 1432.63 143.401Z" fill="#752C00"/>
<path fill-rule="evenodd" clip-rule="evenodd" d="M1432.12 113.827C1432.04 113.381 1431.93 112.605 1432.57 112.445C1433.82 112.133 1435.11 114.873 1435.24 115.892C1435.35 116.755 1435.1 117.508 1434.37 117.539C1433.69 117.569 1433.11 116.548 1432.88 116.039C1432.64 115.497 1432.28 114.715 1432.12 113.827Z" fill="#752C00"/>
<path fill-rule="evenodd" clip-rule="evenodd" d="M1435.1 134.424C1435.97 135.235 1435.31 137.35 1434.34 137.434C1432.93 137.556 1433.89 134.774 1434.42 134.511C1434.6 134.418 1434.86 134.43 1435.1 134.424Z" fill="#752C00"/>
<path fill-rule="evenodd" clip-rule="evenodd" d="M1449.25 253.052C1449.05 253.55 1449.41 254.056 1449.6 254.477C1450.19 255.788 1450.91 257.12 1451.3 258.649C1450.89 258.655 1450.58 257.787 1449.91 257.935C1448.54 258.236 1450.46 261.121 1450.93 261.472C1449.7 261.114 1448.14 260.234 1446.58 260.133C1445.94 260.092 1445.26 260.191 1445.14 260.64C1444.79 261.917 1448.26 262.902 1449.55 263.125C1451.14 263.404 1452.82 263.581 1453.88 263.076C1454.15 262.947 1454.36 262.633 1454.68 262.419C1456.02 261.5 1457.46 260.577 1458.37 259.037C1458.68 258.51 1459.16 257.681 1458.65 257.027C1458.01 256.902 1457.44 257.292 1457.04 257.598C1456.16 258.281 1455.4 259.269 1454.74 260.221C1454.74 258.579 1455.21 255.77 1453.81 255.638C1452.7 255.533 1452.46 257.461 1452.34 258.917C1451.61 256.793 1450.99 254.579 1449.59 253.003C1449.44 252.98 1449.41 253.088 1449.25 253.052Z" fill="#00AF93"/>
<path fill-rule="evenodd" clip-rule="evenodd" d="M1453.61 262.475C1452.81 261.509 1451.05 261.88 1450.41 262.639C1448.9 261.767 1447.23 262.633 1447.06 264.263C1445.73 264.433 1444.25 265.364 1444.4 267.097C1444.44 267.493 1444.73 267.827 1444.95 268.21C1442.94 268.37 1441.77 271.136 1443.1 272.761C1443.68 273.467 1444.84 273.925 1446.04 273.55C1445.13 275.834 1448.06 277.521 1449.62 276.036C1449.72 280.117 1456.7 280.336 1456.62 275.517C1458.92 276.224 1460.57 273.28 1459.14 271.528C1460.27 271.335 1461.45 270.597 1461.72 269.417C1462.16 267.574 1460.86 265.818 1458.94 265.464C1459.04 264.985 1459.25 264.769 1459.3 264.356C1459.6 261.398 1455.22 260.249 1453.61 262.475Z" fill="#E61818"/>
<path fill-rule="evenodd" clip-rule="evenodd" d="M1455.71 263.505C1454.99 263.235 1454.43 263.431 1454.26 264.174C1454.04 265.088 1455 266.623 1455.62 266.844C1456.9 267.297 1457.22 265.993 1456.72 264.831C1456.45 264.196 1456.25 263.704 1455.71 263.505Z" fill="white"/>
<path fill-rule="evenodd" clip-rule="evenodd" d="M1457.6 268.187C1457.04 269.127 1457.85 270.557 1458.8 270.102C1459.8 269.629 1458.91 267.038 1457.6 268.187Z" fill="white"/>
<path fill-rule="evenodd" clip-rule="evenodd" d="M1456.28 271.645C1454.75 271.321 1454.9 274.029 1455.94 274.223C1457.29 274.48 1457.71 271.949 1456.28 271.645Z" fill="white"/>
<path fill-rule="evenodd" clip-rule="evenodd" d="M1431.22 273.687C1429.44 273.954 1426.6 274.681 1425.64 275.644C1425.32 275.966 1424.71 276.799 1425.16 277.646C1425.54 278.382 1427.19 278.382 1428.09 278.229C1428.77 278.119 1429.36 277.961 1430.1 277.734C1433.07 276.822 1436.54 274.79 1438.49 272.623C1439.83 271.137 1441.17 269.095 1441.55 266.789C1441.61 266.4 1441.88 264.776 1440.95 264.727C1440.01 264.675 1439 266.412 1438.69 266.842C1438.03 267.768 1437.62 268.473 1437.09 269.288C1437.02 267.671 1436.52 263.002 1434.54 263.286C1433.36 263.453 1432.97 265.183 1432.92 266.31C1432.83 267.792 1433.24 269.109 1433.39 270.534C1431.73 268.807 1430.07 266.46 1428.68 264.081C1428.27 263.387 1427.99 262.218 1426.99 262.207C1426.69 263.048 1427.38 263.866 1427.73 264.563C1428.83 266.754 1430.41 269.033 1431.72 270.782C1431.76 270.839 1431.83 270.835 1431.84 270.915C1430.68 270.658 1428.57 270.055 1427.18 270.598C1425.16 271.376 1427.67 272.731 1428.52 273.047C1429.53 273.417 1430.29 273.52 1431.22 273.687Z" fill="#00AF93"/>
<path fill-rule="evenodd" clip-rule="evenodd" d="M1442.53 269.414C1442.4 269.427 1441.53 269.548 1441.12 269.68C1437.2 270.93 1433.75 273.85 1431.85 276.56C1430.77 278.11 1429.74 280.62 1430.93 283.422C1431.79 285.456 1433.73 287.227 1435.39 288.215C1436.57 288.916 1438.14 289.417 1439.59 289.958C1441.03 290.496 1442.42 291.007 1443.79 291.703C1445.03 292.336 1446.25 293.19 1447.64 294.025C1448.87 294.769 1450.73 295.643 1452.07 295.057C1452.83 294.727 1453.43 293.866 1453.64 293.113C1454.15 291.267 1452.47 286.369 1452.1 283.915C1451.54 280.257 1451.44 276.111 1450.11 273.595C1449.22 271.903 1447.64 270.422 1446.08 269.847C1445.15 269.508 1443.77 269.269 1442.53 269.414Z" fill="#FF4E4E"/>
<path fill-rule="evenodd" clip-rule="evenodd" d="M1444.81 273.353C1442.25 273.314 1444.59 279.157 1446.24 278.812C1448.06 278.43 1446.58 274.481 1445.62 273.642C1445.45 273.496 1445.09 273.356 1444.81 273.353Z" fill="#F7F7FC"/>
<path fill-rule="evenodd" clip-rule="evenodd" d="M1437.02 276.262C1435.13 276.434 1437.38 278.857 1437.9 279.485C1438.53 280.264 1439.23 281.309 1440.25 280.704C1441.27 280.096 1439.89 278.487 1439.17 277.697C1438.53 276.989 1437.79 276.196 1437.02 276.262Z" fill="#F7F7FC"/>
<path fill-rule="evenodd" clip-rule="evenodd" d="M1435.8 282.953C1435.44 282.999 1434.73 283.123 1434.82 283.933C1434.94 284.911 1436.29 285.368 1436.92 285.787C1437.42 286.124 1439.15 287.572 1439.79 286.469C1440.46 285.302 1438 283.506 1437.25 283.17C1436.86 282.99 1436.38 282.875 1435.8 282.953Z" fill="#F7F7FC"/>
<path fill-rule="evenodd" clip-rule="evenodd" d="M1443.29 282.736C1443.57 284.231 1445.1 286.84 1446.4 286.386C1447.91 285.868 1446.13 283.807 1445.48 283.012C1445.09 282.527 1444.82 281.897 1444.23 281.93C1443.62 281.963 1443.52 282.261 1443.29 282.736Z" fill="#F7F7FC"/>
<path fill-rule="evenodd" clip-rule="evenodd" d="M1445.82 288.66C1445.5 288.681 1444.8 288.847 1444.91 289.623C1445 290.24 1445.86 290.741 1446.36 291.152C1446.95 291.643 1447.58 292.184 1448.26 291.905C1448.91 291.64 1448.91 290.82 1448.4 290.154C1447.97 289.587 1446.39 288.628 1445.82 288.66Z" fill="#F7F7FC"/>
<path d="M1450.75 294.081C1450.15 293.579 1448.83 292.723 1449.61 291.759C1450.88 291.27 1451.6 292.336 1452.28 292.399C1451.96 291.125 1451.48 289.451 1452.4 289.117C1452.67 289.016 1453.03 289.157 1453.34 289.4C1453.67 290.917 1453.86 292.305 1453.64 293.113C1453.43 293.866 1452.82 294.728 1452.07 295.057C1451 295.527 1449.59 295.057 1448.44 294.469C1448.75 293.749 1450.19 293.977 1450.75 294.081Z" fill="#E61818"/>
<path fill-rule="evenodd" clip-rule="evenodd" d="M1160.47 117.653C1161.04 118.311 1160.81 119.191 1160.63 119.942C1160.45 120.663 1160.2 121.379 1159.9 122.052C1159.31 123.425 1158.54 124.933 1157.2 125.826C1155.56 126.919 1153.71 126.437 1152.18 126.056C1151.6 125.912 1150.92 125.707 1150.35 125.422C1149.8 125.145 1149.03 124.795 1149.01 124.063C1149.98 123.483 1151.03 123.894 1151.9 124.147C1152.82 124.414 1153.74 124.703 1154.58 125.048C1153.39 123.921 1151.34 122.427 1150.66 120.368C1150.52 119.97 1150.52 119.291 1150.79 119.11C1151.52 118.637 1153.04 120.107 1153.54 120.608C1154.43 121.489 1155.16 122.47 1155.85 123.523C1155.62 122.387 1155.46 121.078 1155.48 119.92C1155.5 118.89 1155.47 116.817 1156.82 117.013C1158.41 117.25 1157.77 120.184 1157.69 121.302C1157.71 121.356 1157.67 121.392 1157.7 121.456C1157.99 120.829 1158.13 119.949 1158.51 119.214C1158.85 118.557 1159.43 117.617 1160.47 117.653Z" fill="#00AF93"/>
<path fill-rule="evenodd" clip-rule="evenodd" d="M1161.05 121.218C1163.7 119.416 1166.6 120.573 1168.21 123.594C1169.16 125.364 1169.52 126.963 1169.92 128.712C1170.62 131.799 1170.78 134.05 1169.97 136.59C1169.54 137.95 1169.03 139.209 1167.39 139.829C1166.85 140.029 1166.3 139.995 1165.72 139.978C1165.24 139.963 1164.56 139.828 1164.09 140.034C1163.48 140.305 1163.14 141.01 1162.76 141.435C1162.36 141.903 1161.87 142.402 1161.31 142.744C1159.22 144.005 1156.86 143.512 1155.38 142.737C1153.19 141.589 1151.23 139.355 1149.7 136.513C1147.72 132.828 1146.69 128.209 1151.09 126.702C1152.49 126.221 1153.91 126.274 1155.35 126.074C1155.83 126.008 1156.39 126.008 1156.73 125.833C1157.09 125.647 1157.54 125.084 1157.87 124.69C1158.8 123.573 1159.62 122.195 1161.05 121.218Z" fill="#FF4E4E"/>
<path fill-rule="evenodd" clip-rule="evenodd" d="M1150.87 128.87C1152.43 127.661 1155.06 132.97 1152.44 132.798C1151.75 132.755 1150.48 130.723 1150.44 129.719C1150.43 129.366 1150.66 129.038 1150.87 128.87Z" fill="#F7F7FC"/>
<path fill-rule="evenodd" clip-rule="evenodd" d="M1164.14 123.81C1165.28 122.712 1165.88 125.993 1165.33 126.428C1163.92 127.547 1163.67 124.251 1164.14 123.81Z" fill="#F7F7FC"/>
<path fill-rule="evenodd" clip-rule="evenodd" d="M1157.88 127.291C1158.26 126.784 1159.67 128.582 1159.82 129.366C1159.9 129.735 1159.61 130.174 1159.49 130.249C1158.27 131.024 1157.39 127.958 1157.88 127.291Z" fill="#F7F7FC"/>
<path fill-rule="evenodd" clip-rule="evenodd" d="M1162.6 128.319C1163.4 127.647 1163.88 128.825 1164.16 129.803C1164.38 130.571 1164.66 131.596 1163.91 131.909C1162.45 132.517 1161.89 128.915 1162.6 128.319Z" fill="#F7F7FC"/>
<path fill-rule="evenodd" clip-rule="evenodd" d="M1157.2 132.071C1158.56 130.7 1160.73 134.574 1159.54 135.363C1158.25 136.217 1156.24 133.033 1157.2 132.071Z" fill="#F7F7FC"/>
<path fill-rule="evenodd" clip-rule="evenodd" d="M1153.35 134.857C1153.76 134.462 1154.27 134.862 1154.83 135.432C1155.57 136.18 1156.71 137.481 1155.37 137.997C1155.14 138.087 1154.7 138.059 1154.43 137.856C1153.72 137.335 1152.82 135.366 1153.35 134.857Z" fill="#F7F7FC"/>
<path fill-rule="evenodd" clip-rule="evenodd" d="M1167.08 129.947C1167.73 129.391 1168.26 129.988 1168.41 130.841C1168.53 131.526 1168.72 132.822 1168.04 133.166C1166.6 133.886 1166.54 130.626 1166.9 130.046C1166.92 129.997 1167.04 129.983 1167.08 129.947Z" fill="#F7F7FC"/>
<path d="M1169.41 134.055C1167.75 134.533 1166.96 136.431 1166.78 137.317C1166.03 135.987 1164.97 135.148 1163.84 135.646C1162.21 136.375 1161.99 138.539 1161.98 139.895C1161.14 139.224 1160.54 138.523 1159.66 138.246C1157.15 137.449 1154.95 140.238 1155 142.524C1155.12 142.599 1155.25 142.67 1155.38 142.737C1156.86 143.513 1159.22 144.006 1161.31 142.744C1161.87 142.403 1162.36 141.903 1162.76 141.435C1163.14 141.01 1163.48 140.305 1164.09 140.034C1164.56 139.829 1165.24 139.964 1165.72 139.978C1166.3 139.996 1166.85 140.03 1167.39 139.829C1169.03 139.21 1169.54 137.95 1169.97 136.59C1170.24 135.749 1170.4 134.943 1170.47 134.126C1170.12 134 1169.77 133.95 1169.41 134.055Z" fill="#E61818"/>
<path fill-rule="evenodd" clip-rule="evenodd" d="M557.928 179.167C557.614 179.838 556.864 180.086 556.292 180.57C555.726 181.051 555.191 181.636 554.641 182.285C555.054 182.424 555.71 181.763 556.218 182.231C556.8 182.76 555.802 183.58 555.262 183.865C556.063 184.168 558.159 183.658 558.582 184.996C557.927 185.773 556.673 185.766 555.583 185.678C553.439 185.503 550.803 184.197 548.976 182.387C548.238 181.659 547.485 180.882 547.422 180.175C547.335 179.273 548.32 179.254 549.184 179.665C550.595 180.336 551.482 181.625 552.078 182.493C552.267 182.301 552.08 182.01 552.035 181.737C551.996 181.508 551.983 181.22 551.93 180.942C551.849 180.547 551.319 178.875 552.331 179.146C553.366 179.426 553.207 181.671 553.484 182.18C554.741 180.447 556.186 179.45 557.779 179C557.888 179.04 557.852 179.117 557.928 179.167Z" fill="#00BCB9"/>
<path fill-rule="evenodd" clip-rule="evenodd" d="M553.87 185.409C555.163 185.21 556.437 186.579 555.634 187.82C558.376 189.11 556.395 193.102 553.783 192.102C553.672 192.43 553.906 192.974 553.759 193.387C553.235 194.877 551.463 195.059 550.372 193.764C549.447 196.152 545.461 195.243 545.663 192.64C543.641 193.065 542.134 190.503 543.899 188.844C542.071 187.656 543.233 184.177 545.568 184.458C545.207 181.619 549.258 180.589 550.308 183.164C551.051 183.032 551.864 182.998 552.67 183.569C553.346 184.051 553.688 184.83 553.87 185.409Z" fill="#E61818"/>
<path fill-rule="evenodd" clip-rule="evenodd" d="M549.217 183.501C549.59 183.665 549.909 184.036 549.78 184.483C549.575 185.203 549.025 185.281 548.745 185.421C548.334 185.624 547.913 185.841 547.591 185.725C545.987 185.132 547.802 183.594 548.373 183.415C548.605 183.342 548.866 183.347 549.217 183.501Z" fill="white"/>
<path fill-rule="evenodd" clip-rule="evenodd" d="M548.387 187.567C548.124 186.889 549.606 185.899 550.215 186.52C550.837 187.16 549.162 188.639 548.387 187.567Z" fill="white"/>
<path fill-rule="evenodd" clip-rule="evenodd" d="M545.545 186.314C546.751 186.498 545.661 188.41 544.866 188.028C544.001 187.616 544.837 186.205 545.545 186.314Z" fill="white"/>
<path fill-rule="evenodd" clip-rule="evenodd" d="M546.754 188.969C546.903 189.024 547.12 189.158 547.201 189.313C547.52 189.903 546.698 191.737 545.808 191.422C544.439 190.94 545.58 188.54 546.754 188.969Z" fill="white"/>
<path fill-rule="evenodd" clip-rule="evenodd" d="M1373.93 421.168C1373.61 421.837 1372.86 422.087 1372.29 422.57C1371.72 423.051 1371.19 423.636 1370.64 424.288C1371.05 424.426 1371.71 423.765 1372.22 424.231C1372.8 424.765 1371.8 425.581 1371.26 425.867C1372.06 426.173 1374.16 425.66 1374.58 426.997C1373.93 427.773 1372.67 427.77 1371.58 427.681C1369.44 427.507 1366.8 426.199 1364.97 424.387C1364.24 423.659 1363.49 422.884 1363.42 422.179C1363.33 421.275 1364.32 421.256 1365.18 421.665C1366.6 422.337 1367.48 423.626 1368.08 424.495C1368.27 424.302 1368.08 424.013 1368.04 423.737C1368 423.51 1367.98 423.222 1367.93 422.943C1367.85 422.549 1367.32 420.876 1368.33 421.149C1369.36 421.425 1369.21 423.671 1369.48 424.179C1370.74 422.449 1372.19 421.452 1373.78 421C1373.89 421.041 1373.85 421.118 1373.93 421.168Z" fill="#00BCB9"/>
<path fill-rule="evenodd" clip-rule="evenodd" d="M1369.87 427.409C1371.16 427.212 1372.44 428.581 1371.63 429.821C1374.37 431.112 1372.39 435.103 1369.78 434.103C1369.67 434.43 1369.91 434.974 1369.76 435.389C1369.23 436.879 1367.46 437.063 1366.37 435.766C1365.45 438.152 1361.46 437.242 1361.66 434.644C1359.64 435.067 1358.13 432.505 1359.9 430.846C1358.07 429.658 1359.23 426.178 1361.57 426.46C1361.21 423.621 1365.26 422.59 1366.31 425.166C1367.05 425.034 1367.87 424.999 1368.67 425.571C1369.35 426.053 1369.69 426.832 1369.87 427.409Z" fill="#E61818"/>
<path fill-rule="evenodd" clip-rule="evenodd" d="M1365.21 425.502C1365.59 425.667 1365.91 426.037 1365.78 426.483C1365.57 427.206 1365.02 427.282 1364.74 427.422C1364.34 427.626 1363.91 427.841 1363.59 427.725C1361.99 427.134 1363.8 425.597 1364.37 425.417C1364.6 425.344 1364.87 425.35 1365.21 425.502Z" fill="white"/>
<path fill-rule="evenodd" clip-rule="evenodd" d="M1364.38 429.569C1364.12 428.889 1365.61 427.9 1366.21 428.523C1366.83 429.163 1365.16 430.642 1364.38 429.569Z" fill="white"/>
<path fill-rule="evenodd" clip-rule="evenodd" d="M1361.54 428.313C1362.75 428.5 1361.66 430.412 1360.86 430.03C1360 429.619 1360.84 428.206 1361.54 428.313Z" fill="white"/>
<path fill-rule="evenodd" clip-rule="evenodd" d="M1362.75 430.97C1362.9 431.025 1363.12 431.161 1363.2 431.313C1363.52 431.904 1362.7 433.739 1361.81 433.424C1360.44 432.943 1361.58 430.54 1362.75 430.97Z" fill="white"/>
<path d="M131.219 102C131.219 102 135.285 106.888 138.665 107.465C143.23 108.255 150.841 103.666 156.519 106.238C164.874 110.032 166.055 117.847 165.144 121.273C164.815 122.515 165.582 124.043 164.252 126.359C162.77 128.904 160.232 129.674 160.232 129.674C160.232 129.674 160.281 133.072 157.573 135.075C155.154 136.838 153.061 136.424 153.061 136.424C153.061 136.424 151.402 139.066 148.517 140.261C147.697 140.597 145.858 140.501 144.988 140.487C142.484 140.46 140.755 142.322 135.324 139.127C131.879 137.099 129.362 132.292 128.948 129.337C128.012 122.559 132.151 117.065 131.512 112.979C131.183 110.937 127 106.073 127 106.073L131.219 102Z" fill="#FFC539"/>
<path d="M150.787 119.942C147.495 116.864 143.619 114.855 140.592 113.044C143.546 112.024 149.033 113.327 153.262 117.284C157.498 121.237 159.652 126.046 158.834 129.07C156.841 126.18 154.09 123.013 150.787 119.942Z" fill="#D8773A"/>
<path d="M136.646 131.572C134.761 128.776 133.686 126.351 132.756 123.883C132.028 126.543 131.784 129.638 134.199 133.235C136.607 136.828 139.99 138.913 142.476 138.543C140.542 136.758 138.52 134.362 136.646 131.572Z" fill="#D8773A"/>
<path d="M156.356 113.667C153.63 111.698 150.889 110.165 148.443 109.16C151.099 108.618 154.593 108.755 158.107 111.279C161.615 113.798 163.595 117.262 163.14 119.725C161.416 117.743 159.096 115.632 156.356 113.667Z" fill="#D8773A"/>
<path d="M142.665 126.182C139.779 122.722 137.453 119.235 135.823 116.109C134.624 119.01 136.162 124.049 139.868 128.497C143.574 132.958 148.245 135.389 151.308 134.742C148.545 132.577 145.539 129.649 142.665 126.182Z" fill="#D8773A"/>
<path fill-rule="evenodd" clip-rule="evenodd" d="M815.855 104.461C816.591 108.21 817.23 112.03 818.204 115.596C816.817 114.42 814.296 110.844 811.899 109.45C810.495 108.639 808.53 108.306 807.684 109.64C807.094 112.205 808.762 114.12 809.951 115.71C813.618 120.628 817.773 125.288 822.04 129.811C822.327 130.743 822.698 131.609 822.995 132.534C821.005 130.63 818.165 127.304 815.11 125.178C813.54 124.083 810.255 122.433 809.491 125.047C808.915 127.018 810.832 129.223 811.85 130.402C813.193 131.956 814.749 133.145 815.987 134.248C819.031 136.967 821.73 139.34 825.846 140.843C828.338 147.079 830.958 153.212 833.943 159.069C831.878 157.083 830.124 154.789 827.497 152.904C826.227 151.988 823.706 150.611 822.911 152.613C822.257 154.257 823.642 155.94 824.488 157.295C828.787 164.174 833.629 169.158 839.895 174.851C840.895 175.76 842.101 176.753 843.395 178.041C844.354 178.998 845.746 180.953 847.069 180.961C847.681 180.967 848.434 180.537 848.636 180.005C849.298 178.276 846.737 175.347 846.171 174.343C843.559 169.701 841.634 166.098 839.17 161.173C838.746 160.328 837.985 159.215 837.928 158.416C837.882 157.733 838.24 156.48 838.289 155.57C838.441 152.739 838.274 149.08 837.985 145.414C837.858 143.8 837.726 142.348 837.278 140.704C836.918 139.353 836.019 137.632 834.637 137.621C831.246 137.596 832.667 145.775 832.897 147.95C831.723 146.3 830.956 143.655 829.884 140.92C829.234 139.265 828.392 137.287 827.702 135.3C827.473 134.626 827.08 133.898 827.066 133.482C827.041 132.732 827.448 131.712 827.55 130.8C828.027 126.609 828.364 121.852 828.035 117.855C827.894 116.156 827.561 114.416 826.175 114.294C823.417 114.05 823.993 119.966 823.527 122.63C823.177 121.663 822.795 120.423 822.395 119.019C822.066 117.85 821.455 116.294 821.582 115.16C821.66 114.478 822.324 113.292 822.547 112.099C822.827 110.621 822.929 108.662 823.215 106.839C823.679 103.838 825.292 97.9292 822.056 97.7301C820.648 97.6474 820.15 98.8523 819.704 100.324C819.36 95.3895 819.446 89.891 818.626 84.8675C818.4 83.4866 818.236 81.1546 816.656 81.0075C814.432 80.7988 814.626 84.9867 814.588 87.1042C814.524 90.3699 814.705 92.1114 814.821 94.3587C814.836 94.4789 814.946 94.5173 814.931 94.6625C813.198 91.7931 811.311 87.8043 808.647 84.905C807.445 83.5914 804.457 81.547 803.297 83.7962C802.374 85.5858 803.835 88.8947 804.496 90.3064C807.163 95.9761 810.986 100.72 815.855 104.461Z" fill="#54A487"/>
<path fill-rule="evenodd" clip-rule="evenodd" d="M346.636 131.679C344.458 131.681 340.713 131.445 340.869 133.817C341.014 136.043 344.267 136.266 346.827 136.5C350.405 136.833 353.245 137.197 356.513 136.393C359.158 139.119 361.573 142.157 364.087 145.063C361.131 144.336 357.712 142.596 353.786 142.08C352.414 141.898 350.668 141.951 350.483 143.144C350.179 145.126 353.591 146.02 354.588 146.389C356.544 147.116 358.124 147.711 359.588 148.252C363.262 149.608 366.288 150.795 369.722 151.955C374.708 157.487 379.039 165.904 383.541 173.243C384.46 174.74 385.655 176.226 387.105 174.774C387.43 172.604 385.959 170.675 384.944 168.869C383.961 167.121 382.872 165.331 381.786 163.676C380.683 161.989 379.707 160.176 378.628 158.477C377.224 156.271 375.764 154.573 374.331 152.211C374.066 151.771 373.627 151.359 373.448 150.963C373.136 150.267 373.087 149.369 372.8 148.57C371.587 145.169 370.371 141.48 368.787 137.822C368.249 136.575 367.549 134.825 366.141 135.043C363.457 135.456 365.621 140.617 366.007 142.27C365.108 141.83 364.628 140.817 363.85 139.97C362.488 138.488 360.94 136.841 359.38 135.254C358.659 134.52 357.626 133.916 357.089 132.975C356.65 132.208 356.438 131.108 356.109 130.215C354.43 125.675 352.88 121.525 350.518 117.356C349.818 116.119 348.418 113.718 346.957 114.027C344.836 114.48 346.109 118.292 346.636 120.035C347.357 122.418 348.17 124.195 349.065 125.896C345.892 123.615 340.939 119.626 336.858 116.832C335.54 115.93 333.75 114.57 332.087 114.658C327.318 114.911 332.081 119.912 333.049 120.887C337.287 125.15 341.975 128.315 346.636 131.679Z" fill="#54A487"/>
<path fill-rule="evenodd" clip-rule="evenodd" d="M579.753 397.787C581.04 401.081 582.224 404.484 583.02 408.323C582.394 407.575 581.408 406.472 580.301 405.297C579.498 404.456 578.292 402.689 576.429 403.388C574.558 404.095 575.859 406.987 576.994 408.487C579.14 411.316 582.281 414.367 584.505 416.541C584.894 418.706 584.923 420.934 585.163 423.439C585.34 425.242 585.294 427.126 586.312 428.057C587.43 427.606 587.288 425.864 587.337 424.684C587.517 420.727 587.104 416.335 586.697 412.356C586.979 411.869 587.69 411.835 588.154 411.373C589.731 409.798 591.767 402.906 589.14 401.371C586.351 401.242 586.071 403.385 585.257 405.038C584.656 404.243 584.585 402.822 584.168 401.477C583.79 400.254 583.082 399.116 582.938 398.074C582.828 397.296 583.079 396.113 583.072 394.901C583.044 390.685 582.542 381.45 579.936 381.04C577.178 380.609 577.1 383.789 577.039 386.169C575.823 385.214 574.426 382.769 572.884 381.708C571.664 380.873 569.266 380.702 569.023 382.817C568.726 385.327 571.361 388.421 573.04 390.449C573.927 391.52 574.927 392.496 575.759 393.472C577.179 395.138 577.971 396.856 579.753 397.787Z" fill="#81DDBC"/>
<path fill-rule="evenodd" clip-rule="evenodd" d="M1039.81 389.707C1041.31 391.628 1042.88 393.527 1044.19 395.484C1044.2 394.326 1043.53 391.621 1043.86 389.884C1044.05 388.87 1044.71 387.782 1045.71 387.932C1047.19 388.717 1047.41 390.323 1047.68 391.555C1048.53 395.368 1049.04 399.315 1049.44 403.258C1049.77 403.784 1050.03 404.324 1050.35 404.853C1050.27 403.097 1049.85 400.346 1050.1 397.988C1050.22 396.775 1050.8 394.505 1052.37 395.222C1053.56 395.768 1053.83 397.611 1053.97 398.592C1054.16 399.888 1054.09 401.132 1054.1 402.192C1054.14 404.792 1054.16 407.081 1053.17 409.688C1055.13 413.487 1056.99 417.308 1058.57 421.189C1058.47 419.363 1058.1 417.563 1058.29 415.513C1058.38 414.518 1058.76 412.729 1060.06 413.18C1061.13 413.551 1061.36 414.919 1061.66 415.891C1063.18 420.831 1063.56 425.237 1063.69 430.631C1063.71 431.493 1063.69 432.489 1063.77 433.648C1063.83 434.508 1064.19 435.995 1063.65 436.633C1063.39 436.933 1062.87 437.114 1062.53 436.99C1061.42 436.585 1061.08 434.133 1060.83 433.448C1059.68 430.251 1058.75 427.82 1057.4 424.581C1057.18 424.028 1056.96 423.195 1056.59 422.834C1056.29 422.528 1055.53 422.178 1055.07 421.821C1053.65 420.714 1051.95 419.107 1050.31 417.443C1049.58 416.706 1048.94 416.037 1048.33 415.136C1047.83 414.397 1047.38 413.25 1047.95 412.579C1049.35 410.935 1052.7 415.029 1053.65 416.047C1053.35 414.794 1052.39 413.321 1051.52 411.664C1050.99 410.661 1050.39 409.433 1049.72 408.271C1049.5 407.88 1049.31 407.388 1049.11 407.207C1048.76 406.884 1048.1 406.652 1047.62 406.321C1045.4 404.805 1042.97 402.985 1041.18 401.157C1040.42 400.381 1039.73 399.499 1040.24 398.779C1041.27 397.349 1043.88 400.093 1045.36 400.978C1045.04 400.409 1044.61 399.705 1044.09 398.925C1043.67 398.278 1043.17 397.34 1042.57 396.928C1042.21 396.68 1041.36 396.506 1040.7 396.118C1039.87 395.636 1038.88 394.868 1037.88 394.244C1036.24 393.217 1032.73 391.532 1033.98 389.889C1034.52 389.175 1035.31 389.438 1036.21 389.838C1033.97 387.614 1031.29 385.365 1029.21 382.875C1028.64 382.189 1027.58 381.141 1028.17 380.315C1029 379.159 1030.94 380.998 1031.97 381.86C1033.57 383.193 1034.34 384.005 1035.37 385C1035.42 385.055 1035.39 385.125 1035.47 385.177C1034.81 383.147 1033.68 380.573 1033.39 378.083C1033.26 376.953 1033.52 374.664 1035.09 375.042C1036.33 375.345 1037.32 377.426 1037.72 378.334C1039.34 381.985 1040.03 385.803 1039.81 389.707Z" fill="#54A487"/>
<path fill-rule="evenodd" clip-rule="evenodd" d="M888.924 367.769C893.584 367.499 898.295 369.192 901.247 371.59C903.793 373.66 906.368 376.993 907.648 381.246C910.561 390.936 906.834 400.246 901.937 405.746C900.798 407.027 899.32 408.463 897.803 409.359C893.308 412.011 887.598 412.041 880.666 412.33C877.382 412.465 874.213 412.844 871.681 413.474C868.428 414.286 865.352 415.422 862.145 414.619C857.65 413.495 854.447 409.423 852.286 405.115C848.976 398.505 846.819 385.507 852.601 379.809C855.033 377.411 859.549 376.773 864.203 376.58C866.586 376.485 869.234 376.623 871.529 375.859C872.876 375.412 874.029 373.945 875.115 373.08C876.285 372.145 877.519 371.314 878.838 370.577C881.392 369.144 884.423 368.031 888.924 367.769Z" fill="#FF4E4E"/>
<path fill-rule="evenodd" clip-rule="evenodd" d="M875.108 371.422C876.356 370.769 877.733 369.663 879.521 368.914C881.657 368.019 887.163 366.183 886.721 369.991C886.527 371.629 884.26 372.339 882.86 373.051C881.152 373.916 879.889 374.793 878.306 375.419C879.176 376.583 882.231 377.175 882.606 379.138C882.895 380.618 882.267 381.721 880.962 381.909C879.682 382.09 878.48 381.166 877.358 380.679C876.15 380.152 875.163 379.562 874.31 378.893C873.642 380.451 872.726 381.759 871.839 383.467C871.142 384.814 870.445 387.348 868.953 387.627C864.402 388.474 867.532 380.703 868.224 379.056C866.181 377.592 860.417 377.691 860.324 374.249C860.233 370.902 865.547 371.195 868.751 372.001C868.164 370.496 864.211 362.832 868.015 362.046C870.24 361.59 871.852 364.664 872.736 366.176C873.797 367.999 874.454 369.574 875.108 371.422Z" fill="#7FBCA7"/>
<path fill-rule="evenodd" clip-rule="evenodd" d="M900.571 376.434C903.12 375.448 904.514 381.555 901.978 381.686C900.649 381.753 900.521 380.444 900.171 379.065C899.903 378.011 899.316 376.924 900.571 376.434Z" fill="#F7F7FC"/>
<path fill-rule="evenodd" clip-rule="evenodd" d="M901.579 385.281C902.675 384.275 903.729 385.826 903.799 387.761C903.905 390.608 902.646 394.342 901.345 396.899C899.832 399.874 898.686 402.756 896.95 404.107C895.794 405.005 893.534 405.338 892.94 403.709C892.409 402.259 893.852 400.289 894.856 398.997C896.999 396.244 898.552 393.78 899.8 390.404C900.434 388.694 900.632 386.303 901.579 385.281Z" fill="#F7F7FC"/>
<path fill-rule="evenodd" clip-rule="evenodd" d="M876.53 415.115C874.478 413.405 877.01 410.558 879.415 410.677C880.918 411.523 882.34 415.351 879.713 415.514C878.867 415.567 878.764 414.904 878.185 414.829C877.658 414.762 877.358 415.32 876.53 415.115Z" fill="#7FBCA7"/>
<path fill-rule="evenodd" clip-rule="evenodd" d="M112.39 214.528C114.918 213.386 116.779 214.084 117.899 216.735C118.39 217.9 118.85 219.884 118.582 220.856C118.055 222.771 113.122 224.132 109.816 225.19C99.1368 228.606 89.2003 231.73 78.1253 234.766C69.8227 237.041 65.1338 238.682 57.0331 241.29C54.0665 242.247 50.5624 243.481 46.9976 244.782C44.1435 245.826 38.4546 247.986 36.8352 247.272C34.8831 246.413 34.4023 241.518 35.8101 240.274C36.2736 239.864 37.0121 239.66 37.8074 239.431C38.2959 239.287 39.1902 239.367 40.0528 238.962C41.4779 238.298 41.5943 236.215 43.281 235.552C45.0946 234.838 47.2486 235.952 49.3238 235.382C51.6721 234.739 53.1424 231.986 55.4868 231.316C56.5898 231 57.9438 231.233 59.242 231.473C60.3449 231.676 61.5902 232.168 62.6653 232.023C64.1712 231.821 65.6002 230.44 67.4494 229.968C69.3909 229.475 71.77 230.189 73.3153 229.698C75.402 229.035 76.8694 226.816 79.3581 226.259C81.2323 225.84 83.471 226.827 85.299 226.265C87.4559 225.603 87.8627 223.436 90.787 222.98C92.516 222.71 94.5392 223.967 96.2923 223.549C98.1944 223.098 99.4531 220.891 101.462 220.202C102.961 219.688 104.959 220.242 106.391 219.74C107.884 219.217 108.75 217.162 110.231 215.867C110.898 215.287 111.556 214.908 112.39 214.528Z" fill="#E61818"/>
<path fill-rule="evenodd" clip-rule="evenodd" d="M68.0619 328.144C68.712 328.049 69.0524 327.592 69.6457 327.414C71.3709 326.898 73.7259 326.882 75.8722 326.302C78.1465 325.686 80.4409 324.721 82.8103 323.957C93.8853 320.371 106.145 317.293 117.231 315.117C123.843 313.816 130.469 311.956 137.129 309.663C139.247 308.934 141.598 307.578 142.793 308.111C144.823 309.011 145.007 313.908 143.784 314.971C142.54 316.051 140.495 315.806 138.016 316.702C136.998 317.064 136.195 317.819 135.545 317.969C133.324 318.486 132.543 316.894 130.414 317.147C128.508 317.377 127.097 318.931 125.251 319.454C123.684 319.897 121.905 319.435 120.742 319.798C118.554 320.486 117.365 323.071 115.092 323.574C113.469 323.935 111.669 322.421 109.965 322.75C108.2 323.09 106.517 325.308 104.614 325.999C102.482 326.779 100.052 326.216 97.7539 326.99C95.5682 327.722 93.8046 329.69 91.5765 330.464C89.809 331.078 87.8425 330.816 85.6856 331.19C82.8392 331.679 80.1447 333.363 78.0234 333.585C76.7156 333.722 75.3645 332.807 74.1865 333.148C72.3229 333.698 72.6306 336.227 70.8872 336.285C68.3379 336.367 67.4186 330.158 68.0619 328.144Z" fill="#E61818"/>
<path fill-rule="evenodd" clip-rule="evenodd" d="M104.148 223.474C106.637 222.667 114.229 219.955 117.287 220.469C120.321 220.978 122.839 224.224 124.536 227.395C126.28 230.655 127.729 234.571 129.274 238.725C131.774 245.436 135.476 255.214 137.908 262.654C140.918 271.842 143.284 279.1 145.946 287.636C148.562 296.035 148.905 305.181 143.824 309.166C142.283 310.372 138.782 311.701 136.076 312.329C134.701 312.646 133.095 312.519 131.6 312.81C129.132 313.294 126.201 314.303 123.489 315.184C110.491 319.405 97.0529 320.301 83.8527 325.6C79.2245 327.457 72.3248 330.347 68.5774 329.489C61.6047 327.892 58.0505 317.555 55.006 308.695C52.6654 301.883 50.9076 295.934 48.0679 287.719C44.5426 277.518 40.4932 267.918 37.4632 256.605C36.3775 252.57 36.0909 248.528 37.5901 246.766C38.17 246.079 39.5105 245.383 40.7404 244.713C44.1666 242.851 48.792 241.661 53.0491 240.3C62.3355 237.329 71.0834 235.498 79.9159 232.641C88.2714 229.936 95.2759 226.369 104.148 223.474Z" fill="#FF4E4E"/>
<path fill-rule="evenodd" clip-rule="evenodd" d="M117.899 227.58C120.389 225.433 121.622 231.98 122.722 234.872C128.522 250.097 134.668 265.024 139.958 280.958C142.334 288.106 146.934 298.641 143.741 303.985C143.047 305.155 141.615 306.418 140.378 305.8C139.094 305.165 139.395 302.787 139.519 301.581C139.961 297.164 139.501 291.976 138.14 286.804C136.839 281.846 134.845 276.669 132.797 271.63C128.918 262.09 125.273 252.845 121.44 242.654C119.873 238.498 116.549 230.455 117.899 227.58Z" fill="#F7F7FC"/>
<path fill-rule="evenodd" clip-rule="evenodd" d="M46.4639 248.793C48.0977 248.027 49.2218 248.153 49.7065 249.242C50.4844 250.987 48.8795 252.25 47.9919 253.277C47.2072 254.177 45.9196 255.545 45.7081 256.873C45.4004 258.806 46.8255 262.945 47.7169 265.83C50.3969 274.533 53.2857 283.673 56.3907 291.53C59.4391 299.225 63.1798 307.592 66.4118 315.08C67.0984 316.659 69.6794 321.507 67.5542 322.493C66.1118 323.161 65.1251 321.797 64.2097 320.587C61.9499 317.601 59.7401 312.495 58.163 308.281C53.3962 295.555 49.1247 283.73 44.7965 270.346C42.8194 264.244 39.6124 255.729 42.2962 252.016C42.6819 251.481 43.4848 251.026 44.2416 250.442C45.1869 249.706 45.6081 249.192 46.4639 248.793Z" fill="#F7F7FC"/>
<path fill-rule="evenodd" clip-rule="evenodd" d="M92.5987 238.524C93.5892 239.084 93.8507 240.567 94.2364 241.791C95.3355 245.281 95.9403 249.204 97.1289 252.882C98.5252 252.173 100.612 251.374 101.602 252.399C101.694 254.395 99.2829 254.963 97.8607 256.096C99.0772 260.447 100.167 265.014 102.263 267.816C104.194 267.149 107.549 265.026 108.331 267.194C109.006 269.072 105.569 271.103 103.6 271.608C97.5386 273.162 96.3971 263.928 94.3566 257.949C93.1113 258.444 90.8697 259.674 90.262 258.178C89.5792 256.504 92.2919 255.509 93.7276 254.558C93.1334 252.196 92.7872 249.31 92.4333 246.593C92.0477 243.616 91.2976 240.304 92.3237 238.6C92.415 238.576 92.5074 238.551 92.5987 238.524Z" fill="#F7F7FC"/>
<path fill-rule="evenodd" clip-rule="evenodd" d="M113.996 256.429C112.872 256.567 111.287 257.453 109.929 257.846C109.639 259.934 111.923 263.488 110.891 265.157C108.687 265.296 108.129 261.207 107.237 258.877C107.064 258.424 106.676 257.954 106.583 257.572C106.488 257.161 106.69 256.746 106.655 256.214C106.583 254.972 106.131 253.33 105.859 251.679C105.212 247.747 104.169 242.055 104.989 239.288C105.347 238.104 106.454 236.546 108.204 236.925C110.711 237.458 112.369 242.685 113.794 245.938C115.611 250.079 117.082 253.222 118.242 256.751C119.048 259.187 120.827 265.082 118.582 265.573C117.203 265.874 116.538 263.441 115.887 261.705C115.071 259.507 114.466 257.939 113.996 256.429ZM109.155 254.488C110.35 253.963 111.192 253.238 112.733 252.913C111.365 248.505 109.735 244.532 107.743 241.207C107.429 245.186 108.292 249.834 109.155 254.488Z" fill="#F7F7FC"/>
<path fill-rule="evenodd" clip-rule="evenodd" d="M62.974 273.533C63.5289 275.829 65.1588 278.004 65.9733 280.14C66.5811 281.726 67.1475 283.522 66.3445 284.198C64.3963 285.828 62.625 282.524 61.6027 280.446C60.3969 278 59.2862 275.297 58.59 273.246C56.3417 266.639 54.3714 258.083 58.24 254.625C61.2633 251.925 65.4358 253.862 66.7369 256.904C68.9293 262.017 66.8465 268.738 64.9444 271.506C64.4232 272.265 63.6952 272.851 62.974 273.533ZM62.6557 259.357C62.3269 258.643 61.397 257.469 60.7815 257.943C58.4015 259.767 60.6113 265.948 61.7364 269.566C63.3241 267.376 64.2963 262.957 62.6557 259.357Z" fill="#F7F7FC"/>
<path fill-rule="evenodd" clip-rule="evenodd" d="M89.5369 250.655C89.0667 251.376 87.981 251.574 87.3762 251.989C86.0116 252.93 84.448 255.064 84.6673 256.742C84.848 258.129 85.827 258.823 86.6434 259.619C88.6445 261.571 91.3602 264.462 92.6333 267.93C93.7363 270.92 93.0786 273.972 91.488 275.672C90.6928 276.522 87.655 278.832 86.552 277.173C85.6885 275.872 86.9367 274.648 87.5521 273.779C88.2945 272.733 89.4186 271.426 89.2811 270.333C88.9667 267.787 87.4387 265.758 86.0847 264.082C84.8192 262.513 82.9479 261.229 82.0824 259.234C80.3034 255.154 83.6027 250.274 86.8703 249.602C87.7195 249.43 89.109 249.177 89.5369 250.655Z" fill="#F7F7FC"/>
<path fill-rule="evenodd" clip-rule="evenodd" d="M77.7868 272.297C76.68 272.794 75.0144 273.978 73.3528 274.551C72.8691 275.854 75.202 281.489 73.3172 281.987C72.3132 282.255 71.7968 280.725 71.4891 279.668C70.2371 275.348 69.9053 270.363 69.9015 266.286C69.9015 264.473 70.0996 262.181 70.3217 260.229C70.6044 257.775 70.7602 253.606 73.9326 253.892C76.9031 254.158 78.8128 262.183 80.3082 266.85C81.3159 270.002 82.2179 273.165 82.6064 276.321C82.7872 277.794 82.7872 279.635 81.641 279.855C80.3822 280.1 79.7456 277.918 79.3138 276.779C78.6705 275.08 78.3666 273.961 77.7868 272.297ZM73.1364 271.043C74.0134 270.145 75.5904 269.645 77.054 269.08C75.8799 265.614 75.0981 261.46 73.5845 258.593C72.9104 262.364 72.3334 266.818 73.1364 271.043Z" fill="#F7F7FC"/>
<path fill-rule="evenodd" clip-rule="evenodd" d="M101.1 297.995C102.825 302.433 103.925 307.721 106.043 312.239C106.637 313.505 107.949 315.565 106.513 316.122C105.053 316.687 104.452 314.385 103.947 313.259C102.151 309.292 100.27 304.71 98.8897 300.236C94.5374 300.196 90.3851 298.752 86.5838 297.073C85.1876 296.457 83.7124 295.766 82.044 294.603C80.9622 293.848 78.3985 292.239 78.7207 290.609C78.8687 289.88 80.3968 289.092 81.8113 288.872C82.8547 288.712 84.626 289.009 86.0972 289.333C89.485 290.075 94.6547 292.061 96.9492 294.233C97.6069 294.857 98.105 295.864 98.5964 296.453C101.057 290.622 102.929 282.329 107.812 278.034C108.314 277.589 109.41 277.185 110.057 277.568C111.75 278.559 110.683 282.676 110.403 283.71C108.854 289.553 105.803 294.179 101.1 297.995Z" fill="#81DDBC"/>
<path fill-rule="evenodd" clip-rule="evenodd" d="M1017.4 109.175C1018 109.487 1017.63 110.376 1017.61 110.845C1017.25 119.593 1013.98 130.808 1016.72 138.105C1018.19 142.007 1022.02 144.862 1024.12 148.55C1027.01 153.626 1027.77 161.679 1027.65 169.324C1027.52 177.58 1026.96 186.702 1026.08 194.546C1025.15 202.653 1024.79 210.706 1024.19 219.419C1023.93 223.135 1023.86 227.371 1023.33 231.779C1022.85 235.897 1022.71 241.071 1020.4 243.167C1017.41 245.883 1008.73 244.444 1003.57 244.65C998.349 244.866 991.337 246.473 986.574 243.81C981.301 240.859 980.099 231.924 980.007 223.819C979.912 215.369 980.806 205.719 981.004 197.396C981.221 188.195 982.033 180.101 982.716 170.192C983.317 161.508 983.42 151.488 986.719 145.799C989.643 140.758 995.224 137.732 997.893 132.662C1000.9 126.951 1000.55 117.522 1001.33 109.222C1006.52 109.016 1011.91 109.041 1017.4 109.175Z" fill="#D8773A"/>
<path fill-rule="evenodd" clip-rule="evenodd" d="M1018.17 117.173C1015.65 117.875 1012.19 117.258 1008.91 117.032C1005.59 116.802 1001.98 116.962 999.561 115.723C999.508 114.06 1000.44 113.88 1000.42 112.805C1000.41 111.632 999.069 110.93 999.002 109.393C998.928 107.746 999.441 102.98 1000.35 101.87C1001.74 100.173 1008.29 101.41 1011.61 101.82C1013.69 102.077 1018.07 102.397 1019.42 103.85C1019.95 104.426 1020.2 105.731 1020.23 106.555C1020.27 108.147 1019.84 110.834 1019.35 112.123C1018.99 113.051 1018.02 113.574 1017.87 114.34C1017.64 115.514 1018.48 115.904 1018.17 117.173Z" fill="#752C00"/>
<path fill-rule="evenodd" clip-rule="evenodd" d="M1001.05 139.668C1000.71 143.255 997.896 143.759 995.665 145.756C990.916 149.997 990.683 158.241 989.427 166.518C989.275 167.517 989.444 168.734 988.565 169.44C987.617 168.717 987.879 166.717 987.871 165.087C987.857 160.331 988.391 155.041 989.519 150.796C991.035 145.098 995.148 141.446 999.073 139.532C999.463 139.343 1000.32 138.903 1001.05 139.668Z" fill="#F7F7FC"/>
<path fill-rule="evenodd" clip-rule="evenodd" d="M1010.85 143.657C1015.48 144.861 1016.38 152.582 1016.12 158.426C1015.89 163.425 1015.35 168.529 1014.75 173.399C1014.59 174.704 1014.79 176.703 1013.34 177.11C1012.42 175.864 1012.93 174.329 1012.96 172.944C1013.11 166.213 1014.92 156.307 1012.83 150.915C1011.9 148.534 1009.91 146.834 1010.32 144.118C1010.42 143.889 1010.6 143.737 1010.85 143.657Z" fill="#F7F7FC"/>
<path fill-rule="evenodd" clip-rule="evenodd" d="M1013.53 183.914C1014.91 184.08 1014.65 187.679 1014.6 189.948C1014.44 197.255 1013.39 204.143 1012.83 210.851C1012.23 217.934 1011.49 224.668 1010.43 231.218C1010.12 233.142 1010.13 235.864 1008.56 236.718C1007.44 235.028 1007.95 232.701 1007.99 230.553C1008.27 217.829 1009.29 202.841 1011.44 190.226C1011.89 187.591 1012.08 184.567 1013.53 183.914Z" fill="#F7F7FC"/>
<path fill-rule="evenodd" clip-rule="evenodd" d="M990.955 240.305C990.757 241.195 989.587 240.606 989.12 240.508C984.722 239.595 983.706 236.158 983.66 230.862C983.639 227.885 983.494 224.423 983.915 222.433C983.993 222.05 984.293 221.344 984.488 221.314C984.619 221.169 984.807 221.084 985.005 221.017C985.146 220.998 985.157 221.093 985.16 221.194C986.03 221.845 985.751 223.089 985.79 224.051C985.938 228.185 985.154 234.112 987.23 236.736C987.742 237.382 988.44 237.972 989.097 238.522C989.661 238.994 990.768 239.291 990.955 240.305Z" fill="#F7F7FC"/>
<path fill-rule="evenodd" clip-rule="evenodd" d="M994.746 178.588C993.629 178.099 992.387 176.916 990.995 175.975C989.793 175.162 988.173 173.795 986.553 174.763C986.991 177.072 989.301 178.636 990.881 179.806C992.568 181.056 994.463 182.362 996.521 183.057C997.402 183.959 997.95 185.184 998.678 186.325C999.336 187.361 999.983 188.799 1001.28 189.053C1001.81 188.571 1001.35 187.943 1001.11 187.407C1001.98 185.894 1002.96 184.083 1003.74 182.163C1004.43 180.448 1005.62 178.128 1004.29 176.131C1002.23 176.439 1001.71 178.56 1001.2 180.093C1000.63 181.82 1000.19 183.76 1000.11 185.684C999.683 184.846 998.361 183.67 998.13 182.56C997.961 181.727 998.342 180.47 998.296 179.225C998.191 176.424 997.543 167.711 995.033 168.265C993.112 168.687 993.526 176.404 994.746 178.588Z" fill="#81DDBC"/>
<path fill-rule="evenodd" clip-rule="evenodd" d="M1001.19 189.891C1000.57 191.44 1001.93 193.279 1002.53 194.902C1003.11 196.46 1003.25 199.038 1004.82 199.488C1005.77 198.986 1005.05 197.709 1004.9 196.99C1004.35 194.405 1003.26 191.333 1001.69 189.84C1001.52 189.857 1001.36 189.875 1001.19 189.891Z" fill="#81DDBC"/>
<path fill-rule="evenodd" clip-rule="evenodd" d="M1001.06 185.255C1000.61 185.595 1000.37 186.1 1000.21 186.668C999.551 185.746 998.293 185.568 996.641 185.869C991.924 188.926 1000.57 198.795 1001.61 190.678C1002.36 191.243 1005.82 192.403 1006.37 190.197C1006.13 186.682 1004.46 184.905 1001.06 185.255Z" fill="#752C00"/>
<path fill-rule="evenodd" clip-rule="evenodd" d="M994.46 193.842C995.485 194.396 995.573 196.587 994.145 196.94C993.313 196.24 993.13 194.184 994.46 193.842Z" fill="#F7F7FC"/>
<path fill-rule="evenodd" clip-rule="evenodd" d="M990.726 206.014C991.606 205.098 992.048 204.196 992.479 202.735C992.724 201.913 992.684 199.353 993.692 199.189C994.898 198.989 994.813 201.205 994.816 202.107C994.82 205.438 994.597 208.969 995.799 212.707C997.047 212.28 996.775 209.539 998.762 209.474C999.611 210.496 998.759 211.428 998.221 212.35C997.454 213.674 995.714 216.082 994.314 213.649C993.126 211.585 993.374 207.944 993.105 205.97C992.422 206.228 992.168 207.671 990.948 208.032C990.99 209.185 991.206 210.712 990.945 212.074C990.736 213.173 990.114 215.645 988.116 215.713C986.836 215.757 985.803 213.283 985.287 211.262C984.876 209.649 984.721 207.311 984.749 205.157C984.781 203.049 984.979 200.661 985.877 199.993C988.246 198.219 990.121 203.211 990.726 206.014ZM988.974 206.595C988.862 204.907 988.051 202.994 987.178 201.654C987.115 201.558 987.012 201.535 986.864 201.606C986.613 203.183 987.43 206.182 988.974 206.595ZM988.116 213.917C989.576 212.625 989.361 210.496 989.286 208.44C988.002 208.452 987.232 207.459 986.323 206.73C986.535 208.878 986.889 211.626 988.116 213.917Z" fill="#F7F7FC"/>
<path fill-rule="evenodd" clip-rule="evenodd" d="M1001.15 198.204C1001.47 199.265 1001.4 200.441 1001.38 201.573C1001.29 204.755 1000.87 208.157 1001.46 211.723C1002.67 211.912 1003.85 210.186 1005 210.692C1006.18 212.522 1001.47 214.039 1000.51 213.384C998.977 212.338 999.473 208.029 999.525 205.927C999.607 202.944 999.469 200.734 999.848 198.786C999.873 198.641 999.894 198.438 1000.12 198.249C1000.58 197.998 1000.87 198.097 1001.15 198.204Z" fill="#F7F7FC"/>
<path fill-rule="evenodd" clip-rule="evenodd" d="M480.289 410.234C480.174 410.32 480.059 410.408 479.944 410.494C479.714 413.973 477.738 417.354 474.829 420.652C473.969 421.629 472.872 422.614 472.829 423.963C473.338 424.594 474.199 424.298 474.898 424.563C477.349 425.48 480.5 428.185 482.905 430.399C485.596 432.88 488.212 435.825 490.458 438.737C495.27 444.985 498.601 452.128 501.143 457.673C502.476 457.795 503.979 457.536 505.511 457.26C515.198 455.49 527.086 449.668 536.724 440.187C531.187 429.436 528.804 419.045 529.796 409.056C529.957 407.42 530.01 405.76 530.386 404.112C530.759 402.473 531.676 401.019 532.182 399.336C531.55 399.122 530.898 399.498 530.398 399.602C527.916 400.114 525.716 399.685 523.299 399.02C521.683 398.572 519.866 397.593 518.067 398.289C517.324 398.855 518.747 399.109 518.589 399.693C518.763 401.979 519.108 404.081 519.36 406.673C519.528 408.416 520.413 412.256 518.515 413.429C517.173 414.264 515.395 412.464 514.485 411.43C513.205 409.965 511.978 408.059 510.881 406.41C509.75 404.712 509.134 402.767 507.82 401.879C502.439 405.649 497.405 406.912 492.493 407.325C491.952 407.509 491.629 406.168 491.083 406.408C489.675 407.29 490.79 408.822 491.092 410C491.397 411.201 491.763 412.564 492.109 413.735C492.795 416.08 493.662 419.107 493.05 420.945C492.823 421.616 492.171 422.677 491.534 422.99C490.27 423.608 488.209 421.938 487.302 420.962C484.152 417.572 482.99 413.691 480.663 410.493C480.556 410.279 480.406 410.375 480.289 410.234Z" fill="#7FBCA7"/>
<path fill-rule="evenodd" clip-rule="evenodd" d="M453.575 394.393C451.145 394.908 448.629 395.734 446.773 397.544C445.217 399.062 444.058 401.449 444.002 403.415C443.918 406.528 446.717 410.032 449.945 410.808C447.543 414.322 446.736 418.582 449.66 422.363C453.037 426.726 459.782 427.557 464.489 422.693C467.876 426.939 471.536 429.796 475.795 426.942C478.309 425.263 480.443 422.317 481.121 419.688C481.919 416.571 481.23 413.185 479.226 410.499C483.843 407.261 487.329 401.696 483.783 396.979C480.704 392.883 476.009 393.35 471.622 395.175C471.283 389.647 466.943 382.338 461.009 381.585C454.544 380.763 448.168 388.9 453.575 394.393Z" fill="#54A487"/>
<path fill-rule="evenodd" clip-rule="evenodd" d="M513.599 373.04C508.985 375.42 506.465 378.783 505.583 382.688C504.915 385.643 505.39 389.378 507.36 391.966C510.278 395.791 515.761 396.387 520.298 394.085C522.619 401.868 531.383 407.33 537.971 403.429C542.982 400.459 543.519 395.58 541.124 391.149C546.872 388.02 549.647 382.503 546.487 377.742C543.622 373.429 537.675 372.631 533.459 374.074C533.133 372.548 533.413 370.705 533.158 368.904C532.478 364.088 528.625 358.273 523.501 358.009C521.447 357.905 518.511 358.665 516.007 360.962C512.605 364.09 511.128 368.916 513.599 373.04Z" fill="#54A487"/>
<path fill-rule="evenodd" clip-rule="evenodd" d="M470.409 382.589C464.325 384.105 459.506 390.535 462.747 395.57C464.328 398.028 466.845 398.893 469.166 399.547C467.97 401.785 466.848 403.86 466.687 406.279C466.333 411.605 470.353 416.522 475.738 417.085C478.335 417.357 482.346 416.324 484.49 413.181C487.839 416.605 494.286 415.667 496.324 410.736C500.177 414.782 505.968 415.252 510.663 410.895C513.082 408.646 513.732 405.975 514.292 403.296C517.809 405.262 522.566 405.178 526.098 402.487C529.609 399.809 530.979 394.926 528.91 391.185C527.561 388.745 525.479 387.349 523.436 386.317C523.722 385.62 524.2 385.071 524.61 384.531C527.332 380.956 528.705 375.718 525.346 371.196C520.859 365.156 513.185 366.957 507.767 373.66C506.191 365.075 497.241 358.351 490.094 362.879C486.819 364.95 485.847 368.112 485.057 370.996C481.31 368.221 476.454 366.583 471.893 369.77C467.482 372.857 466.804 377.821 470.409 382.589Z" fill="#81DDBC"/>
<path fill-rule="evenodd" clip-rule="evenodd" d="M497.193 364.179C497.523 365.455 499.415 367.064 500.593 367.015C501.263 365.883 498.604 363.996 497.653 363.833C497.502 363.949 497.346 364.062 497.193 364.179Z" fill="#54A487"/>
<path fill-rule="evenodd" clip-rule="evenodd" d="M466.801 396.65C467.412 395.378 465.766 394.422 465.123 393.238C464.387 391.883 464.902 390.898 464.682 389.792C463.436 389.994 463.001 391.237 463.168 392.554C463.402 394.407 465.163 397.367 466.801 396.65Z" fill="#54A487"/>
<path fill-rule="evenodd" clip-rule="evenodd" d="M500.003 370.52C500.192 371.539 503.317 375.637 504.436 374.732C505.713 373.704 502.096 370.133 501.118 369.859C500.953 369.829 500.755 370.028 500.603 369.888C500.189 370.068 500.272 370.322 500.003 370.52Z" fill="#54A487"/>
<path fill-rule="evenodd" clip-rule="evenodd" d="M451.769 415.375C452.94 414.443 452.438 413.278 452.22 412.153C450.651 411.814 450.098 414.933 451.769 415.375Z" fill="#81DDBC"/>
<path fill-rule="evenodd" clip-rule="evenodd" d="M472.527 399.709C469.815 399.153 470.697 405.537 472.798 404.366C473.646 403.891 473.111 402.821 473.021 402.038C472.916 401.061 473.233 400.496 472.527 399.709Z" fill="#54A487"/>
<path fill-rule="evenodd" clip-rule="evenodd" d="M451.315 417.876C452.284 420.523 455.802 423.851 457.477 421.507C456.998 419.975 454.709 420.184 453.59 419.22C452.928 418.648 452.53 416.761 451.315 417.876Z" fill="#81DDBC"/>
<path fill-rule="evenodd" clip-rule="evenodd" d="M471.024 406.065C467.525 405.134 472.944 415.416 475.094 412.891C476.076 411.743 473.577 409.998 472.465 408.217C471.93 407.358 471.853 406.267 471.024 406.065Z" fill="#54A487"/>
<path fill-rule="evenodd" clip-rule="evenodd" d="M513.602 374.477C515.125 376.493 517.091 376.111 518.871 377.882C519.962 378.962 521.394 382.235 522.764 381.604C524.631 380.745 522.385 377.131 520.847 375.489C519.75 374.323 518.34 373.955 517.019 373.516C515.485 373.012 514.201 372.195 513.602 374.477Z" fill="#54A487"/>
<path fill-rule="evenodd" clip-rule="evenodd" d="M480.866 412.675C482.843 413.395 484.228 409.522 482.438 408.79C482.323 408.877 482.208 408.964 482.093 409.049C482.302 410.343 480.574 411.368 480.866 412.675Z" fill="#54A487"/>
<path fill-rule="evenodd" clip-rule="evenodd" d="M472.512 424.74C472.145 423.184 470.639 423.534 469.781 423.021C469.579 422.901 469.11 422.235 468.712 421.848C468.355 421.498 467.973 421.151 467.532 420.759C467.364 420.729 467.165 420.929 467.016 420.789C466.97 420.919 466.917 421.048 466.759 421.163C467.631 423.236 470.411 426.37 472.512 424.74Z" fill="#81DDBC"/>
<path fill-rule="evenodd" clip-rule="evenodd" d="M521.316 388.278C522.233 389.694 523.852 392.043 525.262 392.316C527.326 390.604 522.519 385.566 521.316 388.278Z" fill="#54A487"/>
<path fill-rule="evenodd" clip-rule="evenodd" d="M543.606 384.42C543.814 384.361 544.019 384.386 544.206 384.503C545.278 383.69 545.014 381.429 544.224 379.992C543.026 377.821 541.227 377.032 539.704 377.103C539.291 377.284 539.375 377.534 539.102 377.736C538.928 379.091 541.006 379.153 541.954 380.087C543.367 381.479 542.737 382.658 543.606 384.42Z" fill="#81DDBC"/>
<path fill-rule="evenodd" clip-rule="evenodd" d="M540.592 386.154C539.632 386.222 538.134 388.24 538.96 389.003C540.49 390.41 542.584 386.007 540.592 386.154Z" fill="#81DDBC"/>
<path fill-rule="evenodd" clip-rule="evenodd" d="M536.557 392.256C536.215 393.415 537.526 394.045 538.03 394.925C538.673 396.044 538.129 397.187 538.815 398.113C541.354 398.092 539.54 392.023 537.246 391.738C537.017 391.908 536.787 392.083 536.557 392.256Z" fill="#81DDBC"/>
<path fill-rule="evenodd" clip-rule="evenodd" d="M493.813 427.204C493.252 427.846 494.021 429.127 494.628 430.192C495.526 431.77 496.501 433.902 497.915 433.834C498.555 433.045 497.657 431.305 496.811 429.986C496.135 428.93 495.137 427.59 494.419 427.29C494.31 427.083 494.162 427.176 494.043 427.034C493.966 427.089 493.89 427.148 493.813 427.204Z" fill="#54A487"/>
<path fill-rule="evenodd" clip-rule="evenodd" d="M523.035 426.576C523.781 424.886 522.557 422.991 522.044 421.205C521.547 419.465 521.258 417.289 519.701 415.955C518.226 416.615 519.397 420.262 520.006 421.844C520.341 422.72 520.776 423.704 521.162 424.571C521.577 425.5 522.044 426.776 523.035 426.576Z" fill="#54A487"/>
<path fill-rule="evenodd" clip-rule="evenodd" d="M502.287 436.29C503.927 435.577 502.162 432.607 500.925 432.101C499.086 432.724 500.981 435.557 502.287 436.29Z" fill="#54A487"/>
<path fill-rule="evenodd" clip-rule="evenodd" d="M499.735 437.677C499.29 438.73 501.251 443.186 502.736 442.61C504.252 442.026 502.565 438.835 501.313 437.386C500.816 437.267 500.341 437.003 499.735 437.677Z" fill="#54A487"/>
<path fill-rule="evenodd" clip-rule="evenodd" d="M520.003 430.664C521.038 429.755 519.462 426.559 518.352 427.049C517.361 427.489 518.573 430.933 520.003 430.664Z" fill="#54A487"/>
<path fill-rule="evenodd" clip-rule="evenodd" d="M526.26 438.004C526.91 437.027 526.183 435.595 525.732 434.442C525.275 433.29 524.865 431.775 523.856 430.998C523.418 431.312 523.43 431.118 523.166 431.517C523.007 432.491 523.573 433.879 524.098 435.137C524.554 436.244 524.905 438.042 526.26 438.004Z" fill="#54A487"/>
<rect width="1512" height="561" fill="white" fill-opacity="0.8"/>
</svg>
