<svg width="194" height="113" viewBox="0 0 194 113" fill="none" xmlns="http://www.w3.org/2000/svg">
<rect width="194" height="113" fill="white"/>
<rect width="194" height="113" stroke="white"/>
<path fill-rule="evenodd" clip-rule="evenodd" d="M15.4619 65.4973L21.3433 61.0023C24.4665 65.071 27.7832 66.9459 31.4791 66.9459C35.1545 66.9459 38.3801 65.0926 41.3634 61.0561L47.3258 65.4435C43.0245 71.2633 37.6731 74.338 31.4791 74.338C25.3056 74.338 19.9046 71.2849 15.4619 65.4973Z" fill="url(#paint0_linear_1448_11081)"/>
<path fill-rule="evenodd" clip-rule="evenodd" d="M31.4603 45.9612L20.9923 54.9615L16.1563 49.3616L31.4811 36.1854L46.6868 49.3718L41.8269 54.9513L31.4603 45.9612Z" fill="url(#paint1_linear_1448_11081)"/>
<path d="M87.4729 43.7838H81.5461V68.4243H87.4729V43.7838Z" fill="black"/>
<path fill-rule="evenodd" clip-rule="evenodd" d="M69.5683 68.533C66.0745 68.533 63.163 67.4032 60.8014 65.1437C58.4399 62.8519 57.2752 59.9145 57.2752 56.3315C57.2752 52.7162 58.4722 49.7465 60.8337 47.4225C63.2276 45.0661 66.1391 43.9041 69.6006 43.9041C73.8707 43.9041 77.6558 45.7439 79.8555 48.6168L76.0058 52.6517C74.1618 50.6827 72.1563 49.682 69.9888 49.682C68.1449 49.682 66.6244 50.2953 65.3628 51.5542C64.1335 52.8131 63.5188 54.3948 63.5188 56.2992C63.5188 58.1391 64.1335 59.6885 65.3628 60.9474C66.6244 62.174 68.1449 62.7873 69.9565 62.7873C72.318 62.7873 74.3884 61.7544 76.1029 59.7208L80.1146 63.562C79.0148 65.0145 77.5263 66.2089 75.6822 67.145C73.8388 68.0811 71.8004 68.533 69.5683 68.533Z" fill="black"/>
<path fill-rule="evenodd" clip-rule="evenodd" d="M96.3624 45.755C96.3624 47.5242 94.9257 48.9583 93.1525 48.9583C91.3793 48.9583 89.942 47.5242 89.942 45.755C89.942 43.9859 91.3793 42.5518 93.1525 42.5518C94.9257 42.5518 96.3624 43.9859 96.3624 45.755ZM96.1155 50.4367H90.1889V68.4243H96.1155V50.4367Z" fill="black"/>
<path fill-rule="evenodd" clip-rule="evenodd" d="M107.572 68.5651C104.758 68.5651 102.493 67.6936 100.714 65.9505C98.967 64.2074 98.0932 61.9802 98.0932 59.2365C98.0932 56.4928 98.967 54.2655 100.746 52.5224C102.526 50.7794 104.822 49.9078 107.669 49.9078C111.39 49.9078 114.657 51.7154 116.177 55.1048L111.616 57.4934C110.71 55.9763 109.449 55.2016 107.799 55.2016C106.602 55.2016 105.631 55.5889 104.855 56.3636C104.11 57.1383 103.722 58.1067 103.722 59.2365C103.722 61.5928 105.437 63.3359 107.734 63.3359C109.384 63.3359 110.904 62.4321 111.551 61.0441L116.112 63.7555C114.56 66.7252 111.357 68.5651 107.572 68.5651Z" fill="black"/>
<path fill-rule="evenodd" clip-rule="evenodd" d="M123.528 43.7838H117.601V68.4243H123.528V62.1515L124.222 61.5053L129.64 68.4243H136.534L128.21 57.7941L136.118 50.4367H128.876L123.528 55.4131V43.7838Z" fill="black"/>
<path fill-rule="evenodd" clip-rule="evenodd" d="M137.603 59.1131V43.7838H143.777V58.7699C143.777 61.4491 145.342 62.7402 147.605 62.7402C149.835 62.7402 151.432 61.3845 151.432 58.7699V43.7838H157.606V59.1131C157.606 66.15 152.655 68.7969 147.605 68.7969C142.587 68.7969 137.603 66.15 137.603 59.1131Z" fill="black"/>
<path fill-rule="evenodd" clip-rule="evenodd" d="M170.941 68.9171C175.715 68.9171 179.585 64.725 179.585 59.5537C179.585 54.3824 175.715 50.1903 170.941 50.1903C168.996 50.1903 167.2 50.8868 165.755 52.0622V50.4367H160.076V75.8164H165.755V67.0452C167.2 68.2206 168.996 68.9171 170.941 68.9171ZM165.755 59.5633V59.544C165.761 57.235 167.583 55.3648 169.83 55.3648C172.081 55.3648 173.905 57.2402 173.905 59.5537C173.905 61.8671 172.081 63.7425 169.83 63.7425C167.583 63.7425 165.761 61.8723 165.755 59.5633Z" fill="black"/>
<defs>
<linearGradient id="paint0_linear_1448_11081" x1="15.4619" y1="76.7392" x2="47.3258" y2="76.7392" gradientUnits="userSpaceOnUse">
<stop stop-color="#8930FD"/>
<stop offset="1" stop-color="#49CCF9"/>
</linearGradient>
<linearGradient id="paint1_linear_1448_11081" x1="16.1563" y1="58.3423" x2="46.6868" y2="58.3423" gradientUnits="userSpaceOnUse">
<stop stop-color="#FF02F0"/>
<stop offset="1" stop-color="#FFC800"/>
</linearGradient>
</defs>
</svg>
