<svg width="194" height="113" viewBox="0 0 194 113" fill="none" xmlns="http://www.w3.org/2000/svg">
<rect x="0.5" y="0.5" width="193" height="112" fill="white" stroke="#A0AEC0"/>
<path fill-rule="evenodd" clip-rule="evenodd" d="M15.4619 65.4973L21.3433 61.0023C24.4665 65.0709 27.7833 66.9459 31.4792 66.9459C35.1546 66.9459 38.3802 65.0925 41.3634 61.0561L47.3258 65.4435C43.0246 71.2632 37.6732 74.338 31.4792 74.338C25.3057 74.338 19.9047 71.2849 15.4619 65.4973Z" fill="url(#paint0_linear_1418_10383)"/>
<path fill-rule="evenodd" clip-rule="evenodd" d="M31.4602 45.9612L20.9922 54.9615L16.1562 49.3616L31.481 36.1854L46.6867 49.3718L41.8269 54.9512L31.4602 45.9612Z" fill="url(#paint1_linear_1418_10383)"/>
<path d="M87.4727 43.7838H81.5459V68.4243H87.4727V43.7838Z" fill="black"/>
<path fill-rule="evenodd" clip-rule="evenodd" d="M69.5685 68.5329C66.0747 68.5329 63.1632 67.4032 60.8016 65.1437C58.44 62.8518 57.2754 59.9144 57.2754 56.3314C57.2754 52.7162 58.4724 49.7465 60.8339 47.4224C63.2278 45.066 66.1393 43.904 69.6008 43.904C73.8709 43.904 77.656 45.7439 79.8556 48.6168L76.006 52.6517C74.162 50.6826 72.1565 49.682 69.989 49.682C68.1451 49.682 66.6246 50.2952 65.3629 51.5541C64.1336 52.813 63.519 54.3947 63.519 56.2992C63.519 58.1391 64.1336 59.6885 65.3629 60.9474C66.6246 62.174 68.1451 62.7872 69.9567 62.7872C72.3182 62.7872 74.3886 61.7543 76.1031 59.7208L80.1148 63.562C79.015 65.0145 77.5265 66.2088 75.6824 67.1449C73.8389 68.081 71.8006 68.5329 69.5685 68.5329Z" fill="black"/>
<path fill-rule="evenodd" clip-rule="evenodd" d="M96.3624 45.755C96.3624 47.5241 94.9256 48.9583 93.1524 48.9583C91.3793 48.9583 89.9419 47.5241 89.9419 45.755C89.9419 43.9859 91.3793 42.5517 93.1524 42.5517C94.9256 42.5517 96.3624 43.9859 96.3624 45.755ZM96.1155 50.4366H90.1888V68.4242H96.1155V50.4366Z" fill="black"/>
<path fill-rule="evenodd" clip-rule="evenodd" d="M107.572 68.5652C104.758 68.5652 102.493 67.6936 100.714 65.9506C98.9671 64.2075 98.0933 61.9802 98.0933 59.2365C98.0933 56.4928 98.9671 54.2655 100.746 52.5225C102.526 50.7794 104.822 49.9079 107.669 49.9079C111.39 49.9079 114.657 51.7155 116.177 55.1048L111.616 57.4934C110.71 55.9763 109.449 55.2016 107.799 55.2016C106.602 55.2016 105.631 55.589 104.855 56.3637C104.111 57.1384 103.722 58.1067 103.722 59.2365C103.722 61.5929 105.437 63.3359 107.734 63.3359C109.384 63.3359 110.904 62.4321 111.551 61.0441L116.113 63.7556C114.56 66.7253 111.357 68.5652 107.572 68.5652Z" fill="black"/>
<path fill-rule="evenodd" clip-rule="evenodd" d="M123.528 43.7838H117.601V68.4242H123.528V62.1514L124.222 61.5052L129.64 68.4242H136.534L128.21 57.794L136.118 50.4366H128.876L123.528 55.4131V43.7838Z" fill="black"/>
<path fill-rule="evenodd" clip-rule="evenodd" d="M137.603 59.1131V43.7838H143.777V58.7699C143.777 61.449 145.342 62.7402 147.605 62.7402C149.835 62.7402 151.432 61.3845 151.432 58.7699V43.7838H157.606V59.1131C157.606 66.1499 152.655 68.7968 147.605 68.7968C142.587 68.7968 137.603 66.1499 137.603 59.1131Z" fill="black"/>
<path fill-rule="evenodd" clip-rule="evenodd" d="M170.941 68.917C175.715 68.917 179.585 64.7249 179.585 59.5536C179.585 54.3824 175.715 50.1903 170.941 50.1903C168.996 50.1903 167.2 50.8868 165.755 52.0621V50.4367H160.076V75.8164H165.755V67.0452C167.2 68.2205 168.996 68.917 170.941 68.917ZM165.755 59.5632V59.544C165.761 57.235 167.583 55.3648 169.83 55.3648C172.081 55.3648 173.905 57.2402 173.905 59.5536C173.905 61.8671 172.081 63.7425 169.83 63.7425C167.583 63.7425 165.761 61.8723 165.755 59.5632Z" fill="black"/>
<defs>
<linearGradient id="paint0_linear_1418_10383" x1="15.4619" y1="76.7392" x2="47.3258" y2="76.7392" gradientUnits="userSpaceOnUse">
<stop stop-color="#8930FD"/>
<stop offset="1" stop-color="#49CCF9"/>
</linearGradient>
<linearGradient id="paint1_linear_1418_10383" x1="16.1562" y1="58.3423" x2="46.6867" y2="58.3423" gradientUnits="userSpaceOnUse">
<stop stop-color="#FF02F0"/>
<stop offset="1" stop-color="#FFC800"/>
</linearGradient>
</defs>
</svg>
