<svg width="194" height="113" viewBox="0 0 194 113" fill="none" xmlns="http://www.w3.org/2000/svg">
<rect width="194" height="113" fill="white"/>
<rect width="194" height="113" stroke="white"/>
<path d="M53.1962 80.6255V71.1968C62.7166 71.1968 70.1068 61.2994 66.4512 50.7954C65.1099 46.9357 62.1381 43.8204 58.4298 42.4143C48.4097 38.6098 38.9681 46.3292 38.9681 56.3093H30C30 40.4018 44.6752 27.9955 60.5864 33.2061C67.5295 35.4944 73.0787 41.284 75.2352 48.5623C80.2058 65.2418 68.3711 80.6255 53.1962 80.6255Z" fill="#0080FF"/>
<path d="M53.1962 80.6255V71.1968C62.7166 71.1968 70.1068 61.2994 66.4512 50.7954C65.1099 46.9357 62.1381 43.8204 58.4298 42.4143C48.4097 38.6098 38.9681 46.3292 38.9681 56.3093H30C30 40.4018 44.6752 27.9955 60.5864 33.2061C67.5295 35.4944 73.0787 41.284 75.2352 48.5623C80.2058 65.2418 68.3711 80.6255 53.1962 80.6255Z" stroke="white"/>
<path d="M53.2226 61.8507V71.2519H44.2545V61.8507H53.2226Z" fill="#0080FF"/>
<path d="M53.2226 61.8507V71.2519H44.2545V61.8507H53.2226Z" stroke="white"/>
<path d="M44.2542 71.252V78.4476H37.39V71.252H44.2542Z" fill="#0080FF"/>
<path d="M44.2542 71.252V78.4476H37.39V71.252H44.2542Z" stroke="white"/>
<path d="M37.3902 71.2519H31.6306V65.2142H37.3902V71.2519Z" fill="#0080FF"/>
<path d="M37.3902 71.2519H31.6306V65.2142H37.3902V71.2519Z" stroke="white"/>
<path d="M99.2574 34.8995C97.2217 33.3961 94.6309 32.6686 91.6699 32.6686H85.1928V54.2507H91.7162C94.6772 54.2507 97.268 53.4747 99.3037 51.8742C100.414 51.0497 101.293 49.8857 101.941 48.4308C102.542 46.9758 102.866 45.2298 102.866 43.3384C102.866 41.4469 102.542 39.7494 101.941 38.2945C101.293 36.8395 100.414 35.6755 99.2574 34.8995ZM88.9865 36.306H91.0222C93.2892 36.306 95.1398 36.791 96.574 37.7125C98.147 38.731 98.9335 40.6224 98.9335 43.3384C98.9335 46.1513 98.147 48.1398 96.574 49.2067C95.2323 50.1282 93.3817 50.6132 91.0685 50.6132H88.9865V36.306Z" fill="#0080FF"/>
<path d="M99.2574 34.8995C97.2217 33.3961 94.6309 32.6686 91.6699 32.6686H85.1928V54.2507H91.7162C94.6772 54.2507 97.268 53.4747 99.3037 51.8742C100.414 51.0497 101.293 49.8857 101.941 48.4308C102.542 46.9758 102.866 45.2298 102.866 43.3384C102.866 41.4469 102.542 39.7494 101.941 38.2945C101.293 36.8395 100.414 35.6755 99.2574 34.8995ZM88.9865 36.306H91.0222C93.2892 36.306 95.1398 36.791 96.574 37.7125C98.147 38.731 98.9335 40.6224 98.9335 43.3384C98.9335 46.1513 98.147 48.1398 96.574 49.2067C95.2323 50.1282 93.3817 50.6132 91.0685 50.6132H88.9865V36.306Z" stroke="white"/>
<path d="M107.354 32.3776C106.706 32.3776 106.197 32.6201 105.734 33.0566C105.318 33.493 105.087 34.0265 105.087 34.7055C105.087 35.3845 105.318 35.918 105.734 36.403C106.151 36.8395 106.706 37.082 107.354 37.082C107.955 37.082 108.51 36.8395 108.973 36.403C109.389 35.9665 109.621 35.3845 109.621 34.7055C109.621 34.0265 109.389 33.493 108.973 33.0566C108.51 32.6201 107.955 32.3776 107.354 32.3776Z" fill="#0080FF"/>
<path d="M107.354 32.3776C106.706 32.3776 106.197 32.6201 105.734 33.0566C105.318 33.493 105.087 34.0265 105.087 34.7055C105.087 35.3845 105.318 35.918 105.734 36.403C106.151 36.8395 106.706 37.082 107.354 37.082C107.955 37.082 108.51 36.8395 108.973 36.403C109.389 35.9665 109.621 35.3845 109.621 34.7055C109.621 34.0265 109.389 33.493 108.973 33.0566C108.51 32.6201 107.955 32.3776 107.354 32.3776Z" stroke="white"/>
<path d="M109.158 39.022H105.503V54.2507H109.158V39.022Z" fill="#0080FF"/>
<path d="M109.158 39.022H105.503V54.2507H109.158V39.022Z" stroke="white"/>
<path d="M122.343 40.1991C121.259 39.2299 120.086 38.6339 118.781 38.6339C116.745 38.6339 115.08 39.3614 113.784 40.8164C112.489 42.2228 111.795 44.0658 111.795 46.2968C111.795 48.4307 112.443 50.2737 113.738 51.7287C115.034 53.1351 116.745 53.8626 118.735 53.8626C120.123 53.8626 121.372 53.4746 122.343 52.6501V52.9896C122.343 54.2506 122.02 55.2206 121.372 55.8996C120.724 56.5786 119.845 56.918 118.735 56.918C117.069 56.918 116.005 56.2391 114.71 54.3961L112.211 56.918L112.258 57.015C112.813 57.791 113.599 58.567 114.71 59.2945C115.774 60.022 117.162 60.41 118.781 60.41C120.956 60.41 122.714 59.731 124.009 58.3245C125.304 56.918 125.952 55.0751 125.952 52.7956V38.9734H122.343V40.1991ZM121.464 49.3037C120.817 50.0797 119.984 50.4192 118.966 50.4192C117.902 50.4192 117.116 50.0312 116.468 49.3037C115.82 48.5277 115.543 47.5577 115.543 46.3453C115.543 45.0843 115.866 44.1143 116.468 43.3383C117.069 42.5623 117.948 42.2228 118.966 42.2228C120.03 42.2228 120.817 42.6108 121.464 43.3383C122.112 44.1143 122.436 45.1328 122.436 46.3453C122.436 47.5577 122.112 48.5277 121.464 49.3037Z" fill="#0080FF"/>
<path d="M122.343 40.1991C121.259 39.2299 120.086 38.6339 118.781 38.6339C116.745 38.6339 115.08 39.3614 113.784 40.8164C112.489 42.2228 111.795 44.0658 111.795 46.2968C111.795 48.4307 112.443 50.2737 113.738 51.7287C115.034 53.1351 116.745 53.8626 118.735 53.8626C120.123 53.8626 121.372 53.4746 122.343 52.6501V52.9896C122.343 54.2506 122.02 55.2206 121.372 55.8996C120.724 56.5786 119.845 56.918 118.735 56.918C117.069 56.918 116.005 56.2391 114.71 54.3961L112.211 56.918L112.258 57.015C112.813 57.791 113.599 58.567 114.71 59.2945C115.774 60.022 117.162 60.41 118.781 60.41C120.956 60.41 122.714 59.731 124.009 58.3245C125.304 56.918 125.952 55.0751 125.952 52.7956V38.9734H122.343V40.1991ZM121.464 49.3037C120.817 50.0797 119.984 50.4192 118.966 50.4192C117.902 50.4192 117.116 50.0312 116.468 49.3037C115.82 48.5277 115.543 47.5577 115.543 46.3453C115.543 45.0843 115.866 44.1143 116.468 43.3383C117.069 42.5623 117.948 42.2228 118.966 42.2228C120.03 42.2228 120.817 42.6108 121.464 43.3383C122.112 44.1143 122.436 45.1328 122.436 46.3453C122.436 47.5577 122.112 48.5277 121.464 49.3037Z" stroke="white"/>
<path d="M132.8 39.022H129.145V54.2507H132.8V39.022Z" fill="#0080FF"/>
<path d="M132.8 39.022H129.145V54.2507H132.8V39.022Z" stroke="white"/>
<path d="M130.995 32.3776C130.347 32.3776 129.839 32.6201 129.376 33.0566C128.959 33.493 128.728 34.0265 128.728 34.7055C128.728 35.3845 128.959 35.918 129.376 36.403C129.792 36.8395 130.347 37.082 130.995 37.082C131.597 37.082 132.152 36.8395 132.614 36.403C133.031 35.9665 133.262 35.3845 133.262 34.7055C133.262 34.0265 133.031 33.493 132.614 33.0566C132.152 32.6201 131.643 32.3776 130.995 32.3776Z" fill="#0080FF"/>
<path d="M130.995 32.3776C130.347 32.3776 129.839 32.6201 129.376 33.0566C128.959 33.493 128.728 34.0265 128.728 34.7055C128.728 35.3845 128.959 35.918 129.376 36.403C129.792 36.8395 130.347 37.082 130.995 37.082C131.597 37.082 132.152 36.8395 132.614 36.403C133.031 35.9665 133.262 35.3845 133.262 34.7055C133.262 34.0265 133.031 33.493 132.614 33.0566C132.152 32.6201 131.643 32.3776 130.995 32.3776Z" stroke="white"/>
<path d="M140.803 34.8995H137.195V39.022H135.113V42.5139H137.195V48.8188C137.195 50.8072 137.565 52.2137 138.305 53.0382C139.045 53.8627 140.387 54.2507 142.237 54.2507C142.839 54.2507 143.44 54.2507 143.996 54.2022H144.181V50.7102L142.931 50.7587C142.052 50.7587 141.497 50.6132 141.22 50.2737C140.942 49.9342 140.803 49.2553 140.803 48.2368V42.4654H144.227V38.9735H140.803V34.8995Z" fill="#0080FF"/>
<path d="M140.803 34.8995H137.195V39.022H135.113V42.5139H137.195V48.8188C137.195 50.8072 137.565 52.2137 138.305 53.0382C139.045 53.8627 140.387 54.2507 142.237 54.2507C142.839 54.2507 143.44 54.2507 143.996 54.2022H144.181V50.7102L142.931 50.7587C142.052 50.7587 141.497 50.6132 141.22 50.2737C140.942 49.9342 140.803 49.2553 140.803 48.2368V42.4654H144.227V38.9735H140.803V34.8995Z" stroke="white"/>
<path d="M165 32.62H161.345V54.2506H165V32.62Z" fill="#0080FF"/>
<path d="M165 32.62H161.345V54.2506H165V32.62Z" stroke="white"/>
<path d="M156.765 40.186C155.655 39.216 154.128 38.6825 152.231 38.6825C151.028 38.6825 149.872 38.9735 148.854 39.507C147.882 39.992 146.957 40.865 146.355 41.9319L146.402 41.9804L148.761 44.3084C149.733 42.7079 150.797 42.1259 152.231 42.1259C153.018 42.1259 153.619 42.3199 154.128 42.7564C154.591 43.1929 154.868 43.7264 154.868 44.4054V45.1329C153.943 44.8419 153.064 44.6964 152.185 44.6964C150.381 44.6964 148.9 45.1329 147.79 46.0059C146.679 46.8788 146.124 48.1883 146.124 49.8373C146.124 51.2922 146.587 52.4077 147.558 53.2807C148.53 54.1052 149.687 54.5417 151.074 54.5417C152.462 54.5417 153.758 53.9597 154.961 52.9412V54.2022H158.569V44.4054C158.431 42.6109 157.875 41.1559 156.765 40.186ZM150.288 48.4308C150.704 48.1398 151.306 47.9943 152.046 47.9943C152.925 47.9943 153.85 48.1883 154.822 48.5278V50.0313C154.035 50.8073 152.971 51.1952 151.676 51.1952C151.028 51.1952 150.566 51.0498 150.195 50.7588C149.872 50.4678 149.687 50.1283 149.687 49.6433C149.687 49.1098 149.872 48.7218 150.288 48.4308Z" fill="#0080FF"/>
<path d="M156.765 40.186C155.655 39.216 154.128 38.6825 152.231 38.6825C151.028 38.6825 149.872 38.9735 148.854 39.507C147.882 39.992 146.957 40.865 146.355 41.9319L146.402 41.9804L148.761 44.3084C149.733 42.7079 150.797 42.1259 152.231 42.1259C153.018 42.1259 153.619 42.3199 154.128 42.7564C154.591 43.1929 154.868 43.7264 154.868 44.4054V45.1329C153.943 44.8419 153.064 44.6964 152.185 44.6964C150.381 44.6964 148.9 45.1329 147.79 46.0059C146.679 46.8788 146.124 48.1883 146.124 49.8373C146.124 51.2922 146.587 52.4077 147.558 53.2807C148.53 54.1052 149.687 54.5417 151.074 54.5417C152.462 54.5417 153.758 53.9597 154.961 52.9412V54.2022H158.569V44.4054C158.431 42.6109 157.875 41.1559 156.765 40.186ZM150.288 48.4308C150.704 48.1398 151.306 47.9943 152.046 47.9943C152.925 47.9943 153.85 48.1883 154.822 48.5278V50.0313C154.035 50.8073 152.971 51.1952 151.676 51.1952C151.028 51.1952 150.566 51.0498 150.195 50.7588C149.872 50.4678 149.687 50.1283 149.687 49.6433C149.687 49.1098 149.872 48.7218 150.288 48.4308Z" stroke="white"/>
<path d="M117.833 75.1802C117.186 75.9562 116.492 76.6352 115.983 76.9747C115.474 77.3142 114.826 77.5082 114.086 77.5082C113.022 77.5082 112.143 77.1202 111.449 76.2472C110.755 75.4227 110.385 74.3072 110.385 73.0462C110.385 71.7368 110.755 70.6698 111.449 69.8453C112.143 69.0208 113.022 68.5843 114.086 68.5843C115.243 68.5843 116.492 69.3603 117.556 70.6698L119.962 68.2448C118.389 66.1109 116.399 65.0924 113.993 65.0924C112.004 65.0924 110.246 65.8684 108.812 67.3719C107.377 68.8753 106.683 70.7668 106.683 73.0462C106.683 75.3257 107.424 77.2172 108.812 78.7206C110.246 80.2241 111.958 81.0001 113.993 81.0001C116.63 81.0001 118.759 79.7876 120.239 77.6052L117.833 75.1802Z" fill="#0080FF"/>
<path d="M117.833 75.1802C117.186 75.9562 116.492 76.6352 115.983 76.9747C115.474 77.3142 114.826 77.5082 114.086 77.5082C113.022 77.5082 112.143 77.1202 111.449 76.2472C110.755 75.4227 110.385 74.3072 110.385 73.0462C110.385 71.7368 110.755 70.6698 111.449 69.8453C112.143 69.0208 113.022 68.5843 114.086 68.5843C115.243 68.5843 116.492 69.3603 117.556 70.6698L119.962 68.2448C118.389 66.1109 116.399 65.0924 113.993 65.0924C112.004 65.0924 110.246 65.8684 108.812 67.3719C107.377 68.8753 106.683 70.7668 106.683 73.0462C106.683 75.3257 107.424 77.2172 108.812 78.7206C110.246 80.2241 111.958 81.0001 113.993 81.0001C116.63 81.0001 118.759 79.7876 120.239 77.6052L117.833 75.1802Z" stroke="white"/>
<path d="M132.87 67.5173C132.361 66.7413 131.667 66.1593 130.788 65.7228C129.909 65.2863 128.891 65.0438 127.781 65.0438C125.745 65.0438 124.079 65.8198 122.83 67.3718C121.627 68.9237 120.98 70.8152 120.98 73.0947C120.98 75.4226 121.674 77.3141 122.969 78.7691C124.311 80.224 126.069 80.9515 128.243 80.9515C130.695 80.9515 132.731 79.8845 134.258 77.8476L134.35 77.7506L131.944 75.3256C131.79 75.5196 131.595 75.7136 131.4 75.9076C131.302 76.0046 131.204 76.1016 131.112 76.1986C130.742 76.5381 130.418 76.8291 130.048 77.0231C129.492 77.3141 128.891 77.4596 128.197 77.4596C127.179 77.4596 126.346 77.1686 125.699 76.5381C125.097 75.9561 124.727 75.1801 124.635 74.2101H134.304L134.35 72.8037C134.35 71.8337 134.211 70.8637 133.98 69.9907C133.749 69.1177 133.379 68.2933 132.87 67.5173ZM124.866 71.1062C125.051 70.3787 125.375 69.7482 125.837 69.3117C126.346 68.7782 126.994 68.5358 127.734 68.5358C128.613 68.5358 129.307 68.7782 129.77 69.3117C130.186 69.7967 130.464 70.3787 130.51 71.1062H124.866Z" fill="#0080FF"/>
<path d="M132.87 67.5173C132.361 66.7413 131.667 66.1593 130.788 65.7228C129.909 65.2863 128.891 65.0438 127.781 65.0438C125.745 65.0438 124.079 65.8198 122.83 67.3718C121.627 68.9237 120.98 70.8152 120.98 73.0947C120.98 75.4226 121.674 77.3141 122.969 78.7691C124.311 80.224 126.069 80.9515 128.243 80.9515C130.695 80.9515 132.731 79.8845 134.258 77.8476L134.35 77.7506L131.944 75.3256C131.79 75.5196 131.595 75.7136 131.4 75.9076C131.302 76.0046 131.204 76.1016 131.112 76.1986C130.742 76.5381 130.418 76.8291 130.048 77.0231C129.492 77.3141 128.891 77.4596 128.197 77.4596C127.179 77.4596 126.346 77.1686 125.699 76.5381C125.097 75.9561 124.727 75.1801 124.635 74.2101H134.304L134.35 72.8037C134.35 71.8337 134.211 70.8637 133.98 69.9907C133.749 69.1177 133.379 68.2933 132.87 67.5173ZM124.866 71.1062C125.051 70.3787 125.375 69.7482 125.837 69.3117C126.346 68.7782 126.994 68.5358 127.734 68.5358C128.613 68.5358 129.307 68.7782 129.77 69.3117C130.186 69.7967 130.464 70.3787 130.51 71.1062H124.866Z" stroke="white"/>
<path d="M146.888 66.5473C145.778 65.5773 144.251 65.0438 142.354 65.0438C141.151 65.0438 139.995 65.3348 138.977 65.8683C138.005 66.3533 137.08 67.2263 136.478 68.2933L136.525 68.3418L138.884 70.6697C139.856 69.0692 140.92 68.4873 142.354 68.4873C143.141 68.4873 143.742 68.6813 144.251 69.1177C144.714 69.5542 144.991 70.0877 144.991 70.7667V71.4942C144.066 71.2032 143.187 71.0577 142.308 71.0577C140.504 71.0577 139.023 71.4942 137.913 72.3672C136.802 73.2402 136.247 74.5496 136.247 76.1986C136.247 77.6536 136.71 78.7691 137.681 79.642C138.653 80.4665 139.81 80.903 141.197 80.903C142.585 80.903 143.881 80.321 145.084 79.3025V80.5635H148.692V70.7667C148.554 68.9722 147.998 67.5173 146.888 66.5473ZM140.411 74.7921C140.827 74.5011 141.429 74.3556 142.169 74.3556C143.048 74.3556 143.973 74.5496 144.945 74.8891V76.3926C144.158 77.1686 143.094 77.5566 141.799 77.5566C141.151 77.5566 140.689 77.4111 140.318 77.1201C139.995 76.8291 139.81 76.4896 139.81 76.0046C139.81 75.4711 139.995 75.0831 140.411 74.7921Z" fill="#0080FF"/>
<path d="M146.888 66.5473C145.778 65.5773 144.251 65.0438 142.354 65.0438C141.151 65.0438 139.995 65.3348 138.977 65.8683C138.005 66.3533 137.08 67.2263 136.478 68.2933L136.525 68.3418L138.884 70.6697C139.856 69.0692 140.92 68.4873 142.354 68.4873C143.141 68.4873 143.742 68.6813 144.251 69.1177C144.714 69.5542 144.991 70.0877 144.991 70.7667V71.4942C144.066 71.2032 143.187 71.0577 142.308 71.0577C140.504 71.0577 139.023 71.4942 137.913 72.3672C136.802 73.2402 136.247 74.5496 136.247 76.1986C136.247 77.6536 136.71 78.7691 137.681 79.642C138.653 80.4665 139.81 80.903 141.197 80.903C142.585 80.903 143.881 80.321 145.084 79.3025V80.5635H148.692V70.7667C148.554 68.9722 147.998 67.5173 146.888 66.5473ZM140.411 74.7921C140.827 74.5011 141.429 74.3556 142.169 74.3556C143.048 74.3556 143.973 74.5496 144.945 74.8891V76.3926C144.158 77.1686 143.094 77.5566 141.799 77.5566C141.151 77.5566 140.689 77.4111 140.318 77.1201C139.995 76.8291 139.81 76.4896 139.81 76.0046C139.81 75.4711 139.995 75.0831 140.411 74.7921Z" stroke="white"/>
<path d="M162.618 66.8383C161.6 65.6258 160.166 65.0438 158.362 65.0438C156.928 65.0438 155.725 65.4803 154.846 66.3533V65.4318H151.283V80.612H154.938V72.2217C154.938 71.0577 155.216 70.1362 155.725 69.5057C156.234 68.8752 156.928 68.5358 157.899 68.5358C158.732 68.5358 159.333 68.8267 159.796 69.4087C160.259 69.9907 160.49 70.8152 160.49 71.7852V80.612H164.145V71.7852C164.145 69.6997 163.636 68.0023 162.618 66.8383Z" fill="#0080FF"/>
<path d="M162.618 66.8383C161.6 65.6258 160.166 65.0438 158.362 65.0438C156.928 65.0438 155.725 65.4803 154.846 66.3533V65.4318H151.283V80.612H154.938V72.2217C154.938 71.0577 155.216 70.1362 155.725 69.5057C156.234 68.8752 156.928 68.5358 157.899 68.5358C158.732 68.5358 159.333 68.8267 159.796 69.4087C160.259 69.9907 160.49 70.8152 160.49 71.7852V80.612H164.145V71.7852C164.145 69.6997 163.636 68.0023 162.618 66.8383Z" stroke="white"/>
<path d="M94.1918 80.9515C88.3161 80.9515 83.5508 75.9561 83.5508 69.7968C83.5508 63.6374 88.3161 58.642 94.1918 58.642C100.067 58.642 104.833 63.6374 104.833 69.7968C104.833 75.9561 100.067 80.9515 94.1918 80.9515ZM94.1918 62.5704C90.3981 62.5704 87.2983 65.8198 87.2983 69.7968C87.2983 73.7737 90.3981 77.0231 94.1918 77.0231C97.9856 77.0231 101.085 73.7737 101.085 69.7968C101.085 65.8198 97.9856 62.5704 94.1918 62.5704Z" fill="#0080FF"/>
<path d="M94.1918 80.9515C88.3161 80.9515 83.5508 75.9561 83.5508 69.7968C83.5508 63.6374 88.3161 58.642 94.1918 58.642C100.067 58.642 104.833 63.6374 104.833 69.7968C104.833 75.9561 100.067 80.9515 94.1918 80.9515ZM94.1918 62.5704C90.3981 62.5704 87.2983 65.8198 87.2983 69.7968C87.2983 73.7737 90.3981 77.0231 94.1918 77.0231C97.9856 77.0231 101.085 73.7737 101.085 69.7968C101.085 65.8198 97.9856 62.5704 94.1918 62.5704Z" stroke="white"/>
</svg>
