<svg width="194" height="113" viewBox="0 0 194 113" fill="none" xmlns="http://www.w3.org/2000/svg">
<rect x="0.5" y="0.5" width="193" height="112" fill="white" stroke="#A0AEC0"/>
<path d="M75.1374 48.5913L75.1374 48.5915C80.0787 65.1726 68.3512 80.4544 53.2983 80.5232V71.2985C62.8441 71.2281 70.2117 61.2902 66.5476 50.7619C65.1968 46.8749 62.2037 43.7361 58.466 42.3189C48.4049 38.4988 38.9305 46.2144 38.8664 56.2073H30.1023C30.1649 40.4093 44.7516 28.128 60.5546 33.3031C67.4647 35.5806 72.99 41.3439 75.1374 48.5913Z" fill="#0080FF" stroke="#A0AEC0" stroke-width="0.204124"/>
<path d="M53.1205 61.9528V71.1499H44.3565V61.9528H53.1205Z" fill="#0080FF" stroke="#A0AEC0" stroke-width="0.204124"/>
<path d="M44.1523 71.354V78.3455H37.4922V71.354H44.1523Z" fill="#0080FF" stroke="#A0AEC0" stroke-width="0.204124"/>
<path d="M37.2882 71.1499H31.7327V65.3163H37.2882V71.1499Z" fill="#0080FF" stroke="#A0AEC0" stroke-width="0.204124"/>
<path d="M98.9642 35.2962L98.9732 35.3029L98.9824 35.3091C100.041 36.0194 100.867 37.0978 101.487 38.489C102.059 39.8752 102.373 41.5054 102.373 43.3383C102.373 45.1731 102.059 46.8512 101.487 48.2361C100.868 49.626 100.038 50.7145 99.0095 51.4781L99.0093 51.478L98.9986 51.4864C97.067 53.0051 94.5903 53.7573 91.716 53.7573H85.6859V33.1618H91.6697C94.5509 33.1618 97.0319 33.8691 98.9642 35.2962ZM88.9864 35.8127H88.4931V36.3059V50.6132V51.1064H88.9864H91.0683C93.4441 51.1064 95.4025 50.6091 96.8519 49.6141C98.6184 48.4152 99.4266 46.227 99.4266 43.3383C99.4266 40.5382 98.6132 38.4452 96.8419 37.2984L96.8405 37.2974C95.3076 36.3125 93.3579 35.8127 91.022 35.8127H88.9864Z" fill="#0080FF" stroke="#A0AEC0" stroke-width="0.986493"/>
<path d="M105.58 34.7055C105.58 34.1596 105.758 33.7501 106.082 33.4063C106.467 33.0469 106.857 32.8708 107.354 32.8708C107.81 32.8708 108.244 33.0508 108.625 33.4063C108.949 33.7502 109.127 34.1597 109.127 34.7055C109.127 35.2618 108.942 35.7159 108.625 36.0532C108.244 36.4087 107.81 36.5887 107.354 36.5887C106.843 36.5887 106.42 36.4029 106.1 36.0716C105.756 35.6678 105.58 35.248 105.58 34.7055Z" fill="#0080FF" stroke="#A0AEC0" stroke-width="0.986493"/>
<path d="M105.996 53.7573V39.5151H108.665V53.7573H105.996Z" fill="#0080FF" stroke="#A0AEC0" stroke-width="0.986493"/>
<path d="M122.436 40.7761H123.703L122.837 39.9811V39.4666H125.459V52.7956C125.459 54.9765 124.842 56.6919 123.646 57.9903C122.461 59.277 120.845 59.9167 118.781 59.9167C117.239 59.9167 115.953 59.5472 114.988 58.8873L114.988 58.8872L114.98 58.8819C114.038 58.2649 113.35 57.6187 112.846 56.9779L114.653 55.1536C115.195 55.8595 115.73 56.3943 116.321 56.7657C117.05 57.2241 117.827 57.4113 118.735 57.4113C119.953 57.4113 120.971 57.0344 121.729 56.24C122.491 55.4414 122.837 54.3328 122.837 52.9896V52.6501V51.5846L122.024 52.274C121.159 53.0084 120.03 53.3693 118.735 53.3693C116.877 53.3693 115.301 52.6954 114.104 51.3975C112.9 50.0444 112.288 48.3238 112.288 46.2967C112.288 44.1744 112.945 42.4553 114.147 41.1505L114.147 41.1506L114.153 41.1443C115.35 39.7997 116.879 39.1271 118.781 39.1271C119.862 39.1271 120.872 39.5926 121.85 40.4235V40.7761H122.343H122.436ZM116.089 49.6198L116.094 49.6258L116.099 49.6317C116.837 50.4602 117.756 50.9124 118.966 50.9124C120.111 50.9124 121.09 50.522 121.843 49.6198C122.577 48.74 122.929 47.652 122.929 46.3452C122.929 45.044 122.58 43.9055 121.843 43.0222L121.838 43.0162L121.833 43.0103C121.095 42.1818 120.176 41.7296 118.966 41.7296C117.833 41.7296 116.794 42.1127 116.078 43.0361C115.399 43.912 115.049 44.9931 115.049 46.3452C115.049 47.6354 115.346 48.7298 116.089 49.6198Z" fill="#0080FF" stroke="#A0AEC0" stroke-width="0.986493"/>
<path d="M129.638 53.7573V39.5151H132.306V53.7573H129.638Z" fill="#0080FF" stroke="#A0AEC0" stroke-width="0.986493"/>
<path d="M129.221 34.7055C129.221 34.1596 129.4 33.7501 129.724 33.4063C130.108 33.0469 130.498 32.8708 130.995 32.8708C131.492 32.8708 131.882 33.0469 132.266 33.4063C132.59 33.7501 132.769 34.1596 132.769 34.7055C132.769 35.2618 132.584 35.7159 132.266 36.0532C131.885 36.4087 131.451 36.5887 130.995 36.5887C130.484 36.5887 130.062 36.4029 129.741 36.0716C129.398 35.6678 129.221 35.248 129.221 34.7055Z" fill="#0080FF" stroke="#A0AEC0" stroke-width="0.986493"/>
<path d="M137.194 42.0206H135.606V39.5151H137.194H137.688V39.0219V35.3927H140.31V38.9734V39.4666H140.803H143.734V41.9721H140.803H140.31V42.4653V48.2367C140.31 48.7652 140.346 49.2253 140.424 49.6086C140.501 49.9855 140.627 50.3285 140.838 50.5859C141.06 50.8584 141.371 51.0223 141.718 51.1187C142.062 51.2143 142.47 51.2519 142.931 51.2519H142.941L142.951 51.2515L143.687 51.2229V53.73C143.232 53.7571 142.744 53.7573 142.237 53.7573C140.424 53.7573 139.267 53.3714 138.672 52.7086C138.057 52.0233 137.688 50.7726 137.688 48.8187V42.5138V42.0206H137.194Z" fill="#0080FF" stroke="#A0AEC0" stroke-width="0.986493"/>
<path d="M161.838 53.7573V33.1132H164.507V53.7573H161.838Z" fill="#0080FF" stroke="#A0AEC0" stroke-width="0.986493"/>
<path d="M149.074 39.9482L149.074 39.9483L149.083 39.9438C150.03 39.4473 151.108 39.1756 152.231 39.1756C154.034 39.1756 155.438 39.6812 156.44 40.5573L156.765 40.1859L156.44 40.5573C157.415 41.409 157.941 42.7135 158.076 44.4246V53.7088H155.454V52.9411V51.8772L154.642 52.5647C153.501 53.5305 152.315 54.0483 151.074 54.0483C149.804 54.0483 148.762 53.6534 147.883 52.9091C147.032 52.1421 146.617 51.1681 146.617 49.8372C146.617 48.3055 147.127 47.1538 148.094 46.3935L147.79 46.0058L148.094 46.3935C149.095 45.6067 150.458 45.1895 152.185 45.1895C153.007 45.1895 153.836 45.3254 154.72 45.6033L155.361 45.8049V45.1328V44.4053C155.361 43.5703 155.012 42.9124 154.466 42.3975L154.458 42.3895L154.449 42.3819C153.833 41.8532 153.109 41.6326 152.231 41.6326C151.443 41.6326 150.725 41.7937 150.066 42.1957C149.553 42.5081 149.099 42.9521 148.68 43.5354L146.978 41.8565C147.528 41.0173 148.291 40.339 149.074 39.9482ZM155.315 48.5277V48.1776L154.985 48.0621C153.978 47.7105 152.996 47.501 152.046 47.501C151.253 47.501 150.537 47.6551 150.005 48.0264L150.288 48.4307L150.005 48.0264C149.738 48.213 149.528 48.4439 149.388 48.7285C149.25 49.0108 149.193 49.3191 149.193 49.6432C149.193 50.2861 149.452 50.7537 149.866 51.1256L149.878 51.1364L149.89 51.1464C150.369 51.5228 150.949 51.6884 151.676 51.6884C153.074 51.6884 154.272 51.2666 155.168 50.3823L155.315 50.2374V50.0312V48.5277Z" fill="#0080FF" stroke="#A0AEC0" stroke-width="0.986493"/>
<path d="M111.071 69.5276L111.071 69.5276C110.291 70.4542 109.891 71.639 109.891 73.0462C109.891 74.3996 110.288 75.6317 111.067 76.5594C111.859 77.5526 112.882 78.0013 114.086 78.0013C114.912 78.0013 115.658 77.7843 116.256 77.3849C116.723 77.0733 117.301 76.5291 117.858 75.9057L119.596 77.6576C118.217 79.5046 116.321 80.5068 113.993 80.5068C112.103 80.5068 110.518 79.7937 109.171 78.383C107.874 76.9764 107.177 75.2075 107.177 73.0462C107.177 70.8761 107.833 69.1121 109.168 67.7122L109.168 67.7122C110.515 66.301 112.146 65.5856 113.993 65.5856C116.104 65.5856 117.866 66.4173 119.307 68.2038L117.58 69.9444C116.542 68.8162 115.312 68.091 114.086 68.091C112.866 68.091 111.852 68.5998 111.071 69.5276Z" fill="#0080FF" stroke="#A0AEC0" stroke-width="0.986493"/>
<path d="M132.457 67.7878L132.87 67.5173L132.457 67.7878C132.938 68.5207 133.286 69.2967 133.503 70.1171C133.724 70.9492 133.856 71.8737 133.857 72.7956L133.827 73.7169H124.634H124.092L124.143 74.257C124.246 75.3322 124.662 76.2206 125.354 76.8915C126.112 77.6291 127.078 77.9528 128.197 77.9528C128.965 77.9528 129.646 77.7906 130.276 77.46C130.713 77.2312 131.083 76.8945 131.445 76.5621L131.457 76.551L131.468 76.5391C131.541 76.4632 131.626 76.378 131.718 76.2875C131.796 76.2091 131.879 76.1267 131.961 76.0428L133.685 77.7809C132.269 79.5512 130.437 80.4583 128.243 80.4583C126.193 80.4583 124.573 79.7788 123.334 78.4378C122.132 77.0853 121.473 75.3165 121.473 73.0947C121.473 70.9174 122.088 69.1356 123.217 67.6775C124.369 66.2487 125.89 65.5371 127.78 65.5371C128.818 65.5371 129.761 65.7636 130.568 66.1646C131.38 66.5676 132.003 67.0947 132.457 67.7878ZM124.388 70.9846L124.231 71.5995H124.866H130.51H131.036L131.002 71.0749C130.949 70.2283 130.622 69.5469 130.144 68.9904L130.143 68.9886C129.555 68.3113 128.701 68.0425 127.734 68.0425C126.881 68.0425 126.101 68.3255 125.489 68.9619C124.945 69.4799 124.587 70.2002 124.388 70.9846Z" fill="#0080FF" stroke="#A0AEC0" stroke-width="0.986493"/>
<path d="M139.197 66.3096L139.197 66.3097L139.206 66.3052C140.153 65.8088 141.231 65.5371 142.354 65.5371C144.157 65.5371 145.561 66.0426 146.564 66.9188C147.538 67.7704 148.064 69.075 148.199 70.786V80.0703H145.577V79.3025V78.2386L144.765 78.9261C143.624 79.892 142.438 80.4098 141.197 80.4098C139.927 80.4098 138.885 80.0149 138.006 79.2705C137.155 78.5035 136.74 77.5295 136.74 76.1986C136.74 74.6669 137.25 73.5152 138.217 72.7549C139.218 71.9681 140.581 71.5509 142.308 71.5509C143.13 71.5509 143.96 71.6868 144.843 71.9647L145.484 72.1664V71.4942V70.7667C145.484 69.9318 145.135 69.2738 144.589 68.759L144.581 68.751L144.572 68.7433C143.956 68.2147 143.232 67.994 142.354 67.994C141.566 67.994 140.848 68.1551 140.189 68.5572C139.677 68.8695 139.222 69.3135 138.803 69.8968L137.101 68.2179C137.651 67.3787 138.414 66.7005 139.197 66.3096ZM145.438 74.8891V74.539L145.108 74.4235C144.101 74.0719 143.119 73.8624 142.169 73.8624C141.376 73.8624 140.66 74.0165 140.128 74.3878C139.861 74.5745 139.651 74.8053 139.511 75.0899C139.373 75.3722 139.316 75.6806 139.316 76.0046C139.316 76.6475 139.575 77.1151 139.989 77.487L140.001 77.4978L140.014 77.5078C140.492 77.8842 141.072 78.0498 141.799 78.0498C143.197 78.0498 144.395 77.628 145.291 76.7437L145.438 76.5989V76.3926V74.8891Z" fill="#0080FF" stroke="#A0AEC0" stroke-width="0.986493"/>
<path d="M162.24 67.1554L162.24 67.1555L162.247 67.163C163.16 68.207 163.652 69.7721 163.652 71.7852V80.1188H160.983V71.7852C160.983 70.7446 160.736 69.7984 160.182 69.1018L159.796 69.4087L160.182 69.1018C159.62 68.3945 158.872 68.0425 157.899 68.0425C156.792 68.0425 155.951 68.4396 155.341 69.1959L155.341 69.1959C154.739 69.9416 154.445 70.9863 154.445 72.2217V80.1188H151.776V65.9251H154.352V66.3533V67.5383L155.193 66.7033C155.962 65.9396 157.031 65.5371 158.362 65.5371C160.051 65.5371 161.334 66.0762 162.24 67.1554Z" fill="#0080FF" stroke="#A0AEC0" stroke-width="0.986493"/>
<path d="M94.1918 80.4583C88.6102 80.4583 84.044 75.7059 84.044 69.7967C84.044 63.8876 88.6102 59.1352 94.1918 59.1352C99.7734 59.1352 104.34 63.8876 104.34 69.7967C104.34 75.7059 99.7734 80.4583 94.1918 80.4583ZM94.1918 62.0771C90.104 62.0771 86.805 65.5696 86.805 69.7967C86.805 74.0239 90.104 77.5163 94.1918 77.5163C98.2796 77.5163 101.579 74.0239 101.579 69.7967C101.579 65.5696 98.2796 62.0771 94.1918 62.0771Z" fill="#0080FF" stroke="#A0AEC0" stroke-width="0.986493"/>
</svg>
