<svg width="64" height="64" viewBox="0 0 512 512" fill="none" xmlns="http://www.w3.org/2000/svg">
<circle cx="256" cy="256" r="256" fill="white"/>
<circle cx="256.5" cy="255.5" r="229.5" stroke="black" stroke-width="10"/>
<g clip-path="url(#clip0_1141_10102)">
<path d="M392.898 243.901C402.537 243.665 410.174 237.804 414.279 226.984C415.723 223.178 413.808 218.922 410.001 217.478C400.475 213.864 393.76 199.445 387.266 185.499L387.265 185.495C379.99 169.869 372.468 153.712 358.886 148.56C347.114 144.094 334.655 143.136 322.223 142.181L321.976 142.162C321.987 142.098 321.979 141.949 321.966 141.73C321.872 140.09 321.554 134.541 327.808 132.071C330.75 130.908 333.512 130.09 336.545 129.448C345.631 127.919 357.858 120.365 355.965 105.127C354.054 89.7623 340.88 84.9557 332.461 85.4757C317.834 86.4465 291.164 95.4777 281.5 121.822C274.559 114.159 266.612 105.673 253.989 100.884C240.105 95.6174 223.781 104.191 206.497 113.269C192.502 120.62 176.636 128.952 167.41 125.452C163.603 124.008 159.348 125.923 157.904 129.729C153.799 140.549 155.628 150.001 162.685 156.57C145.84 169.56 132.923 187.269 124.652 209.073C107.845 253.377 125.883 317.042 134.418 342.357C147.793 382.029 170.034 425.376 189.574 432.788C209.113 440.2 254.508 422.511 290.83 401.691C314.008 388.407 369.733 352.723 386.54 308.419C394.811 286.616 396.89 264.794 392.898 243.901ZM333.348 100.193C336.025 100.11 340.583 100.887 341.334 106.946C342.087 112.988 336.31 114.562 333.858 114.947C333.843 114.949 333.829 114.951 333.815 114.954C333.801 114.956 333.787 114.959 333.773 114.961C320.562 116.9 309.098 124.965 307.567 138.931C307.123 142.975 303.48 145.905 299.449 145.466C295.448 145.029 292.509 141.34 292.948 137.349C295.958 109.916 320.676 101.053 333.348 100.193ZM213.354 126.319L213.388 126.301C226.377 119.482 241.089 111.757 248.76 114.668C258.492 118.359 264.7 125.224 271.274 132.492L271.279 132.498C271.418 132.651 271.558 132.804 271.698 132.958C271.906 133.186 272.115 133.415 272.322 133.645C267.679 136.143 262.387 139.955 257.852 145.7C255.327 148.896 255.872 153.531 259.067 156.052C262.154 158.492 266.908 158.016 269.42 154.837C272.656 150.737 276.501 148.078 279.752 146.386C281.217 150.039 283.652 153.257 286.81 155.681L283.859 163.458C282.415 167.265 284.33 171.521 288.137 172.965C291.943 174.409 296.199 172.494 297.643 168.687L300.848 160.239C304.388 160.144 307.757 159.202 310.739 157.586C313.025 161.779 315.368 167.651 315.023 173.713C314.801 177.586 318.069 181.271 321.964 181.492C326.028 181.721 329.51 178.614 329.74 174.55C330.097 168.252 328.716 162.321 326.785 157.28C335.53 157.891 343.93 158.657 353.656 162.346C361.633 165.372 367.869 178.765 373.9 191.717L373.901 191.718C380.26 205.38 386.798 219.424 397.333 227.177C394.804 229.704 391.409 229.829 386.337 227.905C366.744 220.473 345.301 191.463 344.815 190.804L344.808 190.795C342.835 188.088 339.286 187.053 336.169 188.272C334.955 188.745 328.721 191.621 325.022 201.72C321.626 210.998 321.323 223.626 324.104 239.357C318.149 237.641 310.574 234.336 304.715 228.008C297.582 220.307 294.242 209.506 294.796 195.911C294.923 192.741 293.011 189.845 290.044 188.719C275.213 183.093 260.307 187.552 246.941 201.614C243.192 205.557 240.093 209.724 237.716 213.309C230.097 203.213 226.635 193.52 227.42 184.413C228.625 170.433 239.732 161.942 239.827 161.87L239.828 161.869C242.64 159.814 243.627 156.068 242.196 152.892C240.811 149.82 237.291 147.976 233.898 148.722C223.971 150.896 194.616 155.176 178.205 148.951C173.068 147.002 170.612 144.62 170.452 140.975C183.907 141.786 198.836 133.946 213.354 126.319ZM283.499 388.902C242.161 412.595 205.272 422.976 194.802 419.004C184.333 415.033 163.61 382.797 148.387 337.648C131.667 288.06 127.948 241.947 138.435 214.301C146.655 192.633 160.297 175.733 177.629 164.229C190.291 167.689 205.792 167.269 217.802 166.054C215.341 170.731 213.356 176.368 212.754 182.89C211.301 198.719 218.272 214.925 233.482 231.064C236.922 234.715 243.297 233.823 245.505 229.17C245.66 228.844 260.125 198.911 280.031 201.313C280.496 216.25 285.15 228.581 293.899 238.028C309.491 254.863 332.341 255.872 333.306 255.908C337.968 256.079 341.863 251.453 340.736 246.803C335.543 225.414 336.623 213.176 338.786 206.938C346.618 216.343 361.244 232.136 376.634 239.73C381.971 259.831 380.975 281.524 372.756 303.19C362.269 330.836 328.902 362.88 283.499 388.902Z" fill="black"/>
<path d="M392.898 243.901C402.537 243.665 410.174 237.804 414.279 226.984C415.723 223.178 413.808 218.922 410.001 217.478C400.475 213.864 393.76 199.445 387.266 185.499L387.265 185.495C379.99 169.869 372.468 153.712 358.886 148.56C347.114 144.094 334.655 143.136 322.223 142.181L321.976 142.162C321.987 142.098 321.979 141.949 321.966 141.73C321.872 140.09 321.554 134.541 327.808 132.071C330.75 130.908 333.512 130.09 336.545 129.448C345.631 127.919 357.858 120.365 355.965 105.127C354.054 89.7623 340.88 84.9557 332.461 85.4757C317.834 86.4465 291.164 95.4777 281.5 121.822C274.559 114.159 266.612 105.673 253.989 100.884C240.105 95.6174 223.781 104.191 206.497 113.269C192.502 120.62 176.636 128.952 167.41 125.452C163.603 124.008 159.348 125.923 157.904 129.729C153.799 140.549 155.628 150.001 162.685 156.57C145.84 169.56 132.923 187.269 124.652 209.073C107.845 253.377 125.883 317.042 134.418 342.357C147.793 382.029 170.034 425.376 189.574 432.788C209.113 440.2 254.508 422.511 290.83 401.691C314.008 388.407 369.733 352.723 386.54 308.419C394.811 286.616 396.89 264.794 392.898 243.901ZM333.348 100.193C336.025 100.11 340.583 100.887 341.334 106.946C342.087 112.988 336.31 114.562 333.858 114.947C333.843 114.949 333.829 114.951 333.815 114.954C333.801 114.956 333.787 114.959 333.773 114.961C320.562 116.9 309.098 124.965 307.567 138.931C307.123 142.975 303.48 145.905 299.449 145.466C295.448 145.029 292.509 141.34 292.948 137.349C295.958 109.916 320.676 101.053 333.348 100.193ZM213.354 126.319L213.388 126.301C226.377 119.482 241.089 111.757 248.76 114.668C258.492 118.359 264.7 125.224 271.274 132.492L271.279 132.498C271.418 132.651 271.558 132.804 271.698 132.958C271.906 133.186 272.115 133.415 272.322 133.645C267.679 136.143 262.387 139.955 257.852 145.7C255.327 148.896 255.872 153.531 259.067 156.052C262.154 158.492 266.908 158.016 269.42 154.837C272.656 150.737 276.501 148.078 279.752 146.386C281.217 150.039 283.652 153.257 286.81 155.681L283.859 163.458C282.415 167.265 284.33 171.521 288.137 172.965C291.943 174.409 296.199 172.494 297.643 168.687L300.848 160.239C304.388 160.144 307.757 159.202 310.739 157.586C313.025 161.779 315.368 167.651 315.023 173.713C314.801 177.586 318.069 181.271 321.964 181.492C326.028 181.721 329.51 178.614 329.74 174.55C330.097 168.252 328.716 162.321 326.785 157.28C335.53 157.891 343.93 158.657 353.656 162.346C361.633 165.372 367.869 178.765 373.9 191.717L373.901 191.718C380.26 205.38 386.798 219.424 397.333 227.177C394.804 229.704 391.409 229.829 386.337 227.905C366.744 220.473 345.301 191.463 344.815 190.804L344.808 190.795C342.835 188.088 339.286 187.053 336.169 188.272C334.955 188.745 328.721 191.621 325.022 201.72C321.626 210.998 321.323 223.626 324.104 239.357C318.149 237.641 310.574 234.336 304.715 228.008C297.582 220.307 294.242 209.506 294.796 195.911C294.923 192.741 293.011 189.845 290.044 188.719C275.213 183.093 260.307 187.552 246.941 201.614C243.192 205.557 240.093 209.724 237.716 213.309C230.097 203.213 226.635 193.52 227.42 184.413C228.625 170.433 239.732 161.942 239.827 161.87L239.828 161.869C242.64 159.814 243.627 156.068 242.196 152.892C240.811 149.82 237.291 147.976 233.898 148.722C223.971 150.896 194.616 155.176 178.205 148.951C173.068 147.002 170.612 144.62 170.452 140.975C183.907 141.786 198.836 133.946 213.354 126.319ZM283.499 388.902C242.161 412.595 205.272 422.976 194.802 419.004C184.333 415.033 163.61 382.797 148.387 337.648C131.667 288.06 127.948 241.947 138.435 214.301C146.655 192.633 160.297 175.733 177.629 164.229C190.291 167.689 205.792 167.269 217.802 166.054C215.341 170.731 213.356 176.368 212.754 182.89C211.301 198.719 218.272 214.925 233.482 231.064C236.922 234.715 243.297 233.823 245.505 229.17C245.66 228.844 260.125 198.911 280.031 201.313C280.496 216.25 285.15 228.581 293.899 238.028C309.491 254.863 332.341 255.872 333.306 255.908C337.968 256.079 341.863 251.453 340.736 246.803C335.543 225.414 336.623 213.176 338.786 206.938C346.618 216.343 361.244 232.136 376.634 239.73C381.971 259.831 380.975 281.524 372.756 303.19C362.269 330.836 328.902 362.88 283.499 388.902Z" stroke="black"/>
<path d="M351.83 296.13C348.037 294.66 343.767 296.548 342.302 300.343C340.832 304.137 342.719 308.41 346.521 309.883L346.561 309.898C350.344 311.333 354.587 309.441 356.052 305.661C357.519 301.86 355.626 297.594 351.83 296.13Z" fill="black"/>
<path d="M351.83 296.13C348.037 294.66 343.767 296.548 342.302 300.343C340.832 304.137 342.719 308.41 346.521 309.883L346.561 309.898C350.344 311.333 354.587 309.441 356.052 305.661C357.519 301.86 355.626 297.594 351.83 296.13Z" stroke="black"/>
<path d="M233.094 381.034C229.201 382.236 227.021 386.361 228.223 390.254C228.921 392.514 230.609 394.192 232.655 394.968C234.139 395.531 235.812 395.624 237.439 395.12C241.332 393.918 243.512 389.793 242.307 385.899C241.111 382.015 236.977 379.834 233.094 381.034Z" fill="black"/>
<path d="M233.094 381.034C229.201 382.236 227.021 386.361 228.223 390.254C228.921 392.514 230.609 394.192 232.655 394.968C234.139 395.531 235.812 395.624 237.439 395.12C241.332 393.918 243.512 389.793 242.307 385.899C241.111 382.015 236.977 379.834 233.094 381.034Z" stroke="black"/>
<path d="M205.003 382.699C201.861 380.112 197.22 380.565 194.633 383.707C192.046 386.85 192.497 391.498 195.639 394.085C196.273 394.612 196.975 395.011 197.705 395.288C200.585 396.38 203.957 395.578 206.019 393.074C208.6 389.93 208.153 385.289 205.003 382.699Z" fill="black"/>
<path d="M205.003 382.699C201.861 380.112 197.22 380.565 194.633 383.707C192.046 386.85 192.497 391.498 195.639 394.085C196.273 394.612 196.975 395.011 197.705 395.288C200.585 396.38 203.957 395.578 206.019 393.074C208.6 389.93 208.153 385.289 205.003 382.699Z" stroke="black"/>
<path d="M162.367 318.389C158.532 319.746 156.516 323.957 157.875 327.793C158.62 329.92 160.251 331.484 162.216 332.229C163.788 332.826 165.567 332.894 167.277 332.289C171.113 330.93 173.129 326.718 171.769 322.885C170.417 319.044 166.207 317.031 162.367 318.389Z" fill="black"/>
<path d="M162.367 318.389C158.532 319.746 156.516 323.957 157.875 327.793C158.62 329.92 160.251 331.484 162.216 332.229C163.788 332.826 165.567 332.894 167.277 332.289C171.113 330.93 173.129 326.718 171.769 322.885C170.417 319.044 166.207 317.031 162.367 318.389Z" stroke="black"/>
<path d="M152.102 246.586C148.03 246.427 144.607 249.59 144.442 253.661C144.316 256.908 146.31 259.752 149.191 260.845C149.915 261.12 150.697 261.284 151.518 261.318C155.58 261.48 159.015 258.311 159.178 254.243C159.334 250.173 156.17 246.749 152.102 246.586Z" fill="black"/>
<path d="M152.102 246.586C148.03 246.427 144.607 249.59 144.442 253.661C144.316 256.908 146.31 259.752 149.191 260.845C149.915 261.12 150.697 261.284 151.518 261.318C155.58 261.48 159.015 258.311 159.178 254.243C159.334 250.173 156.17 246.749 152.102 246.586Z" stroke="black"/>
<path d="M185.813 355.393C183.923 351.794 179.472 350.394 175.863 352.284C172.261 354.172 170.87 358.627 172.757 362.235C173.625 363.898 175.04 365.087 176.669 365.705C178.57 366.426 180.762 366.362 182.7 365.345C186.31 363.459 187.701 359.004 185.813 355.393Z" fill="black"/>
<path d="M185.813 355.393C183.923 351.794 179.472 350.394 175.863 352.284C172.261 354.172 170.87 358.627 172.757 362.235C173.625 363.898 175.04 365.087 176.669 365.705C178.57 366.426 180.762 366.362 182.7 365.345C186.31 363.459 187.701 359.004 185.813 355.393Z" stroke="black"/>
<path d="M158.439 225.952C161.858 227.249 165.785 225.828 167.546 222.517C169.46 218.923 168.097 214.455 164.508 212.552C160.915 210.634 156.446 212 154.531 215.594C152.626 219.189 153.984 223.646 157.577 225.563C157.86 225.71 158.149 225.842 158.439 225.952Z" fill="black"/>
<path d="M158.439 225.952C161.858 227.249 165.785 225.828 167.546 222.517C169.46 218.923 168.097 214.455 164.508 212.552C160.915 210.634 156.446 212 154.531 215.594C152.626 219.189 153.984 223.646 157.577 225.563C157.86 225.71 158.149 225.842 158.439 225.952Z" stroke="black"/>
<path d="M265.687 367.665C262.047 369.484 260.575 373.908 262.392 377.554C263.253 379.276 264.7 380.511 266.367 381.144C268.23 381.85 270.365 381.807 272.28 380.849C275.921 379.028 277.395 374.598 275.577 370.958C273.757 367.321 269.325 365.843 265.687 367.665Z" fill="black"/>
<path d="M265.687 367.665C262.047 369.484 260.575 373.908 262.392 377.554C263.253 379.276 264.7 380.511 266.367 381.144C268.23 381.85 270.365 381.807 272.28 380.849C275.921 379.028 277.395 374.598 275.577 370.958C273.757 367.321 269.325 365.843 265.687 367.665Z" stroke="black"/>
<path d="M306.509 351.657C304.205 348.298 299.621 347.433 296.266 349.733C292.902 352.035 292.043 356.621 294.34 359.984C295.224 361.274 296.443 362.192 297.8 362.707C299.986 363.536 302.51 363.32 304.588 361.9C307.95 359.604 308.806 355.019 306.509 351.657Z" fill="black"/>
<path d="M306.509 351.657C304.205 348.298 299.621 347.433 296.266 349.733C292.902 352.035 292.043 356.621 294.34 359.984C295.224 361.274 296.443 362.192 297.8 362.707C299.986 363.536 302.51 363.32 304.588 361.9C307.95 359.604 308.806 355.019 306.509 351.657Z" stroke="black"/>
<path d="M333.75 327.482C330.855 324.619 326.183 324.651 323.325 327.549C320.465 330.437 320.49 335.105 323.384 337.971C324.143 338.715 325.015 339.267 325.943 339.619C328.59 340.623 331.692 340.051 333.809 337.904C336.672 335.008 336.648 330.34 333.75 327.482Z" fill="black"/>
<path d="M333.75 327.482C330.855 324.619 326.183 324.651 323.325 327.549C320.465 330.437 320.49 335.105 323.384 337.971C324.143 338.715 325.015 339.267 325.943 339.619C328.59 340.623 331.692 340.051 333.809 337.904C336.672 335.008 336.648 330.34 333.75 327.482Z" stroke="black"/>
<path d="M153.673 282.971C149.679 283.751 147.072 287.627 147.86 291.622C148.374 294.213 150.181 296.226 152.483 297.099C153.73 297.572 155.113 297.708 156.521 297.429C160.507 296.647 163.11 292.772 162.326 288.776C161.538 284.782 157.661 282.184 153.673 282.971Z" fill="black"/>
<path d="M153.673 282.971C149.679 283.751 147.072 287.627 147.86 291.622C148.374 294.213 150.181 296.226 152.483 297.099C153.73 297.572 155.113 297.708 156.521 297.429C160.507 296.647 163.11 292.772 162.326 288.776C161.538 284.782 157.661 282.184 153.673 282.971Z" stroke="black"/>
<path d="M307.054 322.23C310.191 319.635 310.644 314.99 308.052 311.845C305.457 308.708 300.818 308.267 297.676 310.85C294.534 313.443 294.089 318.081 296.673 321.223C297.52 322.253 298.584 322.989 299.741 323.428C302.132 324.335 304.934 323.969 307.054 322.23Z" fill="black"/>
<path d="M307.054 322.23C310.191 319.635 310.644 314.99 308.052 311.845C305.457 308.708 300.818 308.267 297.676 310.85C294.534 313.443 294.089 318.081 296.673 321.223C297.52 322.253 298.584 322.989 299.741 323.428C302.132 324.335 304.934 323.969 307.054 322.23Z" stroke="black"/>
<path d="M188.591 251.937C189.032 247.886 186.104 244.253 182.064 243.807C178.015 243.368 174.374 246.292 173.935 250.341C173.563 253.747 175.581 256.872 178.639 258.032C179.218 258.251 179.825 258.396 180.462 258.462C184.514 258.902 188.153 255.981 188.591 251.937Z" fill="black"/>
<path d="M188.591 251.937C189.032 247.886 186.104 244.253 182.064 243.807C178.015 243.368 174.374 246.292 173.935 250.341C173.563 253.747 175.581 256.872 178.639 258.032C179.218 258.251 179.825 258.396 180.462 258.462C184.514 258.902 188.153 255.981 188.591 251.937Z" stroke="black"/>
<path d="M182.728 277.013C178.779 278.006 176.383 282.016 177.38 285.957C177.993 288.391 179.749 290.231 181.919 291.054C183.284 291.571 184.805 291.693 186.331 291.308C190.28 290.314 192.674 286.311 191.679 282.364C190.681 278.413 186.677 276.02 182.728 277.013Z" fill="black"/>
<path d="M182.728 277.013C178.779 278.006 176.383 282.016 177.38 285.957C177.993 288.391 179.749 290.231 181.919 291.054C183.284 291.571 184.805 291.693 186.331 291.308C190.28 290.314 192.674 286.311 191.679 282.364C190.681 278.413 186.677 276.02 182.728 277.013Z" stroke="black"/>
<path d="M192.67 308.848C188.976 310.564 187.37 314.943 189.083 318.635C189.929 320.456 191.421 321.761 193.16 322.421C194.95 323.1 197.004 323.091 198.881 322.22C202.565 320.504 204.172 316.122 202.459 312.429C200.738 308.734 196.359 307.128 192.67 308.848Z" fill="black"/>
<path d="M192.67 308.848C188.976 310.564 187.37 314.943 189.083 318.635C189.929 320.456 191.421 321.761 193.16 322.421C194.95 323.1 197.004 323.091 198.881 322.22C202.565 320.504 204.172 316.122 202.459 312.429C200.738 308.734 196.359 307.128 192.67 308.848Z" stroke="black"/>
<path d="M277.959 341.258C281.555 339.361 282.938 334.903 281.042 331.304C279.134 327.704 274.684 326.324 271.08 328.218C267.48 330.117 266.096 334.577 267.994 338.18C268.866 339.835 270.283 341.019 271.904 341.634C273.812 342.358 276.008 342.285 277.959 341.258Z" fill="black"/>
<path d="M277.959 341.258C281.555 339.361 282.938 334.903 281.042 331.304C279.134 327.704 274.684 326.324 271.08 328.218C267.48 330.117 266.096 334.577 267.994 338.18C268.866 339.835 270.283 341.019 271.904 341.634C273.812 342.358 276.008 342.285 277.959 341.258Z" stroke="black"/>
<path d="M245.932 354.653C249.831 353.474 252.035 349.368 250.865 345.472C249.698 341.568 245.583 339.36 241.687 340.531C237.788 341.7 235.575 345.812 236.754 349.712C237.439 351.998 239.129 353.695 241.202 354.482C242.664 355.036 244.314 355.135 245.932 354.653Z" fill="black"/>
<path d="M245.932 354.653C249.831 353.474 252.035 349.368 250.865 345.472C249.698 341.568 245.583 339.36 241.687 340.531C237.788 341.7 235.575 345.812 236.754 349.712C237.439 351.998 239.129 353.695 241.202 354.482C242.664 355.036 244.314 355.135 245.932 354.653Z" stroke="black"/>
<path d="M210.552 350.778C213.048 351.725 215.959 351.283 218.089 349.387C221.119 346.675 221.383 342.011 218.673 338.975C215.961 335.942 211.297 335.679 208.266 338.393C205.227 341.103 204.965 345.764 207.679 348.798C208.49 349.712 209.486 350.374 210.552 350.778Z" fill="black"/>
<path d="M210.552 350.778C213.048 351.725 215.959 351.283 218.089 349.387C221.119 346.675 221.383 342.011 218.673 338.975C215.961 335.942 211.297 335.679 208.266 338.393C205.227 341.103 204.965 345.764 207.679 348.798C208.49 349.712 209.486 350.374 210.552 350.778Z" stroke="black"/>
<path d="M216.809 257.083C220.613 258.526 224.872 256.61 226.315 252.806C227.761 248.994 225.842 244.743 222.038 243.3C218.234 241.857 213.978 243.765 212.531 247.577C211.088 251.381 213.005 255.64 216.809 257.083Z" fill="black"/>
<path d="M216.809 257.083C220.613 258.526 224.872 256.61 226.315 252.806C227.761 248.994 225.842 244.743 222.038 243.3C218.234 241.857 213.978 243.765 212.531 247.577C211.088 251.381 213.005 255.64 216.809 257.083Z" stroke="black"/>
<path d="M220.628 309.963C221.518 311.357 222.791 312.345 224.226 312.889C226.326 313.686 228.765 313.515 230.809 312.218C234.242 310.028 235.246 305.466 233.056 302.033C230.866 298.6 226.312 297.599 222.88 299.789C219.45 301.971 218.438 306.53 220.628 309.963Z" fill="black"/>
<path d="M220.628 309.963C221.518 311.357 222.791 312.345 224.226 312.889C226.326 313.686 228.765 313.515 230.809 312.218C234.242 310.028 235.246 305.466 233.056 302.033C230.866 298.6 226.312 297.599 222.88 299.789C219.45 301.971 218.438 306.53 220.628 309.963Z" stroke="black"/>
<path d="M271.869 300.974C272.658 301.824 273.61 302.447 274.63 302.835C277.174 303.8 280.158 303.315 282.282 301.327C285.258 298.555 285.419 293.885 282.645 290.912C279.865 287.932 275.202 287.78 272.225 290.553C269.248 293.334 269.088 297.994 271.869 300.974Z" fill="black"/>
<path d="M271.869 300.974C272.658 301.824 273.61 302.447 274.63 302.835C277.174 303.8 280.158 303.315 282.282 301.327C285.258 298.555 285.419 293.885 282.645 290.912C279.865 287.932 275.202 287.78 272.225 290.553C269.248 293.334 269.088 297.994 271.869 300.974Z" stroke="black"/>
<path d="M254.743 317.916C258.533 316.443 260.419 312.176 258.952 308.38C257.477 304.581 253.208 302.699 249.411 304.169C245.617 305.646 243.73 309.913 245.206 313.712C245.989 315.737 247.578 317.224 249.46 317.938C251.108 318.563 252.978 318.601 254.743 317.916Z" fill="black"/>
<path d="M254.743 317.916C258.533 316.443 260.419 312.176 258.952 308.38C257.477 304.581 253.208 302.699 249.411 304.169C245.617 305.646 243.73 309.913 245.206 313.712C245.989 315.737 247.578 317.224 249.46 317.938C251.108 318.563 252.978 318.601 254.743 317.916Z" stroke="black"/>
<path d="M288.085 277.011C291.889 278.454 296.148 276.537 297.591 272.734C299.034 268.93 297.118 264.67 293.314 263.227C289.51 261.784 285.251 263.701 283.807 267.505C282.364 271.309 284.281 275.568 288.085 277.011Z" fill="black"/>
<path d="M288.085 277.011C291.889 278.454 296.148 276.537 297.591 272.734C299.034 268.93 297.118 264.67 293.314 263.227C289.51 261.784 285.251 263.701 283.807 267.505C282.364 271.309 284.281 275.568 288.085 277.011Z" stroke="black"/>
<path d="M214.21 271.581C210.227 272.435 207.686 276.349 208.543 280.327C209.083 282.872 210.881 284.823 213.142 285.68C214.423 286.167 215.855 286.306 217.289 285.991C221.269 285.145 223.811 281.228 222.957 277.246C222.109 273.269 218.191 270.732 214.21 271.581Z" fill="black"/>
<path d="M214.21 271.581C210.227 272.435 207.686 276.349 208.543 280.327C209.083 282.872 210.881 284.823 213.142 285.68C214.423 286.167 215.855 286.306 217.289 285.991C221.269 285.145 223.811 281.228 222.957 277.246C222.109 273.269 218.191 270.732 214.21 271.581Z" stroke="black"/>
<path d="M251.534 269.452C247.73 268.009 243.471 269.926 242.028 273.73C240.585 277.534 242.502 281.793 246.306 283.236C250.11 284.679 254.369 282.763 255.812 278.959C257.255 275.155 255.338 270.895 251.534 269.452Z" fill="black"/>
<path d="M251.534 269.452C247.73 268.009 243.471 269.926 242.028 273.73C240.585 277.534 242.502 281.793 246.306 283.236C250.11 284.679 254.369 282.763 255.812 278.959C257.255 275.155 255.338 270.895 251.534 269.452Z" stroke="black"/>
<path d="M261.992 241.885C258.188 240.442 253.929 242.359 252.486 246.163C251.043 249.967 252.959 254.226 256.763 255.669C260.567 257.112 264.826 255.195 266.269 251.391C267.712 247.588 265.796 243.328 261.992 241.885Z" fill="black"/>
<path d="M261.992 241.885C258.188 240.442 253.929 242.359 252.486 246.163C251.043 249.967 252.959 254.226 256.763 255.669C260.567 257.112 264.826 255.195 266.269 251.391C267.712 247.588 265.796 243.328 261.992 241.885Z" stroke="black"/>
<path d="M191.601 194.686C190.157 198.492 185.902 200.407 182.095 198.963C178.288 197.519 176.374 193.263 177.818 189.457C179.262 185.65 183.517 183.735 187.324 185.179C191.13 186.623 193.045 190.879 191.601 194.686Z" fill="black"/>
<path d="M191.601 194.686C190.157 198.492 185.902 200.407 182.095 198.963C178.288 197.519 176.374 193.263 177.818 189.457C179.262 185.65 183.517 183.735 187.324 185.179C191.13 186.623 193.045 190.879 191.601 194.686Z" stroke="black"/>
<path d="M202.271 224.749C200.827 228.555 196.571 230.47 192.765 229.026C188.958 227.582 187.043 223.327 188.487 219.52C189.931 215.713 194.187 213.799 197.993 215.243C201.8 216.687 203.715 220.942 202.271 224.749Z" fill="black"/>
<path d="M202.271 224.749C200.827 228.555 196.571 230.47 192.765 229.026C188.958 227.582 187.043 223.327 188.487 219.52C189.931 215.713 194.187 213.799 197.993 215.243C201.8 216.687 203.715 220.942 202.271 224.749Z" stroke="black"/>
<path d="M329.863 293.648C328.419 297.454 324.164 299.369 320.357 297.925C316.551 296.481 314.636 292.226 316.08 288.419C317.524 284.612 321.779 282.698 325.586 284.142C329.393 285.586 331.307 289.841 329.863 293.648Z" fill="black"/>
<path d="M329.863 293.648C328.419 297.454 324.164 299.369 320.357 297.925C316.551 296.481 314.636 292.226 316.08 288.419C317.524 284.612 321.779 282.698 325.586 284.142C329.393 285.586 331.307 289.841 329.863 293.648Z" stroke="black"/>
<path d="M361.614 270.216C360.17 274.023 355.915 275.938 352.108 274.494C348.301 273.05 346.387 268.794 347.831 264.988C349.275 261.181 353.53 259.266 357.337 260.71C361.144 262.154 363.058 266.41 361.614 270.216Z" fill="black"/>
<path d="M361.614 270.216C360.17 274.023 355.915 275.938 352.108 274.494C348.301 273.05 346.387 268.794 347.831 264.988C349.275 261.181 353.53 259.266 357.337 260.71C361.144 262.154 363.058 266.41 361.614 270.216Z" stroke="black"/>
</g>
<defs>
<clipPath id="clip0_1141_10102">
<rect width="377.396" height="377.396" fill="white" transform="translate(147 13) rotate(20.7741)"/>
</clipPath>
</defs>
</svg>
