<svg width="32" height="32" viewBox="0 0 512 512" fill="none" xmlns="http://www.w3.org/2000/svg">
<path d="M512 256C512 397.387 397.387 512 256 512C114.613 512 0 397.387 0 256C0 114.613 114.613 0 256 0C397.387 0 512 114.613 512 256Z" fill="url(#paint0_linear_811:9420)"/>
<path d="M404.855 186.805C404.855 166.348 398.527 142.602 387.93 123.281C374.738 99.2383 357.141 86 338.371 86C319.605 86 302.008 99.2383 288.816 123.277C278.219 142.602 271.891 166.348 271.891 186.805C271.891 218.305 293.918 244.738 323.371 251.562V425C323.371 433.285 330.09 440 338.371 440C346.656 440 353.371 433.285 353.371 425V251.562C382.828 244.738 404.855 218.305 404.855 186.805ZM338.371 223.289C318.258 223.289 301.891 206.922 301.891 186.805C301.891 155.703 322.348 116 338.371 116C354.398 116 374.855 155.703 374.855 186.805C374.855 206.922 358.488 223.289 338.371 223.289Z" fill="white"/>
<path d="M225.109 86C216.824 86 210.109 92.7148 210.109 101V186.805C210.109 206.922 193.742 223.289 173.629 223.289C153.512 223.289 137.145 206.922 137.145 186.805V101C137.145 92.7148 130.43 86 122.145 86C113.859 86 107.145 92.7148 107.145 101V186.805C107.145 218.305 129.172 244.738 158.629 251.562V425C158.629 433.285 165.344 440 173.629 440C181.91 440 188.629 433.285 188.629 425V251.562C218.082 244.738 240.109 218.305 240.109 186.805V101C240.109 92.7148 233.395 86 225.109 86Z" fill="white"/>
<path d="M173.629 199.746C181.91 199.746 188.629 193.031 188.629 184.746V101C188.629 92.7148 181.91 86 173.629 86C165.344 86 158.629 92.7148 158.629 101V184.746C158.629 193.031 165.344 199.746 173.629 199.746Z" fill="white"/>
<defs>
<linearGradient id="paint0_linear_811:9420" x1="0" y1="256" x2="512" y2="256" gradientUnits="userSpaceOnUse">
<stop/>
</linearGradient>
</defs>
</svg>
