<svg height="100" viewBox="0 0 512 512" width="100" xmlns="http://www.w3.org/2000/svg"><path d="m357.519531 174.566406c12.113281-4.9375 18.980469-16.046875 18.980469-31.746094 0-5.523437-4.476562-10-10-10-13.824219 0-29.28125-15.0625-44.230469-29.628906-16.746093-16.320312-34.0625-33.195312-53.769531-33.195312-17.195312 0-33.5625 4.84375-49.898438 9.644531-.132812-.726563-5.101562-8.644531 2.542969-15.605469 3.171875-2.890625 6.28125-5.257812 9.820313-7.53125 10.789062-6.3125 22.664062-21.777344 12.929687-40.195312-9.816406-18.570313-28.839843-18.328125-39.269531-13.617188-18.085938 8.269532-47.570312 32.558594-47.152344 70.625-12.492187-6.378906-26.65625-13.320312-44.972656-13.320312-20.144531 0-36.726562 18.730468-54.28125 38.5625-14.214844 16.058594-30.332031 34.261718-43.71875 34.261718-5.523438 0-10 4.476563-10 10 0 15.699219 6.867188 26.808594 18.980469 31.746094-15.117188 24.582032-22.980469 53.261719-22.980469 84.898438 0 64.285156 53.515625 136.363281 76.523438 164.367187 36.054687 43.886719 85.125 88.167969 113.476562 88.167969s77.421875-44.28125 113.476562-88.167969c23.007813-28.003906 76.523438-100.082031 76.523438-164.367187 0-31.636719-7.863281-60.316406-22.980469-84.898438zm-144.6875-153.632812c3.355469-1.394532 9.511719-2.601563 13.378907 4.722656 3.863281 7.300781-2.707032 12.078125-5.632813 13.746094-.035156.019531-.066406.039062-.101563.058594-15.824218 8.816406-26.484374 24.5625-21.707031 43.015624 1.382813 5.34375-1.828125 10.8125-7.152343 12.195313-5.285157 1.371094-10.789063-1.894531-12.152344-7.167969-9.382813-36.246094 17.707031-59.382812 33.367187-66.570312zm-139.636719 90.878906c13.203126-14.910156 28.164063-31.816406 39.304688-31.816406 14.125 0 25.304688 5.722656 37.144531 11.78125.621094.316406 1.25.632812 1.875.953125-4.6875 5.402343-9.566406 12.785156-12.554687 22.253906-1.664063 5.269531 1.257812 10.886719 6.523437 12.546875 5.089844 1.609375 10.890625-1.28125 12.546875-6.523438 2.132813-6.757812 5.730469-11.980468 9.039063-15.691406 3.617187 3.929688 8.253906 6.839844 13.425781 8.394532v11.285156c0 5.523437 4.476562 10 10 10s10-4.476563 10-10v-12.257813c4.445312-1.824219 8.265625-4.640625 11.269531-8.125 4.917969 4.21875 10.714844 10.539063 13.195313 18.394531 1.582031 5.019532 7.5 8.121094 12.546875 6.527344 5.265625-1.664062 8.1875-7.28125 6.523437-12.546875-2.578125-8.160156-7.183594-15.019531-12.058594-20.484375 11.386719-3.433594 22.410157-6.503906 36.523438-6.503906 11.574219 0 25.929688 13.988281 39.8125 27.515625 14.640625 14.269531 29.691406 28.9375 46.785156 33.703125-1.992187 4.421875-6.238281 6.214844-13.597656 6.214844-28.613281 0-70.121094-26.824219-70.535156-27.089844-3.804688-2.484375-8.804688-2.089844-12.171875.957031-1.3125 1.183594-7.835938 7.832031-7.667969 22.421875.15625 13.402344 5.847656 29.566406 16.945312 48.183594-8.378906.6875-19.578124.140625-30.054687-5.066406-12.753906-6.335938-22.1875-18.429688-28.027344-35.941406-1.363281-4.082032-5.183593-6.835938-9.488281-6.835938-21.519531 0-38.28125 12.828125-48.46875 37.097656-2.859375 6.804688-4.785156 13.582032-6.074219 19.273438-14.523437-9.140625-23.578125-19.769532-26.964843-31.699219-5.203126-18.328125 4.820312-34.453125 4.890624-34.566406 2.578126-3.960938 2.027344-9.1875-1.316406-12.527344-3.234375-3.230469-8.585937-3.875-12.53125-1.296875-11.546875 7.535156-46.722656 27.089844-70.535156 27.089844-7.453125 0-11.714844-1.839844-13.671875-6.386719 17.457031-5.445313 32.621094-22.574219 47.367187-39.234375zm215.328126 299.324219c-41.035157 49.945312-82.832032 80.863281-98.023438 80.863281s-56.988281-30.917969-98.023438-80.863281c-45.070312-54.855469-71.976562-111.558594-71.976562-151.671875 0-31.441406 9.171875-59.441406 25.621094-82.375 17.726562-1.703125 37.1875-9.695313 51.835937-17.015625-.871093 7.117187-.675781 15.222656 1.699219 23.785156 5.773438 20.777344 22.414062 37.980469 49.472656 51.132813 6.121094 2.976562 13.777344-1.222657 14.339844-8.1875.039062-.488282 3.984375-45.417969 30.390625-51.949219 7.777344 18.722656 19.613281 32.125 35.257813 39.898437 27.878906 13.851563 57.347656 4.136719 58.589843 3.71875 5.996094-2.027344 8.710938-9.769531 5.042969-15.125-16.878906-24.632812-21.398438-40.675781-21.65625-49.628906 14.460938 8.160156 40.613281 21.15625 63.789062 23.382812 16.441407 22.929688 25.617188 50.925782 25.617188 82.363282 0 40.113281-26.90625 96.816406-71.976562 151.671875zm0 0"/><path d="m330.558594 260.578125c-5.519532-.039063-10.027344 4.410156-10.058594 9.929687-.039062 5.519532 4.410156 10.03125 9.941406 10.070313h.058594c5.488281 0 9.960938-4.441406 10-9.941406.03125-5.527344-4.421875-10.027344-9.941406-10.058594zm0 0"/><path d="m220.800781 425.410156c-4.359375 3.398438-5.140625 9.679688-1.742187 14.039063 1.972656 2.53125 4.921875 3.847656 7.890625 3.847656 2.152343 0 4.320312-.6875 6.140625-2.109375 4.359375-3.398438 5.140625-9.679688 1.738281-14.039062-3.386719-4.351563-9.679687-5.128907-14.027344-1.738282zm0 0"/><path d="m185.96875 441.039062c-5.230469-1.769531-10.898438 1.039063-12.667969 6.269532-1.769531 5.230468 1.039063 10.910156 6.269531 12.679687 1.058594.363281 2.140626.53125 3.199219.53125 4.179688 0 8.070313-2.640625 9.480469-6.808593 1.761719-5.230469-1.039062-10.902344-6.28125-12.671876zm0 0"/><path d="m100.941406 379.980469c-4.210937 3.566406-4.742187 9.878906-1.171875 14.089843 1.96875 2.339844 4.789063 3.539063 7.640625 3.539063 2.28125 0 4.570313-.769531 6.449219-2.359375 4.210937-3.570312 4.742187-9.882812 1.171875-14.089844-3.5625-4.222656-9.871094-4.75-14.089844-1.179687zm0 0"/><path d="m53.371094 293.839844c-5.242188 1.757812-8.0625 7.417968-6.3125 12.660156 1.402344 4.179688 5.300781 6.828125 9.480468 6.828125 1.050782 0 2.121094-.167969 3.179688-.519531 5.230469-1.75 8.0625-7.421875 6.3125-12.660156-1.761719-5.238282-7.421875-8.058594-12.660156-6.308594zm0 0"/><path d="m148.488281 415.636719c-4.128906-3.65625-10.449219-3.289063-14.117187.84375-3.660156 4.128906-3.28125 10.449219.847656 14.117187 1.902344 1.691406 4.269531 2.519532 6.632812 2.519532 2.757813 0 5.507813-1.136719 7.476563-3.359376 3.671875-4.128906 3.292969-10.449218-.839844-14.121093zm0 0"/><path d="m51.480469 264.617188c4.960937 0 9.257812-3.691407 9.898437-8.738282.699219-5.480468-3.179687-10.492187-8.648437-11.179687-5.480469-.703125-10.492188 3.179687-11.191407 8.660156-.6875 5.476563 3.179688 10.476563 8.660157 11.179687.429687.050782.859375.078126 1.28125.078126zm0 0"/><path d="m255.710938 392.769531c-3.742188 4.058594-3.480469 10.378907.578124 14.128907 1.921876 1.769531 4.351563 2.640624 6.769532 2.640624 2.703125 0 5.390625-1.082031 7.359375-3.21875 3.742187-4.0625 3.480469-10.390624-.578125-14.132812-4.058594-3.738281-10.390625-3.480469-14.128906.582031zm0 0"/><path d="m299.789062 352.820312c-4.539062-3.152343-10.769531-2.042968-13.917968 2.488282-3.160156 4.539062-2.042969 10.769531 2.488281 13.929687 1.742187 1.210938 3.730469 1.789063 5.699219 1.789063 3.171875 0 6.269531-1.488282 8.222656-4.289063 3.160156-4.53125 2.039062-10.757812-2.492188-13.917969zm0 0"/><path d="m322.710938 309.046875c-5.050782-2.238281-10.960938.050781-13.191407 5.101563-2.238281 5.039062.039063 10.949218 5.089844 13.191406 1.320313.578125 2.691406.859375 4.039063.859375 3.839843 0 7.5-2.21875 9.152343-5.960938 2.238281-5.050781-.039062-10.960937-5.089843-13.191406zm0 0"/><path d="m72.871094 339.238281c-4.691406 2.910157-6.132813 9.082031-3.210938 13.769531 1.898438 3.039063 5.160156 4.722657 8.5 4.722657 1.808594 0 3.628906-.492188 5.28125-1.523438 4.679688-2.910156 6.117188-9.078125 3.199219-13.769531-2.921875-4.6875-9.089844-6.117188-13.769531-3.199219zm0 0"/><path d="m286.320312 315.230469c2.730469-4.800781 1.070313-10.910157-3.730468-13.652344-4.800782-2.730469-10.898438-1.058594-13.640625 3.730469-2.738281 4.800781-1.070313 10.898437 3.71875 13.640625 1.570312.898437 3.273437 1.320312 4.953125 1.320312 3.46875 0 6.847656-1.8125 8.699218-5.039062zm0 0"/><path d="m102.230469 283.070312c-1.390625-5.351562-6.851563-8.550781-12.191407-7.171874-5.347656 1.390624-8.558593 6.851562-7.167968 12.199218 1.167968 4.5 5.230468 7.492188 9.667968 7.492188.839844 0 1.679688-.109375 2.519532-.332032 5.351562-1.390624 8.5625-6.847656 7.171875-12.1875zm0 0"/><path d="m106.859375 317.699219c-4.53125 3.160156-5.640625 9.398437-2.480469 13.917969 1.949219 2.792968 5.0625 4.28125 8.210938 4.28125 1.980468 0 3.96875-.578126 5.71875-1.800782 4.53125-3.160156 5.640625-9.390625 2.480468-13.917968-3.167968-4.53125-9.398437-5.640626-13.929687-2.480469zm0 0"/><path d="m134.789062 353.296875c-3.859374 3.953125-3.789062 10.28125.160157 14.140625 1.949219 1.902344 4.46875 2.839844 6.992187 2.839844 2.597656 0 5.199219-1 7.160156-3.007813 3.847657-3.949219 3.777344-10.28125-.171874-14.140625-3.960938-3.859375-10.289063-3.789062-14.140626.167969zm0 0"/><path d="m258.570312 353.367188c3.648438-4.136719 3.257813-10.457032-.878906-14.109376-4.152344-3.648437-10.460937-3.257812-14.121094.878907-3.652343 4.140625-3.261718 10.464843.878907 14.121093 1.902343 1.679688 4.269531 2.5 6.621093 2.5 2.769532 0 5.519532-1.148437 7.5-3.390624zm0 0"/><path d="m224.390625 385.769531c4.378906-3.371093 5.199219-9.640625 1.839844-14.019531-3.359375-4.390625-9.640625-5.210938-14.019531-1.851562-4.382813 3.359374-5.210938 9.640624-1.839844 14.019531 1.96875 2.570312 4.929687 3.910156 7.9375 3.910156 2.121094 0 4.261718-.667969 6.082031-2.058594zm0 0"/><path d="m177.648438 397.878906c3.621093 0 7.101562-1.960937 8.890624-5.390625 2.539063-4.898437.628907-10.941406-4.269531-13.488281-4.898437-2.542969-10.941406-.632812-13.480469 4.269531-2.550781 4.898438-.640624 10.9375 4.261719 13.480469 1.46875.769531 3.050781 1.128906 4.597657 1.128906zm0 0"/><path d="m140.5 276.019531c5.519531 0 10-4.480469 10-10 0-5.53125-4.480469-10-10-10s-10 4.46875-10 10c0 5.519531 4.480469 10 10 10zm0 0"/><path d="m170.789062 341.257812c1.800782 1.339844 3.890626 1.980469 5.972657 1.980469 3.046875 0 6.058593-1.390625 8.027343-4.019531 3.300782-4.429688 2.378907-10.699219-2.050781-14-4.429687-3.300781-10.6875-2.378906-13.988281 2.050781-3.300781 4.417969-2.390625 10.6875 2.039062 13.988281zm0 0"/><path d="m231.460938 305.199219c1.410156.699219 2.917968 1.03125 4.398437 1.03125 3.691406 0 7.242187-2.050781 8.980469-5.59375 2.441406-4.949219.398437-10.949219-4.550782-13.386719-4.960937-2.441406-10.949218-.390625-13.390624 4.558594-2.4375 4.960937-.398438 10.949218 4.5625 13.390625zm0 0"/><path d="m217.890625 334.929688c4.097656-3.691407 4.4375-10.011719.75-14.121094-3.699219-4.109375-10.019531-4.441406-14.128906-.75-4.101563 3.699218-4.441407 10.019531-.742188 14.128906 1.96875 2.191406 4.699219 3.3125 7.429688 3.3125 2.390625 0 4.78125-.851562 6.691406-2.570312zm0 0"/><path d="m240.5 267c5.519531 0 10-4.480469 10-10s-4.480469-10-10-10-10 4.480469-10 10 4.480469 10 10 10zm0 0"/><path d="m144.179688 295.660156c-4.640626 3-5.980469 9.1875-2.980469 13.820313 1.910156 2.96875 5.128906 4.578125 8.410156 4.578125 1.859375 0 3.742187-.511719 5.410156-1.601563 4.640625-2.988281 5.980469-9.179687 2.980469-13.820312-2.988281-4.636719-9.179688-5.96875-13.820312-2.976563zm0 0"/><path d="m190.5 275c-5.519531 0-10 4.480469-10 10s4.480469 10 10 10 10-4.480469 10-10-4.480469-10-10-10zm0 0"/><path d="m190.5 235c-5.519531 0-10 4.480469-10 10s4.480469 10 10 10 10-4.480469 10-10-4.480469-10-10-10zm0 0"/><path d="m78.5 209c0 5.523438-4.476562 10-10 10s-10-4.476562-10-10 4.476562-10 10-10 10 4.476562 10 10zm0 0"/><path d="m106.5 242c0 5.523438-4.476562 10-10 10s-10-4.476562-10-10 4.476562-10 10-10 10 4.476562 10 10zm0 0"/><path d="m301.5 268c0 5.523438-4.476562 10-10 10s-10-4.476562-10-10 4.476562-10 10-10 10 4.476562 10 10zm0 0"/><path d="m330.5 223c0 5.523438-4.476562 10-10 10s-10-4.476562-10-10 4.476562-10 10-10 10 4.476562 10 10zm0 0"/></svg>
