<svg width="194" height="113" viewBox="0 0 194 113" fill="none" xmlns="http://www.w3.org/2000/svg">
<rect x="0.5" y="0.5" width="193" height="112" fill="white" stroke="#A0AEC0"/>
<path d="M68.6663 44.6218L74.2202 62.8114H74.4263L79.9802 44.6218H86.6983L78.3189 69.4567H70.3276L61.9482 44.6218H68.6663Z" fill="black"/>
<path d="M95.8446 69.8083C93.8963 69.8083 92.2148 69.4243 90.8 68.6563C89.3934 67.8802 88.3101 66.7767 87.5502 65.3458C86.7983 63.9068 86.4224 62.197 86.4224 60.2163C86.4224 58.2923 86.8024 56.6107 87.5623 55.1717C88.3222 53.7247 89.3934 52.6009 90.7758 51.8006C92.1582 50.9922 93.7872 50.588 95.6627 50.588C96.9886 50.588 98.2012 50.7941 99.3007 51.2064C100.4 51.6187 101.35 52.2291 102.15 53.0375C102.951 53.8459 103.573 54.8443 104.018 56.0327C104.462 57.213 104.685 58.5671 104.685 60.0951V61.5745H88.496V58.1306H99.1673C99.1592 57.5 99.0096 56.9382 98.7186 56.445C98.4276 55.9519 98.0274 55.5679 97.5181 55.293C97.0169 55.0101 96.4388 54.8686 95.784 54.8686C95.1211 54.8686 94.5269 55.0181 94.0014 55.3173C93.4759 55.6083 93.0596 56.0085 92.7524 56.5178C92.4452 57.019 92.2835 57.5889 92.2673 58.2276V61.7321C92.2673 62.4921 92.4169 63.159 92.716 63.733C93.0151 64.2989 93.4396 64.7395 93.9893 65.0548C94.539 65.3701 95.1938 65.5277 95.9538 65.5277C96.4792 65.5277 96.9562 65.455 97.3847 65.3094C97.8132 65.1639 98.181 64.9497 98.4882 64.6667C98.7954 64.3838 99.0258 64.0362 99.1794 63.6239L104.624 63.7815C104.398 65.0022 103.901 66.0653 103.133 66.9708C102.373 67.8681 101.374 68.5674 100.137 69.0686C98.9005 69.5618 97.4696 69.8083 95.8446 69.8083Z" fill="black"/>
<path d="M107.713 69.4567V50.8305H113.473V54.2259H113.667C114.007 52.9971 114.561 52.0836 115.329 51.4853C116.097 50.879 116.99 50.5758 118.009 50.5758C118.284 50.5758 118.567 50.596 118.858 50.6365C119.149 50.6688 119.419 50.7213 119.67 50.7941V55.9478C119.387 55.8508 119.015 55.774 118.554 55.7174C118.102 55.6608 117.697 55.6326 117.342 55.6326C116.638 55.6326 116.004 55.7902 115.438 56.1055C114.88 56.4127 114.439 56.8452 114.116 57.403C113.801 57.9527 113.643 58.5995 113.643 59.3432V69.4567H107.713Z" fill="black"/>
<path d="M129.814 69.8083C127.849 69.8083 126.164 69.4041 124.757 68.5957C123.358 67.7873 122.283 66.6636 121.531 65.2246C120.78 63.7775 120.404 62.104 120.404 60.2042C120.404 58.2963 120.78 56.6229 121.531 55.1839C122.291 53.7368 123.371 52.609 124.769 51.8006C126.176 50.9922 127.853 50.588 129.802 50.588C131.524 50.588 133.023 50.8992 134.301 51.5217C135.586 52.1442 136.588 53.0254 137.308 54.1653C138.035 55.2971 138.419 56.6269 138.46 58.1548H132.918C132.805 57.2009 132.482 56.4531 131.948 55.9115C131.423 55.3698 130.735 55.099 129.887 55.099C129.199 55.099 128.597 55.293 128.08 55.6811C127.562 56.061 127.158 56.6269 126.867 57.3788C126.584 58.1225 126.443 59.0441 126.443 60.1436C126.443 61.243 126.584 62.1727 126.867 62.9327C127.158 63.6845 127.562 64.2544 128.08 64.6425C128.597 65.0224 129.199 65.2124 129.887 65.2124C130.436 65.2124 130.921 65.0952 131.342 64.8608C131.77 64.6263 132.122 64.2827 132.397 63.83C132.672 63.3692 132.845 62.8114 132.918 62.1566H138.46C138.403 63.6926 138.019 65.0346 137.308 66.1825C136.605 67.3305 135.614 68.2238 134.337 68.8625C133.068 69.4931 131.56 69.8083 129.814 69.8083Z" fill="black"/>
<path d="M150.201 69.8083C148.253 69.8083 146.571 69.4243 145.157 68.6563C143.75 67.8802 142.667 66.7767 141.907 65.3458C141.155 63.9068 140.779 62.197 140.779 60.2163C140.779 58.2923 141.159 56.6107 141.919 55.1717C142.679 53.7247 143.75 52.6009 145.132 51.8006C146.515 50.9922 148.144 50.588 150.019 50.588C151.345 50.588 152.558 50.7941 153.657 51.2064C154.757 51.6187 155.707 52.2291 156.507 53.0375C157.307 53.8459 157.93 54.8443 158.375 56.0327C158.819 57.213 159.041 58.5671 159.041 60.0951V61.5745H142.853V58.1306H153.524C153.516 57.5 153.366 56.9382 153.075 56.445C152.784 55.9519 152.384 55.5679 151.875 55.293C151.374 55.0101 150.796 54.8686 150.141 54.8686C149.478 54.8686 148.884 55.0181 148.358 55.3173C147.833 55.6083 147.416 56.0085 147.109 56.5178C146.802 57.019 146.64 57.5889 146.624 58.2276V61.7321C146.624 62.4921 146.774 63.159 147.073 63.733C147.372 64.2989 147.796 64.7395 148.346 65.0548C148.896 65.3701 149.551 65.5277 150.31 65.5277C150.836 65.5277 151.313 65.455 151.741 65.3094C152.17 65.1639 152.538 64.9497 152.845 64.6667C153.152 64.3838 153.382 64.0362 153.536 63.6239L158.981 63.7815C158.755 65.0022 158.257 66.0653 157.489 66.9708C156.729 67.8681 155.731 68.5674 154.494 69.0686C153.257 69.5618 151.826 69.8083 150.201 69.8083Z" fill="black"/>
<path d="M168 44.6218V69.4567H162.07V44.6218H168Z" fill="black"/>
<path d="M44.6431 41L62.2863 71.7332H27L44.6431 41Z" fill="black"/>
</svg>
