<svg width="194" height="113" viewBox="0 0 194 113" fill="none" xmlns="http://www.w3.org/2000/svg">
<rect width="194" height="113" fill="white"/>
<rect width="194" height="113" stroke="white"/>
<path d="M68.6664 44.6217L74.2203 62.8113H74.4264L79.9803 44.6217H86.6984L78.319 69.4566H70.3277L61.9483 44.6217H68.6664Z" fill="black"/>
<path d="M95.8447 69.8083C93.8964 69.8083 92.2149 69.4243 90.8001 68.6563C89.3935 67.8802 88.3102 66.7767 87.5502 65.3458C86.7984 63.9068 86.4225 62.1969 86.4225 60.2163C86.4225 58.2922 86.8025 56.6107 87.5624 55.1717C88.3223 53.7246 89.3935 52.6009 90.7759 51.8005C92.1583 50.9921 93.7873 50.5879 95.6628 50.5879C96.9886 50.5879 98.2013 50.7941 99.3008 51.2064C100.4 51.6187 101.35 52.229 102.15 53.0374C102.951 53.8459 103.573 54.8443 104.018 56.0327C104.463 57.213 104.685 58.5671 104.685 60.095V61.5744H88.4961V58.1305H99.1674C99.1593 57.5 99.0097 56.9381 98.7187 56.445C98.4276 55.9518 98.0275 55.5678 97.5182 55.293C97.0169 55.01 96.4389 54.8685 95.7841 54.8685C95.1212 54.8685 94.527 55.0181 94.0015 55.3172C93.476 55.6082 93.0597 56.0084 92.7525 56.5177C92.4453 57.019 92.2836 57.5889 92.2674 58.2276V61.7321C92.2674 62.492 92.417 63.159 92.7161 63.733C93.0152 64.2989 93.4396 64.7394 93.9894 65.0547C94.5391 65.37 95.1939 65.5277 95.9539 65.5277C96.4793 65.5277 96.9563 65.4549 97.3848 65.3094C97.8132 65.1639 98.1811 64.9496 98.4883 64.6667C98.7955 64.3837 99.0259 64.0361 99.1795 63.6238L104.624 63.7815C104.398 65.0022 103.901 66.0653 103.133 66.9707C102.373 67.8681 101.374 68.5674 100.137 69.0686C98.9006 69.5617 97.4697 69.8083 95.8447 69.8083Z" fill="black"/>
<path d="M107.713 69.4566V50.8304H113.474V54.2258H113.668C114.007 52.997 114.561 52.0835 115.329 51.4853C116.097 50.8789 116.99 50.5758 118.009 50.5758C118.284 50.5758 118.567 50.596 118.858 50.6364C119.149 50.6687 119.42 50.7213 119.67 50.7941V55.9478C119.387 55.8508 119.015 55.774 118.554 55.7174C118.102 55.6608 117.698 55.6325 117.342 55.6325C116.639 55.6325 116.004 55.7901 115.438 56.1054C114.88 56.4126 114.44 56.8451 114.116 57.403C113.801 57.9527 113.643 58.5994 113.643 59.3432V69.4566H107.713Z" fill="black"/>
<path d="M129.814 69.8083C127.849 69.8083 126.164 69.4041 124.757 68.5956C123.359 67.7872 122.283 66.6635 121.532 65.2245C120.78 63.7774 120.404 62.104 120.404 60.2042C120.404 58.2963 120.78 56.6228 121.532 55.1838C122.291 53.7367 123.371 52.609 124.769 51.8005C126.176 50.9921 127.853 50.5879 129.802 50.5879C131.524 50.5879 133.023 50.8992 134.301 51.5216C135.586 52.1441 136.588 53.0253 137.308 54.1652C138.036 55.297 138.42 56.6269 138.46 58.1548H132.918C132.805 57.2008 132.482 56.4531 131.948 55.9114C131.423 55.3698 130.735 55.0989 129.887 55.0989C129.199 55.0989 128.597 55.293 128.08 55.681C127.562 56.061 127.158 56.6269 126.867 57.3787C126.584 58.1225 126.443 59.0441 126.443 60.1435C126.443 61.243 126.584 62.1727 126.867 62.9326C127.158 63.6844 127.562 64.2544 128.08 64.6424C128.597 65.0224 129.199 65.2124 129.887 65.2124C130.436 65.2124 130.921 65.0952 131.342 64.8607C131.77 64.6263 132.122 64.2827 132.397 63.83C132.672 63.3692 132.845 62.8113 132.918 62.1565H138.46C138.403 63.6925 138.019 65.0345 137.308 66.1825C136.605 67.3305 135.614 68.2238 134.337 68.8624C133.068 69.493 131.56 69.8083 129.814 69.8083Z" fill="black"/>
<path d="M150.201 69.8083C148.253 69.8083 146.572 69.4243 145.157 68.6563C143.75 67.8802 142.667 66.7767 141.907 65.3458C141.155 63.9068 140.779 62.1969 140.779 60.2163C140.779 58.2922 141.159 56.6107 141.919 55.1717C142.679 53.7246 143.75 52.6009 145.133 51.8005C146.515 50.9921 148.144 50.5879 150.02 50.5879C151.345 50.5879 152.558 50.7941 153.657 51.2064C154.757 51.6187 155.707 52.229 156.507 53.0374C157.308 53.8459 157.93 54.8443 158.375 56.0327C158.819 57.213 159.042 58.5671 159.042 60.095V61.5744H142.853V58.1305H153.524C153.516 57.5 153.366 56.9381 153.075 56.445C152.784 55.9518 152.384 55.5678 151.875 55.293C151.374 55.01 150.796 54.8685 150.141 54.8685C149.478 54.8685 148.884 55.0181 148.358 55.3172C147.833 55.6082 147.416 56.0084 147.109 56.5177C146.802 57.019 146.64 57.5889 146.624 58.2276V61.7321C146.624 62.492 146.774 63.159 147.073 63.733C147.372 64.2989 147.796 64.7394 148.346 65.0547C148.896 65.37 149.551 65.5277 150.311 65.5277C150.836 65.5277 151.313 65.4549 151.741 65.3094C152.17 65.1639 152.538 64.9496 152.845 64.6667C153.152 64.3837 153.383 64.0361 153.536 63.6238L158.981 63.7815C158.755 65.0022 158.257 66.0653 157.489 66.9707C156.729 67.8681 155.731 68.5674 154.494 69.0686C153.257 69.5617 151.826 69.8083 150.201 69.8083Z" fill="black"/>
<path d="M168 44.6217V69.4566H162.07V44.6217H168Z" fill="black"/>
<path d="M44.6431 41L62.2863 71.7332H27L44.6431 41Z" fill="black"/>
</svg>
